<?xml version="1.0" encoding="UTF-8"?>
<svg width="24px" height="24px" viewBox="0 0 24 24" version="1.1" xmlns="http://www.w3.org/2000/svg">
    <g stroke="none" stroke-width="1" fill="none" fill-rule="evenodd">
        <!-- Car body -->
        <path d="M19,7 L5,7 C4.45,7 4,7.45 4,8 L4,16 L3,16 L3,18 L21,18 L21,16 L20,16 L20,8 C20,7.45 19.55,7 19,7 Z" fill="#4F46E5"/>
        <!-- Car top -->
        <path d="M17,7 L7,7 L7,5 C7,4.45 7.45,4 8,4 L16,4 C16.55,4 17,4.45 17,5 L17,7 Z" fill="#4F46E5"/>
        <!-- Car windows -->
        <path d="M16,5 L8,5 L8,7 L16,7 L16,5 Z" fill="#E5E7EB"/>
        <!-- Wheels -->
        <circle cx="6.5" cy="16" r="2" fill="#1F2937"/>
        <circle cx="17.5" cy="16" r="2" fill="#1F2937"/>
        <!-- Delivery arrow -->
        <path d="M21,12 L24,12 M21,12 L22.5,10.5 M21,12 L22.5,13.5" stroke="#4F46E5" stroke-width="2" stroke-linecap="round" stroke-linejoin="round"/>
        <!-- Delivery box -->
        <path d="M19,9 L19,11 L17,11 L17,9 Z" fill="white"/>
    </g>
</svg> 