<?xml version="1.0" encoding="UTF-8"?>
<svg width="24px" height="24px" viewBox="0 0 24 24" version="1.1" xmlns="http://www.w3.org/2000/svg">
    <g stroke="none" stroke-width="1" fill="none" fill-rule="evenodd">
        <!-- Map background -->
        <path d="M20,4 L4,4 C2.9,4 2,4.9 2,6 L2,18 C2,19.1 2.9,20 4,20 L20,20 C21.1,20 22,19.1 22,18 L22,6 C22,4.9 21.1,4 20,4 Z" fill="#E5E7EB"/>
        <!-- Map grid lines -->
        <path d="M4,8 L20,8 M4,12 L20,12 M4,16 L20,16 M8,4 L8,20 M12,4 L12,20 M16,4 L16,20" stroke="#9CA3AF" stroke-width="1"/>
        <!-- Location pin -->
        <path d="M12,2 C8.13,2 5,5.13 5,9 C5,14.25 12,22 12,22 C12,22 19,14.25 19,9 C19,5.13 15.87,2 12,2 Z" fill="#4F46E5"/>
        <circle cx="12" cy="9" r="2" fill="white"/>
    </g>
</svg> 