<?xml version="1.0" encoding="UTF-8"?>
<svg width="24px" height="24px" viewBox="0 0 24 24" version="1.1" xmlns="http://www.w3.org/2000/svg">
    <g stroke="none" stroke-width="1" fill="none" fill-rule="evenodd">
        <!-- Chat bubble -->
        <path d="M20,2 L4,2 C2.9,2 2,2.9 2,4 L2,22 L6,18 L20,18 C21.1,18 22,17.1 22,16 L22,4 C22,2.9 21.1,2 20,2 Z" fill="#4F46E5"/>
        <!-- Clock circle -->
        <circle cx="12" cy="10" r="4" fill="white"/>
        <!-- Clock hands -->
        <path d="M12,8 L12,10 M12,10 L14,10" stroke="#4F46E5" stroke-width="1.5" stroke-linecap="round"/>
        <!-- Clock dots -->
        <circle cx="12" cy="10" r="0.5" fill="#4F46E5"/>
        <!-- 24/7 badge -->
        <path d="M16,4 L20,4 C20.55,4 21,4.45 21,5 L21,7 C21,7.55 20.55,8 20,8 L16,8 C15.45,8 15,7.55 15,7 L15,5 C15,4.45 15.45,4 16,4 Z" fill="white"/>
        <text x="18" y="6.5" font-family="Arial" font-size="3" fill="#4F46E5" text-anchor="middle" font-weight="bold">24/7</text>
        <!-- Support dots -->
        <circle cx="8" cy="6" r="1" fill="white"/>
        <circle cx="11" cy="6" r="1" fill="white"/>
        <circle cx="14" cy="6" r="1" fill="white"/>
    </g>
</svg> 