<svg viewBox="198.75 356.25 787.5 1143.7499999999998" xmlns="http://www.w3.org/2000/svg" overflow="visible" xmlns:xlink="http://www.w3.org/1999/xlink" width="787.5px" height="1143.7499999999998px"><g id="Master/Character/Sitting" stroke="none" stroke-width="1" fill="none" fill-rule="evenodd"><g id="Sitting" transform="translate(179.000000, 940.000000) scale(1 1)"><g id="Sitting/On Chair 3" stroke="none" stroke-width="1" fill="none" fill-rule="evenodd"><path d="M410.615323,399.49997 C410.615323,399.49997 400.357969,471.949685 396.171539,502.905682 C391.949971,534.125643 467.0487,503.736716 467.0487,503.736716 C467.0487,503.736716 453.509565,484.44329 453.304761,479.157997 C453.100961,473.870697 476.218696,412 476.218696,412 L410.615323,399.49997 Z" id="Fill-3" fill="#ffcba7"/><path d="M561.035706,7.46069873e-14 C597.897949,16.8477074 635.153618,59.3884812 602.589029,139.128809 C570.024441,218.869137 493.394303,411.87247 481.349448,420.555326 C469.305594,429.239182 405.784608,412 405.784608,412 C405.784608,412 412.732597,330.944505 426.534884,251.242608 C436.641716,192.880271 457.952435,150.325862 457.952435,150.325862 C457.952435,150.325862 286.540837,174.784268 243.98254,146.076381 C188.124727,108.397247 229.480836,6.86053872 261.586066,-5.71064401 C302.858588,-21.8713886 490.854841,-32.0758202 561.035706,7.46069873e-14 Z" id="Fill-5" fill="#F67A49"/><path d="M559.105053,537.550495 C553.718837,520.869499 514.662001,509.852921 486.4598,501.514412 C476.966506,498.70607 463.702961,484.835405 457.545853,485.001479 C448.581857,485.24512 457.367415,503.898122 427.362791,502.274176 C419.4193,501.844571 418.851908,493.484184 401.591555,491.580796 C398.786673,491.272515 394.499152,490.727553 390.796066,497.394383 C388.732001,501.110663 380.282268,534.66359 388.577622,548.345309 C446.664152,549.845942 506.41276,548.363209 558.020392,547.881892 C563.059757,547.834159 560.482433,541.818697 559.105053,537.550495" id="Fill-17" fill="#FF0057"/><path d="M654.970564,412 C654.970564,412 665.530533,466.509706 672.596211,475.377601 C679.662889,484.243493 716.32892,494.221378 717.974942,499.698195 C719.618961,505.175012 639.820958,518 639.820958,518 L591,416.698422 L654.970564,412 Z" id="Fill-1" fill="#ffcba7"/><path d="M790.105053,534.5497 C784.718837,517.869641 745.662001,506.853025 717.4598,498.513492 C707.966506,495.706135 694.702961,481.834427 688.545853,482.001496 C679.581857,482.244144 688.367415,500.898205 658.362791,499.274253 C650.420302,498.844647 649.85291,490.483237 632.591555,488.580837 C629.786673,488.27156 625.499152,487.727591 621.796066,494.393449 C619.732001,498.109742 611.282268,531.662786 619.577622,545.345546 C677.664152,546.846185 737.41276,545.362452 789.020392,544.881134 C794.059757,544.8334 791.482433,538.817918 790.105053,534.5497" id="Fill-10" fill="#FF0057"/><path d="M722.704751,510.429527 C726.392384,503.004274 728.005104,501.713139 726.433049,500.543939 C722.673012,497.748284 703.571309,506.385021 702.069675,511.523009 C700.944937,515.373796 713.664197,504.228541 723.820563,502.565701 C719.658833,506.366337 715.778784,518.019983 719.874061,515.696334 C739.826756,504.381943 742.973841,507.006496 742.998637,506.585624 C743.116665,504.585496 735.565843,502.966906 722.704751,510.429527" id="Fill-15" fill="#FFB201"/><path d="M180.126096,77 C192.090433,138.955221 247.290014,161.21191 295.189049,159.361921 C368.355288,156.536045 442.938988,124.042498 468.151215,113.183029 C465.930109,129.164147 477.804596,220.024734 497.628146,262.074146 C517.451696,304.123559 582.008895,430.623213 582.008895,430.623213 C582.008895,430.623213 654.850327,431.050084 657.965073,413.369038 C660.014248,401.737852 591.630112,76.8494703 569.008895,20.5961921 C556.018259,-11.7082512 513.975789,-25.6487365 427.5,-33 C340.646127,-40.3834042 214.030282,-26.7715765 214.030282,-26.7715765 C214.030282,-26.7715765 168.16176,15.0447792 180.126096,77 Z" id="Fill-7" fill="#FFB201"/><path d="M491.704751,514.429893 C495.392384,507.004835 497.005104,505.713735 495.432058,504.543583 C491.67202,501.748984 472.571309,510.385493 471.069675,515.522362 C469.944937,519.373048 482.664197,508.228087 492.820563,506.566274 C488.658833,510.36681 484.777792,522.019165 488.874061,519.69656 C508.826756,508.381485 511.973841,511.005969 511.998637,510.585107 C512.116665,508.585032 504.565843,506.966486 491.704751,514.429893" id="Fill-22" fill="#FFB201"/><path d="M546.8316,554.3915 L407.0166,556.8575 C397.6626,557.2315 383.6706,554.0145 382.3176,546.2435 C381.3066,540.4375 383.5546,527.7955 384.0206,526.9545 C387.2776,521.0945 415.0326,526.0385 423.1176,545.8275 C474.1316,549.6495 561.0086,545.9125 561.0086,545.9125 C561.0086,545.9125 562.3126,553.5935 546.8316,554.3915" id="Fill-19" fill="#090E2B"/><path d="M777.7223,550.7851 L637.9073,553.2511 C628.5543,553.6251 614.5613,550.4091 613.2083,542.6381 C612.1983,536.8321 614.4453,524.1901 614.9123,523.3491 C618.1683,517.4891 645.9233,522.4331 654.0083,542.2221 C705.0223,546.0441 791.9003,542.3071 791.9003,542.3071 C791.9003,542.3071 793.2033,549.9881 777.7223,550.7851" id="Fill-12" fill="#090E2B"/></g></g><g id="Upper Body/Sitting" transform="translate(243.000000, 170.000000) scale(1 1.0010526315789474)"><g id="Upper Body/Sitting/Namaste 1" stroke="none" stroke-width="1" fill="none" fill-rule="evenodd"><path d="M345.929327,635.91287 L330,606.8482 C330,606.8482 352.184069,582.633491 362.545418,578.415219 C378.141346,572.066253 385.087842,573.055897 385.087842,573.055897 C385.087842,573.055897 401.978439,610.370613 405,641.545923 C387.504492,654.183695 345.929327,635.91287 345.929327,635.91287" id="Fill-1" fill="#ffcba7"/><path d="M209.711172,383 C209.711172,383 215.322511,427.556873 206.830431,445.779166 C204.051787,451.742224 183.267011,456.893551 178,460.55286 C197.222289,496.926206 242.954802,504 256.243445,504 C279.98003,504 279.978028,480.329381 281,462.909787 C272.788187,460.485633 264.542341,457.206604 262.728616,450.070601 C261.53548,445.37882 265.807545,410.554684 265.807545,410.554684 L209.711172,383 Z" id="neck" fill="#ffcba7"/><path d="M277.469798,459.358063 C277.469798,459.358063 274.379278,488.896316 261.205641,495.746808 C254.398712,499.284964 193.400886,464.0383 187.094071,455 C182.682893,454.978584 146.816499,465.343251 141.804388,469.223132 C136.791278,473.103013 121.532293,548.550277 127.715328,567.117351 C133.898363,585.684424 154.717747,583.819465 156.724717,619.150077 C160.010332,676.989903 146.732315,748.018187 129.206662,780.915711 C126.654939,785.705569 111.944198,801.592353 133.802542,809.645664 C145.956712,814.123648 217.615948,774.841958 252.68908,766.061181 C315.075727,750.442296 330.053945,755.146912 333.551286,752.994478 C345.006913,745.944128 310.549134,728.031065 322.360189,642.283001 C324.199926,628.92574 326.795323,617.307081 329.073284,607.542931 C330.31009,611.463778 332.923456,622.96753 336.829529,622.417972 C354.124857,619.986926 390.035173,613.325282 400.702256,607.379062 C403.667997,605.725392 383.892067,554.937223 367.465199,527.435333 C355.673111,507.692205 338.863921,481.49027 318.802498,471.510293 C303.59347,463.943376 277.469798,459.358063 277.469798,459.358063 Z" id="Fill-5" fill="#FF0057"/><path d="M272.909165,551.031393 C272.909165,551.031393 278.360224,544.210092 286.898717,551.032393 C293.069577,555.96361 294.839544,571.376289 295.320078,575.533472 C295.799612,579.690655 298.162238,609.273958 291.311622,617.824335 C311.288831,622.813554 350.790744,634.194056 350.790744,634.194056 C350.790744,634.194056 377.522461,634.231057 404.386326,637.683209 C407.171422,657.323074 409.057518,694.649719 385.943823,696.903818 C375.696431,697.902862 321.051684,692.246613 277.318066,625.44467 C262.361439,621.061477 261.819837,612.854116 261.041972,599.608532 C260.179013,584.928886 272.909165,551.031393 272.909165,551.031393" id="Fill-8" fill="#ffcba7"/><path d="M78.588881,585.435257 C68.0045781,612.001851 62.2000897,666.633959 64.4991145,685.169978 C69.9720321,729.301641 138.888847,723.196964 208.833332,675.247503 C241.199448,653.060677 258.410175,639.03542 268.811715,628.679968 C276.035367,621.488349 284.022031,621.194364 287.446599,606.611136 C290.259959,594.624771 289.16138,566.935237 284.883916,557.62173 C280.605452,548.308223 274.56427,547.593261 271.047821,547.054289 C262.380038,545.726359 258.18247,569.119121 255.682705,577.810661 C255.23029,575.221798 253.115028,571.769981 251.437199,570.558045 C246.954001,567.319216 244.220538,569.040125 247.481318,576.807714 C250.912877,584.978281 241.129538,605.4132 250.724122,614.346727 C234.551051,624.11421 204.112442,627.789015 181.377862,632.61276 C160.513862,637.037526 141.112969,641.237303 138.296614,641.48829 C143.428972,625.364144 155.515331,597.207634 155.515331,597.207634 C155.515331,597.207634 89.1741826,558.867664 78.588881,585.435257" id="Fill-11" fill="#ffcba7"/><path d="M113.074243,649.568517 C121.030207,645.4734 129.581953,641.639798 138.693833,641.000211 C139.027878,640.988458 139.12361,641.470352 138.803824,641.573195 C132.691215,643.814197 125.953291,646.157062 119.781614,648.145363 C118.909839,648.221761 112.225892,651.057294 113.074243,649.568517" id="Fill-23" fill="#090E2B"/><path d="M144.253856,468 C144.253856,468 182.094239,513.191968 183.938457,535.582525 C185.780678,557.974079 145.664961,629 144.047279,629 C140.231107,628.998006 125.474375,621.871879 98.5416181,618.118347 C71.780509,614.388748 70.6568139,614.105538 70.0510564,610.110679 C68.7876478,601.792876 91.2166427,532.472199 110.1538,500.662909 C124.81872,476.030604 144.253856,468 144.253856,468" id="Fill-13" fill="#FF0057"/><path d="M183.383367,525.675662 C182.476496,523.094561 184.29645,519.48255 185.709135,530.704295 C187.60457,545.760792 179.91655,561.817428 171.937464,579.967097 C169.516812,584.963128 159.056422,604.015164 154.46337,611.329884 C153.137693,613.441107 154.940331,610.145028 156.31389,607.247272 C163.762596,591.532956 187.60457,550.423153 183.383367,525.675662 Z" id="Fill-15" fill="#090E2B"/><path d="M328.767253,527.613858 C341.516494,552.935473 334.645663,581.233276 329.096724,607.541616 C329.036638,607.833831 328.788283,608.194096 328.837353,607.875862 C330.602879,592.065239 333.650239,573.229392 333.706319,557.459799 C333.263686,547.425422 330.886285,536.797609 328.02419,527.182541 C327.859955,526.751224 328.578983,527.161525 328.767253,527.613858" id="Fill-17" fill="#090E2B"/><path d="M277.696495,549.012213 C294.420136,553.093291 294.219968,609.255694 283.513546,619.320149 C280.953027,621.923665 277.391671,624.409977 274,625 C275.26197,623.87004 277.330706,623.239948 278.693268,622.050885 C292.161393,612.467264 289.209684,581.632788 287.356356,566.897231 C286.325036,560.260722 284.561123,552.194733 277.572533,549.383858 C277.339851,549.32175 277.457716,548.926064 277.696495,549.012213" id="Fill-19" fill="#090E2B"/><path d="M344.17715,632.002775 C352.515963,633.530582 371.520227,637.140192 378.646066,641.981807 C379.120311,642.305056 380.347471,643.183316 379.905653,642.965784 C379.546929,642.789929 378.666333,642.412805 378.037046,642.14953 C368.80345,638.300025 358.137998,636.37883 348.626746,633.575308 L344.111283,632.313825 C343.931921,632.267066 343.980562,631.968213 344.17715,632.002775" id="Fill-21" fill="#090E2B"/></g></g><g id="Head" transform="translate(341.000000, 346.000000) scale(1 1)"><g id="Head/Long Hair Hat" stroke="none" stroke-width="1" fill="none" fill-rule="evenodd"><path d="M70.2561019,97.4988116 C55.8815648,61.6950724 65.0293703,37.9505667 97.6995186,26.2652945 C146.704741,8.73738625 185.296388,17.974116 190.235438,59.3051654 C198.157562,125.599223 94.9177557,158.925445 70.2561019,97.4988116 Z" id="Path-10" fill="#FFB201"/><path d="M146.175763,222.265294 C53.2245817,222.265294 -22,206.483116 -22,143.463659 C-22,80.4451763 31.2016807,46.241742 130.854945,31.590673 C230.508209,16.939604 302,13.2004582 302,96.454099 C302,159.473556 239.129312,222.265294 146.175763,222.265294 Z" id="Fill-1" fill="#FFB201"/><path d="M-106.281498,235.5 C-66.0679622,209.611032 -17.144614,224.3795 8.88738598,215.1235 C51.195386,200.0805 45.4881941,152.689596 85.35,135.013504 C96.1764599,100.831573 126.660547,83.7612703 171.658946,83.7612703 C242.273176,83.7612703 244.238693,140.447 245.970693,150 C252.335693,185.102 239.1158,253.4885 252.4698,276.9925 C274.8878,316.4545 264.5268,342.2155 252.8368,351.6275 C240.2348,361.7745 203.5688,352.4845 195.6138,345.8925 C180.4328,333.3135 165.1148,328.3775 165.1148,286.6725 C157.1888,274.5035 156.7218,270.9005 158.5118,256.1275 C160.6658,238.3535 162.69106,222.2745 124.43506,215.1235 C127.545511,245.85586 132.654096,267.016784 118.354071,282.575637 C104.054045,298.13449 89.6971105,298.13449 72.0618,304 C35.0070839,316.324411 22.5879437,420.655109 -90.4692058,376.973466 C-151.085206,354.330466 -146.495034,261.388968 -106.281498,235.5 Z" id="Fill-3" fill="#090E2B"/><path d="M234.766351,156.809989 C243.747501,193.621941 240.591641,218.766488 232.575188,234.654952 C223.138867,253.357571 215.14308,262.203043 198.631249,262.783783 C166.782298,263.903948 146.769876,252.085896 135.517429,241.802756 C123.663779,230.9702 119.685475,218.292019 116.4017,210.0813 C115.990445,209.052937 115.616439,207.955724 115.276593,206.802752 L115.615,206.7175 C104.397,209.6475 85.35,199.8205 85.35,176.7455 C85.35,166.516571 101.568204,153.837822 112.35613,165.811952 C112.490126,163.05239 112.62352,161.390056 112.62352,161.390056 C120.16352,131.230056 163.008694,114.037304 190.5347,110.2713 C238.201544,103.749703 225.785202,119.998038 234.766351,156.809989 Z" id="Combined-Shape" fill="#ffcba7"/><path d="M110.260906,179.030159 C107.387906,173.262159 100.466906,169.688159 94.4889061,173.724159 C93.1359061,174.637159 94.9599061,175.262159 95.5309061,175.198159 C102.631906,174.269159 105.450906,176.210159 107.783906,180.247159 C105.552906,180.794159 103.323906,182.779159 103.038906,185.021159 C102.864906,186.397159 103.340906,190.470159 104.390906,189.185159 C105.116906,188.297159 103.516906,182.239159 108.805906,182.792159 C108.885906,182.810159 108.957906,182.814159 109.032906,182.821159 C109.281906,183.419159 111.272906,184.657159 112.127906,183.619159 C112.651906,182.985159 111.572906,181.667159 110.260906,179.030159" id="Fill-8" fill="#090E2B"/><path d="M184.510972,83.8578 C156.443412,85.8888 116.344674,115.8978 109.891199,137.8978 C108.798428,141.6248 109.800397,161.00949 112.187365,165.38949 C115.363503,171.22049 115.016418,184.5168 124.481581,186.0588 C141.168954,188.7758 124.021313,163.9558 126.553271,157.4708 C136.09628,133.0178 166.368842,148.5498 184.510972,143.0138 C209.353739,135.4338 218.55617,130.0448 219.193538,129.0798 C222.416384,141.4558 239.795617,165.1488 245.815099,169.7678 C247.772938,171.2688 245.134915,144.3788 238.851728,122.6218 C235.049899,109.4558 211.193836,81.9268 184.510972,83.8578 Z" id="Fill-9" fill="#090E2B"/><path d="M107.2742,236.0906 C95.6422,236.0906 86.1782,226.6266 86.1782,214.9946 C86.1782,208.8476 88.8402,202.9286 93.5032,198.9136 C94.2692,199.6966 95.1862,200.5656 95.8692,201.1486 C91.8702,204.5926 89.1782,209.7216 89.1782,214.9946 C89.1782,224.9726 97.2962,233.0906 107.2742,233.0906 C117.2522,233.0906 125.3702,224.9726 125.3702,214.9946 C125.3702,205.0176 117.2522,196.8996 107.2742,196.8996 C106.4462,196.8996 105.7742,196.2276 105.7742,195.3996 C105.7742,194.5706 106.4462,193.8996 107.2742,193.8996 C118.9062,193.8996 128.3702,203.3626 128.3702,214.9946 C128.3702,226.6266 118.9062,236.0906 107.2742,236.0906" id="Fill-11" fill="#FFF"/><path d="M152.051658,254.807156 C147.761215,252.73178 139.062884,248.94355 137.181884,246.48855 C136.201884,245.20955 139.422217,246.726877 141.112217,247.783877 C143.361217,249.189877 152.489516,253.11955 163.690516,257.23955 C164.661516,257.59655 170.871516,259.58955 171.049516,259.91355 C171.216516,260.21655 170.663516,260.81555 169.946516,260.78355 C165.129516,260.56555 156.78076,257.09472 152.051658,254.807156 Z" id="Fill-4" fill="#090E2B" transform="translate(154.039749, 253.392391) rotate(5.000000) translate(-154.039749, -253.392391)"/></g></g><g id="Expressions" transform="translate(462.000000, 479.000000) scale(1 1)"><g id="Expressions/In Love" stroke="none" stroke-width="1" fill="none" fill-rule="evenodd"><path d="M89.4189912,77.2399887 C83.9284487,80.2318246 75.3660942,76.0158977 76.7948,74.506 C77.574353,73.6821458 85.5165447,75.6186894 86.4335668,74.0825284 C87.6721194,72.0077515 85.8448629,66.6992367 83.9284487,62.3490252 C82.5348984,59.1857013 79.3846372,52.819168 80.2933512,52.819168 C81.130093,52.819168 87.2937833,61.9085175 88.3962588,64.3781996 C91.7261801,71.8376369 91.7241126,75.9839116 89.4189912,77.2399887 Z" id="Fill-4" fill="#090E2B"/><path d="M60.5064,23.7959 C47.5804,20.5489 45.4794,19.4539 34.8664,25.0279 C30.5494,27.2959 29.0064,28.3849 30.6324,25.1509 C31.4894,23.4449 33.2274,21.3369 35.8614,19.1299 C43.6104,12.6399 55.3864,12.5789 62.8214,17.9049 C66.5844,20.5999 64.7764,24.8679 60.5064,23.7959" id="Fill-6" fill="#090E2B"/><path d="M83.771,23.1543 C85.822,15.2143 101.31,10.5023 109.546,17.1923 C111.353,18.6603 112.569,19.4983 109.502,19.9433 C108.406,20.1033 96.527,18.0893 87.738,24.9943 C85.677,26.6133 82.923,26.4353 83.771,23.1543" id="Fill-9" fill="#090E2B"/><g id="heart-1" transform="translate(52.500000, 43.500000) rotate(3.000000) translate(-52.500000, -43.500000) translate(35.000000, 28.000000)"><path d="M24.1924232,0.715741302 C17.7094082,1.4745763 16.9990832,7.7843413 16.9990832,7.7843413 C16.9990832,7.7843413 12.5095982,2.0670913 6.35344821,4.2373363 C1.31649321,6.0125713 -1.72231179,12.5637313 4.43730321,20.1647863 C9.28599321,26.1476863 21.2148332,28.3098463 24.5805032,29.8910413 C26.0993282,27.6688213 31.0762232,23.6020663 33.0651332,14.0224963 C35.0528882,4.4440813 29.4961832,0.0943513025 24.1924232,0.715741302" id="Fill-11" fill="#FF0057"/><path d="M24.4699697,29.4832108 C15.2732439,26.5150355 9.37345399,23.808801 5.95760229,20.0089423 C-2.67349674,10.4075429 4.78873932,-0.521763483 17.0052047,8.2150408 C21.0211397,-3.6225542 35.4332297,1.5206608 32.5029947,13.5211108 C31.5986297,19.5987208 28.4408597,24.8874658 24.4699697,29.4832108 Z M16.7326247,6.7204708 C8.45935971,-3.7599992 -5.31863529,7.8396658 2.14150971,18.6192808 C7.26277971,26.0205208 16.6252097,27.5393458 24.4364747,30.1923808 C30.1664297,25.1323258 34.3348247,16.8763858 34.1223047,8.9450008 C34.3902647,-1.3125542 18.6406847,-3.6583592 16.7326247,6.7204708 Z" id="Fill-13" fill="#090E2B"/></g><g id="heart-2" transform="translate(99.000000, 40.000000) rotate(11.000000) translate(-99.000000, -40.000000) translate(85.000000, 27.000000)"><path d="M19.5093993,0.637830619 C15.2721993,0.647750446 14.4449993,5.17865045 14.1523993,5.24685045 C13.8597993,5.31615045 10.0812993,1.21095045 5.06859928,2.89615045 C0.969999284,4.27555045 -0.595300716,9.75025045 3.38999928,16.3755504 C6.39409928,21.3706504 15.0147993,24.6233504 17.6030993,25.5132504 C20.6071993,21.8117504 24.6155993,18.3599504 26.2094993,11.5894504 C28.1025993,3.54845045 23.4143993,0.629050446 19.5093993,0.637830619" id="Fill-15" fill="#FF0057"/><path d="M25.3907693,12.1127204 C23.7132693,17.0693204 21.3064693,21.0711204 17.4960693,25.0850204 C14.5524693,24.0554204 9.87196928,21.6409204 6.67976928,18.6830204 C1.61866928,13.9904204 -0.836530716,7.93712045 4.68436928,3.92872045 C7.37276928,1.97512045 11.5065693,3.10922045 13.7736693,5.38512045 C14.4919693,6.10562045 14.4886693,5.87682045 14.6602693,5.55342045 C18.2275693,-4.00557955 28.1825693,3.86822045 25.3907693,12.1127204 M26.5600693,4.22132045 C24.3688693,-1.03007955 15.6689693,-1.75937955 13.8957693,4.18612045 C3.77906928,-4.10567955 -5.00003072,9.62782045 3.30166928,17.8547204 C7.22426928,21.7003204 12.6461693,24.6945204 17.8579693,25.7527204 C23.1621693,20.2120204 29.5366693,12.4152204 26.5600693,4.22132045" id="Fill-17" fill="#000"/></g><g id="lips" transform="translate(61.561158, 86.472328)" fill="#090E2B"><path d="M33.0776392,3.10951711 C32.3096095,3.68791618 30.5066133,6.07407003 28.6835303,7.58937729 C24.5833121,10.9973902 17.9134174,11.7807356 13.983271,10.9973902 C6.59477626,9.52473675 3.39839502,4.70589671 1.44555403,3.38627148 C-0.507286947,2.06664625 3.15885949,0.371947524 5.96377846,0.620811249 C8.76869744,0.869674975 10.6512306,1.68385376 16.0042847,3.98694343 C19.458774,5.47319757 27.2699021,3.38627148 29.4770368,2.06664625 C33.6872538,-0.450603278 34.9501484,1.69934025 33.0776392,3.10951711 Z" id="Fill-18"/><path d="M22.4708476,13.7892357 C19.5451896,13.0367248 13.2054699,13.8670175 13.4454699,16.8130175 C13.5880982,18.5717023 15.1690297,19.562964 19.6747779,18.2282597 C21.3616833,17.7285602 23.5578877,17.3554298 25.5033258,17.3554298 C26.2213258,16.4004298 25.3965056,14.5417466 22.4708476,13.7892357 Z" id="Fill-20"/></g></g></g><g id="Facial Accesories" transform="translate(459.000000, 529.000000) scale(1 1)" fill="#000"><g id="Facial Accesories/None" stroke="none" stroke-width="1" fill="none" fill-rule="evenodd" fill-opacity="0"/></g><g id="Glass" transform="translate(462.000000, 484.000000) scale(1 1)" fill="#000"><g id="Glass/None" stroke="none" stroke-width="1" fill="none" fill-rule="evenodd" fill-opacity="0"/></g></g></svg>