<svg viewBox="123.74999999999989 37.5 787.5 1481.25" xmlns="http://www.w3.org/2000/svg" overflow="visible" xmlns:xlink="http://www.w3.org/1999/xlink" width="787.5px" height="1481.25px"><g id="Master/Character/Standing" stroke="none" stroke-width="1" fill="none" fill-rule="evenodd"><g id="Lower Body/Standing" transform="translate(-64.000000, 629.000000) scale(1 1)"><g id="Lower Body/Standing/Skirt 2" stroke="none" stroke-width="1" fill="none" fill-rule="evenodd"><g id="Group" transform="translate(420.000000, 0.000000)"><path d="M97,224.870199 C97,224.870199 130.917774,340.170164 124.313813,386.112835 C117.525006,433.336224 110.63519,485.838515 111.89174,534.993111 C113.016979,579.041051 123.741093,677.537689 115.657351,755.762729 C114.719989,764.832108 111.151345,784.892955 109.663484,793.301711 C101.55146,818.370929 146.085268,847.894286 178.16165,860.064134 C197.405863,867.366448 212.443056,851.657405 212.443056,851.657405 C212.443056,851.657405 161.158824,799.250356 162.634564,781.196709 C166.22543,737.266303 221.734864,506.514389 237.025589,422.211011 C243.360866,387.276018 265,215.317511 265,215.317511 C265,215.317511 153.543765,173.390252 131.687462,175.047888 C114.077572,176.383319 97,224.870199 97,224.870199" id="leg-2" fill="#ffcba7"/><path d="M206.293461,845.441838 C206.293461,845.441838 209.974474,852.68751 198.517713,852.984721 C190.350497,853.19774 176.407357,852.918787 166.838139,846.131612 C157.26791,839.343423 108.945382,798.540237 108.945382,793.624581 C108.945382,790.66261 104.698915,798.868894 102.945908,804.938906 C95.0892357,832.13934 113.54589,864.680451 113.779557,871 L129.648679,871 C129.648679,871 133.273045,846.778782 134.206701,844.671928 C135.141369,842.566088 163.575906,871 179.023213,871 L234.312253,871 C242.154763,871 232.840454,857.345514 206.293461,845.441838" id="shoe-2" fill="#090E2B"/><path d="M64,211.537999 C70.2638572,284.893503 96.5997931,348.947298 94.0954649,395.268509 C91.5091438,443.147094 73.3876877,481.52145 75.0042649,558.340033 C76.1643134,613.478932 93.6885369,733.445249 85.6906805,774.224522 C83.9364361,783.167771 74.492062,785.423835 72.8471415,798.256467 C69.4996018,824.384485 110.886813,847.902031 143.032102,860.065336 C162.31968,867.363117 177.389176,851.663826 177.389176,851.663826 C177.389176,851.663826 123.470202,801.593983 126.061584,781.667104 C131.417445,740.482793 171.769116,541.538025 183.069972,431.235925 C190.062656,362.981881 200,213.17638 200,213.17638 C200,213.17638 85.6096998,182.401557 64,211.537999" id="leg-1" fill="#ffcba7"/><path d="M173.12093,846.845385 C157.180506,833.576912 124.357788,803.444397 124,781.962108 C126.986663,755.742091 131.607327,729.72661 135.843701,703.693915 C148.249057,630.364948 172.984339,503.833496 181.38777,431.450252 C189.276435,363.50097 186.744397,294.428768 190.672929,226.104842 C190.700452,225.466935 191.244779,224.97281 191.887982,225 C192.528127,225.030526 193.024545,225.569203 192.999061,226.205085 C189.554714,290.228706 191.946084,368.040238 184.460058,431.906913 C176.047453,503.670476 151.353964,631.432177 139.105586,704.23158 C134.915083,730.555889 130.0457,756.841722 127.303678,783.357404 C129.439193,800.593052 148.15222,819.123754 159.56474,831.880888 C164.170114,836.726959 168.968143,841.402921 173.954749,845.854097 C174.590817,846.339109 173.73865,847.3952 173.12093,846.845385" id="Fill-8" fill="#090E2B"/><path d="M173.41073,845.721798 C173.41073,845.721798 175.626051,852.63712 164.101699,852.935133 C155.885574,853.148726 141.858936,852.869021 132.231396,846.063547 C122.604873,839.258072 73.6500362,797.510847 73.6500362,792.581938 C73.6500362,789.611981 69.7210717,798.673402 67.957566,804.760797 C60.0538448,832.033549 78.621026,864.662396 78.8550747,871 L94.8202455,871 C94.8202455,871 98.467334,846.713479 99.4055639,844.599927 C100.344811,842.488409 128.950644,871 144.490457,871 L200.110593,871 C208.000068,871 199.936583,856.630289 173.41073,845.721798" id="shoe-1" fill="#090E2B"/><path d="M265.550356,0 C265.550356,0 311.015243,105.944161 312,222.987995 C229.599188,283.926226 129.0922,255.267197 129.0922,255.267197 C129.0922,255.267197 125.373804,218.531542 120.303265,208.637751 C114.517183,215.575741 102.437965,251.938256 102.437965,251.938256 C102.437965,251.938256 7.47719547,241.656155 0.388561787,231.619782 C-6.7000719,221.583408 85.5492595,0 85.5492595,0 L265.550356,0 Z" id="skirt" fill="#FFB201"/></g></g></g><g id="Upper Body/Standing" transform="translate(69.000000, -172.000000) scale(1 1)"><g id="Upper Body/Standing/Shopping Coffee 1" stroke="none" stroke-width="1" fill="none" fill-rule="evenodd"><polygon id="bag-strap" fill="#FFB201" points="313.83974 757.398591 300 838 305.25 837.52068 321 755"/><path d="M786.278252,651.10399 C791.328241,648.208557 789.737333,624.694964 795.918002,633.205027 C797.455915,635.322272 798.808553,642.201644 798.808553,642.201644 L825.795616,643.887911 C825.795616,643.887911 827.482617,633.785656 829.538838,624.524086 C831.594058,615.262516 837.175937,645.929045 827.434154,655.304844 C825.581054,657.087418 817.066199,660.751724 801.528976,665.837922 C791.592078,669.090443 654.315264,745.946862 629.673638,738.490912 C604.890927,730.99388 567,673.729745 567,673.729745 L611.666513,617 C611.666513,617 643.703565,680.164412 652.755878,680.164412 C656.403591,680.164412 668.93953,673.729745 716.076341,665.837922 C733.395565,662.938272 781.228264,653.999423 786.278252,651.10399 Z" id="hand-2" fill="#ffcba7"/><path d="M535.965742,496.521459 C515.178733,487.803266 510.291226,487.919616 503.66698,480.315458 C500.833687,477.063041 496.655838,459.368807 499.284149,444.997536 C501.913463,430.625269 448.170884,421 448.170884,421 C448.170884,421 455.080748,469.498844 445.997129,475.853248 C440.958984,479.37766 425,484.676546 425,484.676546 C474.558153,527.80829 489.045431,535.213551 503.66698,534.995397 C525.92396,534.664016 536.690214,521.839369 535.965742,496.521459 Z" id="Fill-5" fill="#ffcba7"/><path d="M221.442785,756.389176 C170.320586,798.139517 148.682544,817.874293 144.520074,817.411525 C99.5236222,812.41122 62.5232294,856.149863 75.6993838,856 C88.8755382,855.850366 105.516418,850.797975 126.497702,846.505846 C144.529071,842.817721 223.348085,814.436584 292.059815,772.598097 C335.666779,746.044996 337.20741,760.001003 374.722614,671.493005 C385.804538,645.349585 321.136722,634.70429 321.136722,634.70429 C329.096907,620.36409 309.306473,649.022857 292.42668,697.130757 C286.322925,714.529654 272.181126,714.953358 221.442785,756.389176 Z" id="hand-1" fill="#ffcba7"/><path d="M432.561659,484.936518 C438.973815,489.656606 461.096355,515.501972 498.147199,524.345259 C525.78616,530.943996 526.337798,499.566267 524.388544,492.645738 C523.228202,488.530396 535.260115,493.039483 546.804465,499.979 C547.235388,500.238037 547.638255,500.537885 548.015002,500.873762 C553.088363,505.05382 580.55187,531.282137 627,640.96292 C613.881831,667.152001 571.080337,692.526609 571.080337,692.526609 L563.113441,677.224226 C562.963785,677.815086 562.811248,678.408781 562.655795,679.005344 C557.577923,698.490756 573.929832,769.205072 575.423559,815.441202 C576.248513,840.979703 432.202944,799.491506 368.944794,817.202064 C343.622513,824.291484 376.843929,764.620034 387.105795,725.496309 C394.555378,697.091547 392.290147,684.118357 394.506506,660.444831 C384.181761,680.050186 373.527099,698.617868 368.867105,704.099532 C358.825493,715.9129 312.948442,694.73858 297,666.16404 C297,666.16404 312.344744,630.173291 329.131155,589.075841 C353.3693,529.734576 369.351692,507.990011 380.082186,499.271274 C380.647638,498.354438 382.183505,497.279686 384.752232,496.038068 C387.569193,494.425676 389.932963,493.682302 391.932041,493.091956 C400.081964,490.126598 412.522429,486.464205 429.76305,482.013101 C430.522539,481.81702 431.113189,483.870278 432.561659,484.936518 Z" id="Tshirt" fill="#FF00A4"/><path d="M825.168366,655 L799.556866,655 C798.146559,655 796.95427,653.958929 796.770317,652.56593 L789,594 L833,594 L827.969677,652.438059 C827.843635,653.887638 826.6275,655 825.168366,655" id="Fill-16" fill="#FFB201"/><path d="M556.637102,557.064687 C575.548412,605.312956 571.370622,627.221639 562.52612,676.699042 C562.46226,677.14153 561.729875,677.084338 561.778767,676.604725 C563.309393,651.664847 569.196415,626.437 565.807885,601.527224 C564.170495,591.741311 561.788745,581.707566 559.206438,572.110288 C558.962974,570.125613 554.494824,555.927863 556.637102,557.064687 Z M408.259361,638.708918 C407.20269,641.121031 396.526527,659.573899 394.536635,659.573899 C394.18702,659.573899 393.143718,659.342028 395.474247,654.654723 C400.420007,644.707501 403.786233,638.16663 407.607809,628.687751 C409.006725,625.468925 413.83671,614.353974 415.476096,611.166253 C420.04203,608.722032 409.380889,636.924918 408.259361,638.708918 Z" id="Combined-Shape" fill="#090E2B"/><path d="M826.742627,655.086935 C832.512059,650.345255 837.805567,620.668179 830.278469,622.046512 C822.751371,623.424845 819.445042,625.615207 814,657.0159 C814.24572,659.993093 820.973194,659.829626 826.742627,655.086935 Z" id="Fill-27" fill="#ffcba7"/><path d="M830,591 L792,591 L793.852514,583.834186 C794.285035,582.161766 795.742788,581 797.407648,581 L824.592352,581 C826.257212,581 827.713821,582.161766 828.146341,583.834186 L830,591 Z" id="Fill-30" fill="#111B56"/><polygon id="Fill-32" fill="#090E2B" points="786 596 836 596 836 587 786 587"/><g id="Bag" transform="translate(254.000000, 484.000000)"><path d="M164.53652,148.190512 C167.58552,132.607512 171.468025,112.261232 174.833025,96.7362318 C181.517025,66.1332318 190.08882,19.8568254 152.48182,3.71182538 C147.89982,2.77282538 155.503137,0.942 160.278137,0 C161.976137,0.277 183.053137,11.21 186.749137,36.406 C191.533137,69.029 183.365137,94.213 177.550137,125.692 C162.444137,198.16 146.350137,285.365 132.241137,358.678 C131.614137,362.268 125.735137,361.56 126.319137,357.713 C139.433337,285.264848 151.09452,218.060512 164.53652,148.190512 Z" id="Fill-14" fill="#FFB201"/><path d="M166.302537,463.6173 C142.227537,501.8863 21.921537,495.1413 2.275537,454.4223 C-11.376463,426.1283 40.859537,349.9333 40.859537,349.9333 L139.637537,355.4713 C139.637537,355.4713 183.031537,437.0263 166.302537,463.6173" id="Fill-20" fill="#090E2B"/><path d="M139.215637,375.2471 C136.740637,394.2141 127.173637,413.0821 111.060637,423.9711 C72.420637,449.2461 42.198637,415.7261 40.767637,376.6001 C40.608637,374.1171 39.044637,347.6861 43.215637,353.8551 C43.133637,375.4801 45.520637,399.4701 60.156637,416.4681 C75.170637,434.1401 102.325637,428.5601 117.123637,413.4691 C127.910637,403.2781 134.631637,389.4361 138.218637,375.0611 C138.326637,374.4641 139.329637,374.6191 139.215637,375.2471" id="Fill-23" fill="#FFF"/></g></g></g><g id="Head" transform="translate(399.000000, 26.000000) scale(1 1)"><g id="Head/Long Hair Hat" stroke="none" stroke-width="1" fill="none" fill-rule="evenodd"><path d="M70.2561019,97.4988116 C55.8815648,61.6950724 65.0293703,37.9505667 97.6995186,26.2652945 C146.704741,8.73738625 185.296388,17.974116 190.235438,59.3051654 C198.157562,125.599223 94.9177557,158.925445 70.2561019,97.4988116 Z" id="Path-10" fill="#FFB201"/><path d="M146.175763,222.265294 C53.2245817,222.265294 -22,206.483116 -22,143.463659 C-22,80.4451763 31.2016807,46.241742 130.854945,31.590673 C230.508209,16.939604 302,13.2004582 302,96.454099 C302,159.473556 239.129312,222.265294 146.175763,222.265294 Z" id="Fill-1" fill="#FFB201"/><path d="M-106.281498,235.5 C-66.0679622,209.611032 -17.144614,224.3795 8.88738598,215.1235 C51.195386,200.0805 45.4881941,152.689596 85.35,135.013504 C96.1764599,100.831573 126.660547,83.7612703 171.658946,83.7612703 C242.273176,83.7612703 244.238693,140.447 245.970693,150 C252.335693,185.102 239.1158,253.4885 252.4698,276.9925 C274.8878,316.4545 264.5268,342.2155 252.8368,351.6275 C240.2348,361.7745 203.5688,352.4845 195.6138,345.8925 C180.4328,333.3135 165.1148,328.3775 165.1148,286.6725 C157.1888,274.5035 156.7218,270.9005 158.5118,256.1275 C160.6658,238.3535 162.69106,222.2745 124.43506,215.1235 C127.545511,245.85586 132.654096,267.016784 118.354071,282.575637 C104.054045,298.13449 89.6971105,298.13449 72.0618,304 C35.0070839,316.324411 22.5879437,420.655109 -90.4692058,376.973466 C-151.085206,354.330466 -146.495034,261.388968 -106.281498,235.5 Z" id="Fill-3" fill="#090E2B"/><path d="M234.766351,156.809989 C243.747501,193.621941 240.591641,218.766488 232.575188,234.654952 C223.138867,253.357571 215.14308,262.203043 198.631249,262.783783 C166.782298,263.903948 146.769876,252.085896 135.517429,241.802756 C123.663779,230.9702 119.685475,218.292019 116.4017,210.0813 C115.990445,209.052937 115.616439,207.955724 115.276593,206.802752 L115.615,206.7175 C104.397,209.6475 85.35,199.8205 85.35,176.7455 C85.35,166.516571 101.568204,153.837822 112.35613,165.811952 C112.490126,163.05239 112.62352,161.390056 112.62352,161.390056 C120.16352,131.230056 163.008694,114.037304 190.5347,110.2713 C238.201544,103.749703 225.785202,119.998038 234.766351,156.809989 Z" id="Combined-Shape" fill="#ffcba7"/><path d="M110.260906,179.030159 C107.387906,173.262159 100.466906,169.688159 94.4889061,173.724159 C93.1359061,174.637159 94.9599061,175.262159 95.5309061,175.198159 C102.631906,174.269159 105.450906,176.210159 107.783906,180.247159 C105.552906,180.794159 103.323906,182.779159 103.038906,185.021159 C102.864906,186.397159 103.340906,190.470159 104.390906,189.185159 C105.116906,188.297159 103.516906,182.239159 108.805906,182.792159 C108.885906,182.810159 108.957906,182.814159 109.032906,182.821159 C109.281906,183.419159 111.272906,184.657159 112.127906,183.619159 C112.651906,182.985159 111.572906,181.667159 110.260906,179.030159" id="Fill-8" fill="#090E2B"/><path d="M184.510972,83.8578 C156.443412,85.8888 116.344674,115.8978 109.891199,137.8978 C108.798428,141.6248 109.800397,161.00949 112.187365,165.38949 C115.363503,171.22049 115.016418,184.5168 124.481581,186.0588 C141.168954,188.7758 124.021313,163.9558 126.553271,157.4708 C136.09628,133.0178 166.368842,148.5498 184.510972,143.0138 C209.353739,135.4338 218.55617,130.0448 219.193538,129.0798 C222.416384,141.4558 239.795617,165.1488 245.815099,169.7678 C247.772938,171.2688 245.134915,144.3788 238.851728,122.6218 C235.049899,109.4558 211.193836,81.9268 184.510972,83.8578 Z" id="Fill-9" fill="#090E2B"/><path d="M107.2742,236.0906 C95.6422,236.0906 86.1782,226.6266 86.1782,214.9946 C86.1782,208.8476 88.8402,202.9286 93.5032,198.9136 C94.2692,199.6966 95.1862,200.5656 95.8692,201.1486 C91.8702,204.5926 89.1782,209.7216 89.1782,214.9946 C89.1782,224.9726 97.2962,233.0906 107.2742,233.0906 C117.2522,233.0906 125.3702,224.9726 125.3702,214.9946 C125.3702,205.0176 117.2522,196.8996 107.2742,196.8996 C106.4462,196.8996 105.7742,196.2276 105.7742,195.3996 C105.7742,194.5706 106.4462,193.8996 107.2742,193.8996 C118.9062,193.8996 128.3702,203.3626 128.3702,214.9946 C128.3702,226.6266 118.9062,236.0906 107.2742,236.0906" id="Fill-11" fill="#FFF"/><path d="M152.051658,254.807156 C147.761215,252.73178 139.062884,248.94355 137.181884,246.48855 C136.201884,245.20955 139.422217,246.726877 141.112217,247.783877 C143.361217,249.189877 152.489516,253.11955 163.690516,257.23955 C164.661516,257.59655 170.871516,259.58955 171.049516,259.91355 C171.216516,260.21655 170.663516,260.81555 169.946516,260.78355 C165.129516,260.56555 156.78076,257.09472 152.051658,254.807156 Z" id="Fill-4" fill="#090E2B" transform="translate(154.039749, 253.392391) rotate(5.000000) translate(-154.039749, -253.392391)"/></g></g><g id="Expressions" transform="translate(520.000000, 159.000000) scale(1 1)"><g id="Expressions/Happy" stroke="none" stroke-width="1" fill="none" fill-rule="evenodd"><g id="eye1" transform="translate(21.027098, 10.213671)"><path d="M0.0487023333,7.96572872 C1.82485498,-0.0171869856 25.1977023,-2.81531309 35.4827023,3.36568691 C39.0387023,5.47868691 45.6427023,11.2837287 39.7957023,14.4437287 C38.2517023,15.1157287 36.7517023,14.4267287 35.4827023,13.6077287 C21.4647023,3.86572872 -1.18942441,13.5304877 0.0487023333,7.96572872 Z" id="Fill-1" fill="#090E2B"/><path d="M19.0113023,22.3973287 C13.7233023,23.8973287 9.19030233,28.1473287 8.76930233,31.6693287 C8.51430233,33.7973287 16.8643023,38.9063287 24.9173023,39.3033287 C35.5113023,39.8243287 40.8513023,34.0853287 40.8324531,32.2513287 C40.1193023,26.7013287 33.7283023,18.2233287 19.0113023,22.3973287 Z" id="Fill-6" fill="#FFF"/><path d="M35.3981023,25.5550287 C27.2551023,19.4010287 14.6431023,23.4110287 8.76910233,31.6690287 C8.43210233,32.0970287 8.52910233,31.0200287 8.76310233,30.5290287 C11.5971023,24.5820287 16.7101023,21.7750287 22.6381023,20.5510287 C26.2051023,19.8140287 29.5311023,19.7540287 33.0101023,21.3120287 C34.3551023,21.9130287 36.7311023,23.7450287 38.5671023,25.8170287 C39.9991023,27.4320287 41.2051023,30.2010287 39.5481023,29.2220287 C38.2511023,28.4550287 36.4781023,26.3720287 35.3981023,25.5550287 Z" id="Fill-8" fill="#090E2B"/><path d="M24.8135023,36.0623287 C29.3405023,36.0623287 33.0105023,32.7143287 33.0105023,28.5833287 C33.0105023,24.4533287 29.3405023,21.1043287 24.8135023,21.1043287 C20.2865023,21.1043287 16.6165023,24.4533287 16.6165023,28.5833287 C16.6165023,32.7143287 20.2865023,36.0623287 24.8135023,36.0623287 Z" id="Fill-10" fill="#090E2B"/></g><g id="eye2" transform="translate(81.203378, 15.000183)"><path d="M23.2557812,1.861246 C26.6096324,3.34897691 31.0744206,8.28711729 27.357522,8.28711729 C23.6406234,8.28711729 15.5900245,7.23270759 10.1930245,9.45970759 C8.30802454,9.94170759 6.87752199,10.8641173 4.98452199,11.0891173 C0.67652199,11.9281173 -1.66408888,6.76839233 1.38185604,3.64904337 C4.82290212,0.125071736 16.4397812,-1.545754 23.2557812,1.861246 Z" id="Fill-4" fill="#090E2B"/><path d="M19.455322,34.2343173 C24.826322,32.9853173 28.843322,28.1153173 28.389322,24.4763173 C27.503322,19.6543173 18.218322,16.5753173 13.017322,19.2083173 C7.86632199,21.8153173 4.64332199,27.6403173 5.05932199,29.9403173 C5.66032199,31.5323173 13.966322,35.5113173 19.455322,34.2343173 Z" id="Fill-12" fill="#FFF"/><path d="M15.011222,31.6060173 C18.549222,31.6060173 21.417222,28.8520173 21.417222,25.4560173 C21.417222,22.0590173 19.396222,18.8490173 15.011222,19.3060173 C11.492222,19.6720173 8.60422199,22.0590173 8.60422199,25.4560173 C8.60422199,28.8520173 11.473222,31.6060173 15.011222,31.6060173 Z" id="Fill-14" fill="#090E2B"/><path d="M5.25072199,26.6376173 C7.27972199,19.0636173 16.440722,15.1686173 23.685722,18.7546173 C24.705722,19.2866173 26.361722,20.4806173 27.601722,21.9226173 C28.742722,23.2526173 28.593722,23.9496173 28.127722,23.8116173 C27.355722,23.5816173 25.722722,22.1166173 24.395722,21.4866173 C17.685722,18.3036173 10.704722,20.0896173 5.59372199,27.5586173 C5.34272199,27.9456173 5.10472199,27.0746173 5.25072199,26.6376173" id="Fill-22" fill="#090E2B"/></g><path d="M89.773817,88.8585998 C81.203378,89.8585998 88.1482904,99.3833823 83.7083884,100.648667 C72.3411441,103.888108 60,99.9572383 58.0067117,89.8585998 C56.8303329,83.8986871 60.3418642,84.6193542 63.1467832,84.8682179 C65.9517021,85.1170816 79.8038764,85.6292987 87.244688,85.6292987 C94.4593207,85.6292987 90.833428,88.7349642 89.773817,88.8585998 Z" id="Fill-18" fill="#090E2B"/><path d="M79.5163974,56.0474227 C79.9047316,56.0474227 82.4878873,60.4695558 83.4356699,62.0222568 C86.4544009,66.9676809 89.7813295,72.5049636 84.8702,75.6883 C82.4912,77.2313 75.0122,74.8407787 75.0122,73.0253 C75.0122,70.2632077 81.8382,75.1193 83.4442,72.3153 C84.3857451,70.8872578 80.8590997,63.6440183 79.5163974,59.348811 C78.7670658,56.9517537 79.1280631,56.0474227 79.5163974,56.0474227 Z" id="nose" fill="#090E2B"/></g></g><g id="Facial Accesories" transform="translate(517.000000, 209.000000) scale(1 1)" fill="#000"><g id="Facial Accesories/None" stroke="none" stroke-width="1" fill="none" fill-rule="evenodd" fill-opacity="0"/></g><g id="Glass" transform="translate(520.000000, 164.000000) scale(1 1)" fill="#000"><g id="Glass/Round Yellow" stroke="none" stroke-width="1" fill="none" fill-rule="evenodd"><path d="M68.9960479,36.9883397 C68.7355414,53.0558262 55.6295719,66 39.5005002,66 C23.2076742,66 10,52.7931729 10,36.5005002 C10,20.2076592 23.2078425,7 39.5005002,7 C55.6294052,7 68.7355381,19.9449894 68.9960478,36.0126556 L69,36.5005002 L68.9960479,36.9883397 Z M64.9965837,36.0788026 C64.7713969,22.1897567 53.4423476,11 39.5005002,11 C25.4169691,11 14,22.4168106 14,36.5005002 C14,50.5839765 25.4167557,62 39.5005002,62 C53.4425588,62 64.7714011,50.8110148 64.9965838,36.9221913 L65,36.5005002 L64.9965837,36.0788026 Z" id="Fill-1" fill="#FFB201"/><path d="M128.99645,31.938229 C128.762436,46.3717513 116.989294,58 102.5,58 C87.8643493,58 76,46.1356507 76,31.5 C76,16.8643493 87.8643493,5 102.5,5 C116.989294,5 128.762436,16.6282487 128.99645,31.061771 L129,31.5 L128.99645,31.938229 Z M124.996986,31.1279183 C124.798295,18.8730259 114.802247,9 102.5,9 C90.0734883,9 80,19.0734883 80,31.5 C80,43.9265117 90.0734883,54 102.5,54 C114.802247,54 124.798295,44.1269741 124.996986,31.8720817 L125,31.5 L124.996986,31.1279183 Z" id="Fill-3" fill="#FFB201"/><path d="M78.6060845,19.8598214 C79.6998368,20.0253988 80.4617213,21.1134399 80.3078013,22.2900291 C80.1538812,23.4666183 79.1424429,24.2862053 78.0486906,24.1206279 C73.9467481,23.4996563 68.4447849,25.3615983 66.5704002,26.0153284 C64.6960154,26.6690585 63.8466864,26.1584184 63.4094411,25.0673002 C62.9721957,23.976182 63.4946246,22.543265 64.5089233,22.0729043 C65.5232221,21.6025435 73.910258,19.1489448 78.6060845,19.8598214 Z" id="Stroke-7" fill="#FFB201" transform="translate(71.790771, 23.018319) rotate(5.000000) translate(-71.790771, -23.018319)"/></g></g></g></svg>