<?xml version="1.0" encoding="utf-8"?>
<!-- Generator: Adobe Illustrator 27.3.1, SVG Export Plug-In . SVG Version: 6.00 Build 0)  -->
<svg version="1.1" id="Layer_1" xmlns="http://www.w3.org/2000/svg" xmlns:xlink="http://www.w3.org/1999/xlink" x="0px" y="0px"
	 viewBox="0 0 124.7 125.4" style="enable-background:new 0 0 124.7 125.4;" xml:space="preserve">
<style type="text/css">
	.st0{fill:#006CB4;}
	.st1{fill:#332F2F;}
	.st2{fill:#00466D;}
	.st3{fill:#0D2A57;}
	.st4{fill:#DFF1FA;}
	.st5{fill:#4DB9E2;}
	.st6{fill:#DDDDDC;}
</style>
<g id="Group_652" transform="translate(-244.268 -769.974)">
	<g id="Group_647" transform="translate(0 8.914)">
		<g id="Group_421" transform="translate(269.173 798.539)">
			<g id="Group_420" transform="translate(0 0)">
				<g id="Group_419">
					<g id="Group_418">
						<g id="Group_417">
							<g id="Group_416">
								<g id="Group_415">
									<g id="Group_414">
										<path id="Path_2954" class="st0" d="M84.9,8.6c-0.1-2.1-1.9-3.8-4-3.8H1.8c-1,0-1.9,0.4-2.6,1l0,0c0,0,0,0,0,0
											c0,0,0,0,0,0h0c-0.4,0.4-0.7,0.8-1,1.3c0,0,0,0.1,0,0.1C-1.9,7.5-2,7.7-2.1,7.9c0,0.2-0.1,0.4-0.1,0.7l0,0
											c0,0.1,0,0.1,0,0.2v46.5c0,1.1,0.5,2.2,1.3,3l0,0c0,0,0.1,0.1,0.1,0.1c0,0,0,0,0,0h0C0,59,0.9,59.3,1.8,59.3h79.1
											c0.3,0,0.5,0,0.8-0.1c0.2,0,0.3-0.1,0.5-0.1c0.1,0,0.1,0,0.2-0.1c0.2-0.1,0.4-0.2,0.6-0.3c0,0,0,0,0,0
											c1.2-0.7,1.9-2,1.9-3.4L84.9,8.6L84.9,8.6z"/>
									</g>
								</g>
							</g>
						</g>
					</g>
				</g>
			</g>
		</g>
		<g id="Group_428" transform="translate(269.171 852.708)">
			<g id="Group_427" transform="translate(0 0)">
				<g id="Group_426">
					<g id="Group_425">
						<g id="Group_424">
							<g id="Group_423">
								<g id="Group_422">
									<rect id="Rectangle_8" x="-2.2" y="-15.8" class="st1" width="87.1" height="11.3"/>
								</g>
							</g>
						</g>
					</g>
				</g>
			</g>
		</g>
		<g id="Group_435" transform="translate(269.173 798.539)">
			<g id="Group_434" transform="translate(0 0)">
				<g id="Group_433">
					<g id="Group_432">
						<g id="Group_431">
							<g id="Group_430">
								<g id="Group_429">
									<path id="Path_2955" class="st2" d="M83.9,26.9L76.3,4.8H1.8c-1,0-1.9,0.4-2.6,1l0,0c0,0,0,0,0,0c0,0,0,0,0,0h0
										c-0.4,0.4-0.7,0.8-1,1.3c0,0,0,0.1,0,0.1C-1.9,7.5-2,7.7-2.1,7.9c0,0.2-0.1,0.4-0.1,0.7c0,0.1,0,0.1,0,0.2v46.5
										c0,1.1,0.5,2.2,1.3,3l0,0c0,0,0.1,0.1,0.1,0.1c0,0,0,0,0,0h0C0,59,0.9,59.3,1.8,59.3h12.7L79,37.1c0.5-0.2,1-0.4,1.4-0.6
										c0.3-0.2,0.5-0.3,0.8-0.5l0.3-0.2c0,0,0.4-0.3,0.5-0.4l0.1-0.1l0.7-0.8C84.3,32.3,84.8,29.4,83.9,26.9z"/>
								</g>
							</g>
						</g>
					</g>
				</g>
			</g>
		</g>
		<g id="Group_443" transform="translate(244.268 761.06)">
			<g id="Group_442" transform="translate(0 0)">
				<g id="Group_441">
					<g id="Group_440">
						<g id="Group_439">
							<g id="Group_438">
								<g id="Group_437">
									<g id="Group_436">
										<path id="Path_2956" class="st3" d="M89.8,21.5c-0.4-1-1.2-1.8-2.1-2.2c-0.9-0.4-1.9-0.4-2.9-0.1h0L10,45h0
											c-0.9,0.3-1.7,1-2.2,1.8l0,0c0,0,0,0,0,0c0,0,0,0,0,0h0c-0.3,0.5-0.4,1-0.5,1.6c0,0,0,0.1,0,0.1c0,0.2,0,0.5,0,0.7
											c0,0.2,0.1,0.4,0.1,0.7l0,0c0,0.1,0,0.1,0,0.2l15.2,44c0.4,1.1,1.2,1.9,2.2,2.4l0,0c0,0,0.1,0,0.1,0c0,0,0,0,0,0l0,0
											c0.9,0.3,1.8,0.4,2.7,0.1l74.8-25.8c0.2-0.1,0.5-0.2,0.7-0.3c0.2-0.1,0.3-0.2,0.4-0.3c0.1,0,0.1-0.1,0.2-0.1
											c0.2-0.2,0.3-0.3,0.5-0.5c0,0,0,0,0,0c0.9-1.1,1.1-2.5,0.7-3.8l-15.2-44L89.8,21.5L89.8,21.5z"/>
									</g>
								</g>
							</g>
						</g>
					</g>
				</g>
			</g>
		</g>
		<g id="Group_450" transform="translate(342.11 774.839)">
			<g id="Group_449" transform="translate(0 0)">
				<g id="Group_448">
					<g id="Group_447">
						<g id="Group_446">
							<g id="Group_445">
								<g id="Group_444">
									<path id="Path_2957" class="st4" d="M-10.2,24c0.4,1-0.2,2.2-1.2,2.6l-12.7,4.4c-1,0.4-2.2-0.2-2.6-1.2l-3.1-8.9
										c-0.4-1,0.2-2.2,1.2-2.6l12.7-4.4c1-0.4,2.2,0.2,2.6,1.2L-10.2,24z"/>
								</g>
							</g>
						</g>
					</g>
				</g>
			</g>
		</g>
		<g id="Group_457" transform="translate(288.735 799.796)">
			<g id="Group_456" transform="translate(0 0)">
				<g id="Group_455">
					<g id="Group_454">
						<g id="Group_453">
							<g id="Group_452">
								<g id="Group_451">
									<path id="Path_2958" class="st5" d="M7.7,10.3C9.3,15,6.9,20,2.2,21.6c-4.7,1.6-9.7-0.9-11.3-5.5c0,0,0,0,0,0
										c-1.6-4.7,0.9-9.7,5.5-11.3c0,0,0,0,0,0l0,0C1.1,3.2,6.1,5.7,7.7,10.3z"/>
								</g>
							</g>
						</g>
					</g>
				</g>
			</g>
		</g>
		<g id="Group_482" transform="translate(274.683 824.758)">
			<g id="Group_463" transform="translate(0 31.241)">
				<g id="Group_462">
					<g id="Group_461">
						<g id="Group_460">
							<g id="Group_459">
								<g id="Group_458">
									<path id="Path_2959" class="st6" d="M10.2-11.2L-2.3-6.9l-2-5.8L8.2-17L10.2-11.2z"/>
								</g>
							</g>
						</g>
					</g>
				</g>
			</g>
			<g id="Group_469" transform="translate(30.162 20.825)">
				<g id="Group_468" transform="translate(0 0)">
					<g id="Group_467" transform="translate(0 0)">
						<g id="Group_466" transform="translate(0)">
							<g id="Group_465" transform="translate(0)">
								<g id="Group_464">
									
										<rect id="Rectangle_9" x="-15.1" y="-11.1" transform="matrix(0.9453 -0.3261 0.3261 0.9453 2.151 -3.2014)" class="st6" width="13.2" height="6.1"/>
								</g>
							</g>
						</g>
					</g>
				</g>
			</g>
			<g id="Group_475" transform="translate(60.317 10.409)">
				<g id="Group_474">
					<g id="Group_473">
						<g id="Group_472">
							<g id="Group_471">
								<g id="Group_470">
									<path id="Path_2960" class="st6" d="M-12.7-3.3L-25.2,1l-2-5.8l12.5-4.3L-12.7-3.3z"/>
								</g>
							</g>
						</g>
					</g>
				</g>
			</g>
			<g id="Group_481" transform="translate(90.473 0)">
				<g id="Group_480" transform="translate(0 0)">
					<g id="Group_479" transform="translate(0)">
						<g id="Group_478" transform="translate(0)">
							<g id="Group_477">
								<g id="Group_476">
									
										<rect id="Rectangle_10" x="-38" y="-3.2" transform="matrix(0.9452 -0.3265 0.3265 0.9452 -1.6813 -10.2456)" class="st6" width="13.2" height="6.1"/>
								</g>
							</g>
						</g>
					</g>
				</g>
			</g>
		</g>
	</g>
</g>
<g>
	<path class="st4" d="M62.4,0.6C27.9,0.6,0,28.6,0,63c0,34.4,27.9,62.4,62.4,62.4c34.4,0,62.4-27.9,62.4-62.4
		C124.7,28.6,96.8,0.6,62.4,0.6z M62.4,116.8C32.6,116.8,8.5,92.7,8.5,63c0-13.3,4.8-25.4,12.8-34.8L97.2,104
		C87.8,112,75.7,116.8,62.4,116.8z M103.4,97.8L27.6,22c9.4-8,21.5-12.8,34.8-12.8c29.7,0,53.8,24.1,53.8,53.8
		C116.2,76.3,111.4,88.4,103.4,97.8z"/>
</g>
</svg>
