<svg viewBox="102.84999999999997 14.024999999999977 135.57500000000002 359.975" xmlns="http://www.w3.org/2000/svg" overflow="visible" xmlns:xlink="http://www.w3.org/1999/xlink" width="135.57500000000002px" height="359.975px"><g id="Master/Character/Standing" stroke="none" stroke-width="1" fill="none" fill-rule="evenodd"><g id="Bottom" transform="translate(71.000000, 158.000000) scale(1 1)"><g id="Bottom/Shorts" stroke="none" stroke-width="1" fill="none" fill-rule="evenodd"><g id="Group-53" transform="translate(46.000000, 0.000000)"><path d="M70.4871,60.5465 C70.4871,60.5465 69.0721,70.2605 66.4451,81.4685 C63.8181,92.6775 62.4591,102.4385 60.7231,111.8965 C59.1391,120.5305 57.3901,119.2515 56.3681,127.0985 C55.3471,134.9435 52.8021,157.6005 52.5951,163.6055 C52.3891,169.6095 51.8201,173.1925 52.5951,175.8055 C53.2941,178.1595 58.3841,181.5235 58.3841,181.5235 C58.3841,181.5235 52.7721,185.9905 46.7181,186.5755 C36.2201,187.5905 36.1251,180.8765 36.1251,180.8765 C36.1251,180.8765 37.5931,175.2235 37.1801,171.1245 C36.7681,167.0255 35.7881,157.3525 33.5791,145.4745 C31.5291,134.4425 35.3621,123.4465 36.7021,118.5855 C38.0431,113.7245 38.6171,108.4675 38.9841,106.1285 C39.2111,104.6865 37.1061,96.0295 36.4911,91.9315 C33.4671,71.7555 31.6741,55.7245 31.6741,55.7245 L70.4871,54.3815 L70.4871,60.5465 Z" id="Fill-1" fill="#ffcba7"/><path d="M32.9807,196.7867 C32.9807,196.7867 31.6037,197.3467 31.6777,197.6417 C31.7517,197.9367 31.6747,204.8157 31.6747,204.8157 C31.6747,204.8157 41.2177,207.5517 45.4337,206.6637 L49.3537,204.7417 C49.3537,204.7417 52.3857,205.3907 54.8267,206.8417 C57.2667,208.2917 59.7307,209.6227 61.9377,209.9927 C64.1457,210.3627 73.7597,211.6197 79.6027,210.6587 C85.4447,209.6967 91.5417,207.3187 91.7047,206.9227 C91.8677,206.5257 91.7277,203.3777 91.4017,203.3077 C91.0747,203.2377 32.9807,196.7867 32.9807,196.7867" id="Fill-3" fill="#474747"/><path d="M53.3054,177.0972 C50.2344,179.0882 45.3974,184.6802 41.8244,184.8722 C37.7884,185.0902 37.7044,181.2592 36.5874,180.9002 C36.4204,181.3482 36.3084,181.6192 36.3084,181.6192 C36.3084,181.6192 36.7084,187.5902 46.4124,186.5762 C52.0094,185.9912 57.8314,181.0992 57.8314,181.0992 C57.8314,181.0992 54.8644,179.1282 53.3054,177.0972" id="Fill-5" fill="#000"/><path d="M36.1248,180.8765 C36.1248,180.8765 33.7978,183.7695 33.3578,187.7305 C32.9178,191.6925 32.9808,196.7865 32.9808,196.7865 C32.9808,196.7865 34.1758,197.7925 40.1498,198.8615 C46.1238,199.9315 49.2678,199.9315 53.2298,201.4395 C57.1908,202.9495 58.6828,204.7465 62.9578,205.8785 C67.2348,207.0105 80.3778,206.9475 85.3458,205.5015 C90.3128,204.0555 90.8978,203.5785 90.8978,203.5785 C90.8978,203.5785 90.2058,200.3955 86.7478,198.4215 C83.2888,196.4485 78.0058,196.4395 73.9188,194.0345 C69.8318,191.6305 64.4168,186.0535 63.1028,184.7755 C61.9378,183.6445 56.9398,179.2415 54.9278,178.9905 C51.9838,178.6225 45.5578,185.8445 41.1558,185.5295 C36.7538,185.2165 37.6338,180.6885 36.1248,180.8765" id="Fill-7" fill="#474747"/><path d="M72.783,207.1519 C68.668,207.1519 64.786,206.8799 62.83,206.3619 C60.327,205.6989 58.776,204.8269 57.134,203.9019 C55.946,203.2329 54.717,202.5419 53.052,201.9069 C50.422,200.9059 48.193,200.5869 45.107,200.1449 C43.651,199.9369 42.001,199.7009 40.062,199.3539 C34.127,198.2919 32.791,197.2809 32.659,197.1699 L33.303,196.4039 L32.981,196.7869 L33.294,196.3969 C33.306,196.4069 34.596,197.3599 40.238,198.3699 C42.16,198.7139 43.801,198.9489 45.249,199.1559 C48.28,199.5899 50.674,199.9309 53.408,200.9729 C55.142,201.6329 56.404,202.3439 57.625,203.0309 C59.21,203.9229 60.706,204.7649 63.086,205.3949 C67.233,206.4929 80.26,206.4629 85.206,205.0209 C89.812,203.6799 90.575,203.1929 90.605,203.1729 L91.214,203.9659 C90.893,204.2269 89.22,204.8939 85.485,205.9819 C82.753,206.7769 77.608,207.1519 72.783,207.1519" id="Fill-9" fill="#000"/><path d="M47.867,184.4761 C50.077,185.4101 52.246,186.4421 54.319,187.6821 C54.834,187.9991 55.349,188.3171 55.844,188.6901 C56.096,188.8671 56.336,189.0761 56.575,189.2981 C56.817,189.5441 57.034,189.8421 57.145,190.1791 C57.604,191.5381 57.146,192.8051 56.94,193.9301 C56.877,194.1871 56.856,194.5441 56.881,194.5651 C56.831,194.4991 56.86,194.5391 56.989,194.5791 C57.085,194.6211 57.241,194.6451 57.365,194.6801 C57.916,194.7911 58.505,194.8571 59.09,194.9081 C60.257,195.0251 61.456,195.1021 62.606,195.0511 C62.878,195.0321 63.196,195.0061 63.284,194.9251 C63.46,194.8041 63.65,194.5971 63.815,194.3761 C64.153,193.9301 64.441,193.4171 64.7,192.8971 C64.955,192.3721 65.204,191.8411 65.431,191.3011 C65.65,190.7561 65.909,190.2291 65.984,189.6271 C66.176,190.2241 66.069,190.8761 65.939,191.4661 C65.792,192.0631 65.586,192.6411 65.325,193.1971 C65.066,193.7521 64.782,194.2981 64.412,194.8181 C64.223,195.0771 64.023,195.3331 63.711,195.5641 C63.293,195.8281 62.977,195.7911 62.663,195.8411 C61.423,195.9291 60.224,195.8811 59.008,195.7951 C58.402,195.7381 57.799,195.6621 57.179,195.5291 C57.015,195.4811 56.872,195.4611 56.692,195.3881 C56.555,195.3231 56.251,195.2631 56.093,194.9001 C55.993,194.6191 56.019,194.4241 56.032,194.2481 C56.052,194.0771 56.079,193.9151 56.113,193.7641 C56.371,192.5861 56.734,191.4191 56.401,190.4531 C56.262,189.9921 55.851,189.6411 55.396,189.2641 C54.951,188.8961 54.46,188.5611 53.971,188.2281 C51.992,186.9191 49.926,185.7051 47.867,184.4761" id="Fill-11" fill="#000"/><path d="M34.9407,186.692 C35.8717,187.662 36.9447,188.436 38.0857,188.973 C39.2327,189.507 40.4687,189.722 41.7097,189.594 C42.9557,189.488 44.1797,189.059 45.3617,188.531 C46.5387,187.98 47.6877,187.322 48.7917,186.556 C47.9327,187.593 46.8867,188.486 45.7137,189.193 C44.5437,189.896 43.2227,190.433 41.8087,190.578 C41.1067,190.683 40.3767,190.601 39.6757,190.48 C38.9767,190.32 38.3107,190.046 37.7047,189.691 C36.4927,188.971 35.5377,187.902 34.9407,186.692" id="Fill-13" fill="#000"/><path d="M56.2454,184.7457 C56.1574,184.7457 56.0674,184.7227 55.9874,184.6737 C55.7514,184.5307 55.6754,184.2247 55.8174,183.9887 C55.8774,183.8897 57.2484,181.9427 59.4424,181.5537 C59.7094,181.5067 60.1444,181.5437 60.2814,181.7837 C60.4454,182.0717 60.7154,182.3987 60.4414,182.4367 C57.8744,182.7977 56.7234,184.4247 56.6734,184.5057 C56.5784,184.6597 56.4134,184.7457 56.2454,184.7457" id="Fill-15" fill="#000"/><path d="M58.7498,187.5074 C58.6848,187.5074 58.6178,187.4944 58.5538,187.4674 C58.2998,187.3594 58.1818,187.0664 58.2898,186.8124 C58.3378,186.6974 59.1968,184.1474 61.7558,183.2054 C62.0158,183.1134 62.2758,183.2924 62.3708,183.5514 C62.4658,183.8114 62.6638,183.9274 62.4038,184.0234 C60.2468,184.8164 59.2198,187.1794 59.2098,187.2024 C59.1288,187.3934 58.9438,187.5074 58.7498,187.5074" id="Fill-17" fill="#000"/><path d="M60.888,189.1793 C60.791,189.1793 60.693,189.1513 60.606,189.0923 C60.378,188.9363 60.32,188.6253 60.475,188.3973 C60.542,188.2993 61.729,186.1413 64.008,185.4413 C64.271,185.3533 64.399,185.5523 64.574,185.7683 C64.776,186.0163 64.973,186.1703 64.709,186.2513 C62.76,186.8513 61.316,188.9403 61.301,188.9613 C61.204,189.1033 61.048,189.1793 60.888,189.1793" id="Fill-19" fill="#000"/><path d="M2.6067,182.6549 C3.4477,180.9909 4.8127,179.9969 4.8127,179.9969 C4.8127,179.9969 6.3847,181.9469 6.2617,183.9029 C6.1397,185.8589 3.4077,190.3569 2.5667,189.5239 C1.7257,188.6909 2.0087,183.8379 2.6067,182.6549" id="Fill-21" fill="#000"/><g id="Group-25" transform="translate(0.000000, 195.371000)" fill="#474747"><path d="M0.2879,0.6393 C0.2879,0.6393 -0.3591,3.9943 0.2879,5.4053 C0.9349,6.8143 1.7409,6.9483 2.0759,7.8213 C2.4119,8.6933 1.6009,13.5973 3.3489,15.6423 C5.0969,17.6873 7.3109,18.8953 11.6069,19.3653 C15.9019,19.8343 22.4799,20.2383 26.1709,19.8343 C29.8629,19.4323 32.3459,17.8213 32.3459,17.8213 C32.3459,17.8213 32.5469,14.5023 32.4709,13.8183 C32.3949,13.1343 31.7619,13.1343 31.7619,13.1343 L0.2879,0.6393 Z" id="Fill-23"/></g><path d="M10.0706,61.2496 C10.5626,65.7656 11.2906,83.9856 11.2906,90.2636 C11.2906,96.5416 9.8636,101.8206 8.1526,109.6676 C6.4396,117.5156 6.0116,127.9316 6.4396,140.4856 C6.6226,145.8536 6.5286,153.9836 6.3416,161.7356 C6.3356,161.8126 5.6896,170.4436 4.8776,173.9616 C4.0616,177.4956 3.9256,178.3116 4.1296,179.8746 C4.3336,181.4376 4.5376,181.8006 4.5376,183.1816 C4.5376,184.5626 2.5666,189.5236 2.5666,189.5236 C2.5666,189.5236 7.6816,195.4156 10.5676,195.359997 C15.2596,195.2696 18.8696,190.2166 18.7606,188.7726 C18.6976,187.9406 18.3906,187.0156 18.3226,184.8326 C18.6696,183.9716 19.1036,182.8586 19.3716,182.0556 C19.8706,180.5526 20.2876,178.2246 19.9066,176.0586 C19.5446,174.0006 19.8696,171.0226 19.9036,170.7286 C21.5736,162.4616 24.4326,151.7626 26.3156,144.3776 C28.7746,134.7286 30.9766,117.7116 31.0566,114.6836 C31.1356,111.6536 32.6506,108.7846 33.4306,107.5096 C34.2116,106.2336 36.5286,100.9806 38.0626,91.9316 C39.5966,82.8806 44.5056,61.2496 44.5056,61.2496 L10.0706,61.2496 Z" id="Fill-26" fill="#ffcba7"/><path d="M18.5149,182.9654 C18.8709,181.9864 19.1809,181.0384 19.3329,180.0344 C19.4969,179.0384 19.5559,178.0254 19.4719,177.0354 C19.4379,176.5454 19.3279,176.0694 19.2609,175.4954 C19.1979,174.9494 19.1709,174.4084 19.1609,173.8704 C19.1469,172.7924 19.1999,171.7344 19.3049,170.6594 L19.3069,170.6404 L19.3129,170.6094 C21.1069,161.3724 23.6069,152.3074 25.8489,143.2274 C26.9199,138.6994 27.7099,134.0834 28.4349,129.4664 C29.1309,124.8504 29.7969,120.1924 30.1979,115.5774 C30.2259,115.2854 30.2299,115.0174 30.2469,114.7364 C30.2669,114.4414 30.2689,114.1074 30.3099,113.8004 C30.3709,113.1724 30.4879,112.5564 30.6419,111.9554 C30.9459,110.7504 31.3979,109.6034 31.9409,108.5084 C32.2019,107.9724 32.5319,107.4004 32.8099,106.9294 C33.0649,106.4724 33.3019,105.9444 33.5259,105.4274 C33.9669,104.3774 34.3649,103.2954 34.7319,102.2024 C35.4589,100.0124 36.0499,97.7674 36.5469,95.5014 C37.0529,93.2454 37.4029,90.9334 37.8619,88.6144 C39.6879,79.3924 41.8139,70.2614 44.0179,61.1394 L44.9939,61.3614 C43.0959,70.5384 41.1539,79.7184 39.4169,88.9084 C38.9779,91.1924 38.6389,93.5214 38.1329,95.8444 C37.6379,98.1594 37.0469,100.4584 36.3089,102.7224 C35.9379,103.8554 35.5329,104.9774 35.0549,106.0834 C34.8089,106.6404 34.5659,107.1834 34.2459,107.7494 C33.9259,108.2864 33.6679,108.7284 33.4109,109.2434 C32.9069,110.2454 32.4909,111.2904 32.2159,112.3584 C32.0759,112.8914 31.9709,113.4304 31.9159,113.9694 C31.8779,114.2434 31.8779,114.4964 31.8569,114.7864 C31.8369,115.0904 31.8279,115.4074 31.7979,115.6994 C31.3609,120.4254 30.6699,125.0534 29.9429,129.7034 C29.1869,134.3434 28.3689,138.9744 27.2559,143.5684 C24.9299,152.6734 22.4709,161.7074 20.4939,170.8474 L20.5009,170.7964 C20.3849,171.8064 20.3169,172.8444 20.3149,173.8614 C20.3149,174.3704 20.3319,174.8784 20.3819,175.3744 C20.4259,175.8424 20.5389,176.3954 20.5709,176.9514 C20.6459,178.0524 20.5619,179.1464 20.3689,180.2144 C20.1889,181.2854 19.8289,182.3324 19.4519,183.3164 L18.5149,182.9654 Z" id="Fill-28" fill="#000"/><path d="M2.6067,182.6549 C2.6067,182.6549 1.0737,187.6489 3.6937,187.6489 C6.3147,187.6489 9.1237,179.2309 14.3587,179.2989 C19.5937,179.3659 22.3457,183.9289 22.3457,183.9289 C22.3457,183.9289 21.9427,188.3589 23.2847,190.7089 C24.6277,193.0569 28.5577,198.6349 30.6677,201.7249 C32.7777,204.8159 31.6747,208.8969 31.6747,208.8969 C31.6747,208.8969 26.5737,211.6529 18.3187,211.0129 C10.0627,210.3739 4.0847,210.2389 3.3487,207.0849 C2.6127,203.9299 2.9177,202.8559 2.1607,201.3129 C1.4047,199.7689 1.2037,198.8959 0.5327,197.1509 C-0.1393,195.4069 0.7337,189.2729 1.2037,187.5079 C1.6737,185.7419 2.6067,182.6549 2.6067,182.6549" id="Fill-30" fill="#474747"/><path d="M20.8152,211.6109 C20.0072,211.6109 19.1622,211.5799 18.2802,211.5109 L16.1102,211.3489 C8.5862,210.7939 3.6142,210.4259 2.8612,207.1979 C2.5342,205.7929 2.4082,204.7919 2.3082,203.9869 C2.1832,202.9869 2.1002,202.3259 1.7122,201.5329 C1.1982,200.4829 0.9292,199.7229 0.6182,198.8429 C0.4612,198.3979 0.2902,197.9139 0.0652,197.3309 L0.9992,196.9709 C1.2272,197.5639 1.4012,198.0569 1.5612,198.5099 C1.8742,199.3959 2.1212,200.0949 2.6102,201.0929 C3.0722,202.0359 3.1682,202.8019 3.3002,203.8629 C3.3982,204.6439 3.5192,205.6159 3.8352,206.9709 C4.4212,209.4829 9.3562,209.8469 16.1842,210.3519 L18.3572,210.5149 C26.3572,211.1379 31.3882,208.4839 31.4372,208.4569 L31.9122,209.3369 C31.7212,209.4399 27.6162,211.6109 20.8152,211.6109" id="Fill-32" fill="#000"/><path d="M12.9719,184.3072 C13.5639,185.7652 14.1389,187.2262 14.6759,188.7022 L15.0839,189.8062 L15.2879,190.3592 L15.3899,190.6352 C15.4279,190.7452 15.4979,190.9522 15.5039,191.0482 C15.6339,191.9732 15.5509,192.7392 15.4949,193.5582 C15.4229,194.3632 15.3229,195.1612 15.1599,195.9642 C15.0759,196.3682 14.9849,196.7652 14.8149,197.1992 C14.6159,197.6892 14.2229,198.0162 13.9119,198.2732 C12.5719,199.2702 11.1149,199.9072 9.5909,200.4072 C10.8599,199.4492 12.1999,198.5682 13.3139,197.5722 C13.5869,197.3092 13.7979,197.0812 13.8819,196.8252 C13.9899,196.5192 14.0719,196.1422 14.1329,195.7712 C14.2589,195.0222 14.3299,194.2472 14.3739,193.4792 C14.4139,192.7252 14.4239,191.9022 14.3349,191.2612 C14.3219,191.1602 14.3139,191.1812 14.2989,191.1032 L14.1969,190.8232 L13.9929,190.2632 L13.5859,189.1452 C13.0359,187.6562 12.5259,186.1522 12.0309,184.6442 L12.9719,184.3072 Z" id="Fill-34" fill="#000"/><path d="M18.1839,182.2056 C17.9799,182.9806 17.7629,183.7626 17.5789,184.5406 C17.4089,185.3056 17.1929,186.1346 17.1589,186.7986 C17.1319,186.9606 17.3219,187.3286 17.4809,187.6836 C17.6549,188.0356 17.8369,188.3886 18.0289,188.7396 C18.3989,189.4496 18.7899,190.1526 19.1989,190.8436 C19.6079,191.5266 20.0369,192.2206 20.4999,192.8136 C20.6049,192.9516 20.7589,193.1016 20.7809,193.1236 C20.9139,193.2036 21.1129,193.2956 21.2889,193.3816 L22.3879,193.9096 C23.1209,194.2686 23.8439,194.6596 24.5509,195.0806 C24.9049,195.2906 25.2569,195.5046 25.5879,195.7556 C25.9159,196.0016 26.2639,196.2546 26.4959,196.6016 C25.1309,195.7286 23.5389,195.3136 22.0429,194.7016 L20.9049,194.2596 C20.7099,194.1806 20.5309,194.1166 20.3079,194.0056 C19.9879,193.8036 19.8749,193.6396 19.7179,193.4686 C19.1589,192.7976 18.7119,192.1156 18.2629,191.4206 C17.8189,190.7256 17.3959,190.0206 16.9909,189.3006 C16.7939,188.9376 16.6059,188.5676 16.4219,188.1906 C16.3339,187.9936 16.2429,187.8106 16.1599,187.5936 C16.0759,187.4166 15.9759,187.0626 15.9909,186.7806 C16.0529,185.8186 16.2689,185.0676 16.4899,184.2576 C16.7149,183.4626 16.9529,182.6826 17.2299,181.9046 L18.1839,182.2056 Z" id="Fill-36" fill="#000"/><path d="M26.8489,108.3365 C26.9739,109.0855 26.9709,109.8165 26.9269,110.5445 C26.8759,111.2735 26.7759,111.9915 26.5719,112.7195 C26.4869,113.0695 26.3289,113.5045 26.1109,113.8435 C25.9049,114.1885 25.6439,114.4725 25.3939,114.7525 C24.8559,115.2825 24.2669,115.7435 23.5359,116.0325 C23.8049,115.2995 24.1609,114.6835 24.4839,114.0695 C24.6609,113.7775 24.8109,113.4735 24.9559,113.1945 C25.0969,112.9135 25.1919,112.6735 25.3049,112.3375 C25.5059,111.6925 25.7179,111.0135 25.9629,110.3425 C26.2109,109.6705 26.4769,108.9965 26.8489,108.3365" id="Fill-38" fill="#000"/><g id="Group-42" transform="translate(32.000000, 0.371000)" fill="#474747"><path d="M39.546081,14.6265883 C39.546081,14.6265883 40.6108,23.6274 40.6108,33.3874 C40.6108,43.1474 41.6428,46.0034 41.5628,53.1454 C41.4838,60.2864 40.6108,64.0954 40.6108,64.0954 C40.6108,64.0954 32.9748,65.4444 25.1678,65.6034 C17.3608,65.7624 0.7968,65.6034 0.7968,65.6034 L0.7968,0.6284 L38.4871,0.695 L39.546081,14.6265883 Z" id="Fill-40"/></g><path d="M72.6106,64.4664 C69.4086,65.4954 66.1086,66.1184 62.7836,66.5554 C61.1196,66.7774 59.4436,66.9044 57.7616,66.9864 C56.0856,67.0484 54.4296,67.0214 52.7626,67.0424 C46.1046,67.0564 39.4416,66.9324 32.7916,66.4744 L32.8006,65.4744 C39.4516,65.0164 46.0896,64.8924 52.7306,64.9054 L57.7056,64.9294 C59.3466,64.9194 60.9926,64.8624 62.6426,64.8124 C65.9456,64.7044 69.2536,64.5314 72.6106,64.4664" id="Fill-43" fill="#000"/><path d="M60.4177,40.481 C60.4177,40.481 52.0687,41.085 50.1327,44.232 L48.4387,66.044 C48.4387,66.044 42.3447,68.278 35.3277,69.488 C28.3097,70.698 23.6007,70.418 18.7607,69.813 C13.9207,69.208 5.4857,67.705 5.4857,67.705 C5.4857,67.705 2.8237,47.042 2.9447,35.775 C3.0657,24.509 5.3978,1.066 5.3978,1.066 L63.4427,1 L60.4177,40.481 Z" id="Fill-45" fill="#474747"/><path d="M61.8548,25.4752 L61.2108,40.5562 L61.1848,41.1762 L60.4748,41.2762 C58.6788,41.3862 56.8288,41.6452 55.0748,42.0892 C54.1918,42.3062 53.3368,42.6032 52.5408,42.9762 C51.7538,43.3532 50.9958,43.8332 50.5598,44.4932 L50.5588,44.4942 L50.6318,44.2712 L48.9378,66.0822 L48.9378,66.0832 L48.9148,66.3882 L48.6108,66.5142 C45.2098,67.9292 41.7088,69.0202 38.1258,69.8732 C34.5468,70.7422 30.8668,71.2762 27.1448,71.3752 C23.4238,71.4642 19.6988,71.0822 16.1348,70.3722 L10.7518,69.3452 C8.9638,68.9722 7.1738,68.6162 5.3978,68.1972 L5.5738,67.2122 C7.3898,67.3652 9.1928,67.5782 10.9978,67.7752 L16.3928,68.4592 C19.9898,69.0172 23.5458,69.3072 27.0998,69.2632 C30.6548,69.1992 34.2118,68.7292 37.7498,68.0972 C41.2778,67.4242 44.8028,66.5672 48.2668,65.5762 L47.9408,66.0052 L49.6348,44.1932 L49.6458,44.0552 L49.7078,43.9692 L49.7088,43.9682 C50.2778,43.0182 51.1558,42.4322 52.0138,41.9552 C52.8868,41.4882 53.7948,41.1222 54.7168,40.8432 C56.5678,40.2712 58.4268,39.9082 60.3598,39.6862 L60.3598,39.6852 L59.6248,40.4052 L61.8548,25.4752 Z" id="Fill-47" fill="#000"/><path d="M4.67205033,0.0221726939 C4.55805033,0.223582162 4.21299916,8.97418026 4.11199916,9.21524548 C4.11999916,10.3527394 3.87245121,13.2027749 3.88402851,16.4660257 C4.73245121,17.6076939 5.5252,17.3006005 9.8772,18.5685409 C15.6262,20.2455617 53.1662,19.9804943 57.7622,20.6369014 C62.2472,21.2766112 69.0179108,24.6652709 72.3179108,25.0221727 C72.1320622,18.9766296 71.4962667,13.8725143 71.4962667,13.8725143 L70.4871,0.0221726939 L4.67205033,0.0221726939 Z" id="Fill-49" fill="#000"/><path d="M54.137,111.3238 C54.32,111.9118 54.417,112.4698 54.503,113.0238 C54.584,113.5768 54.652,114.1168 54.698,114.6498 C54.77,115.1818 54.792,115.7058 54.839,116.2218 C54.869,116.7528 54.884,117.2518 54.997,117.8818 C54.37,117.6498 53.991,117.0578 53.738,116.5068 C53.505,115.9318 53.375,115.3338 53.377,114.7418 C53.348,114.1518 53.396,113.5638 53.519,112.9918 C53.644,112.4198 53.819,111.8538 54.137,111.3238" id="Fill-51" fill="#000"/></g></g></g><g id="Body" transform="translate(74.000000, 0.000000) scale(1 1)"><defs><polygon id="bodywaving-path-1" points="0.0134 0.566 22.0254 0.566 22.0254 32.627497 0.0134 32.627497"/><polygon id="bodywaving-path-3" points="0 171.434 132.722 171.434 132.722 1 0 1"/></defs><g id="Body/Waving" stroke="none" stroke-width="1" fill="none" fill-rule="evenodd"><g id="Group-33" transform="translate(29.000000, 52.000000)"><path d="M55.6567,155.7778 C74.8247209,155.7778 84.3406,155.7778 91.0524204,152.349522 C92.4759004,151.622434 92.5216,144.8617 92.2986,138.8997 C91.8806,127.7327 89.2456,114.9017 87.5616,103.6927 C84.9776,86.4987 83.2966,74.6267 84.0396,62.2357 C84.3316,57.3637 84.7386,51.7747 84.3076,46.7967 L84.3406,36.2537 C83.3646,35.1327 79.2076,31.4557 78.0766,30.7927 C73.5486,28.1437 69.0266,23.3637 69.0266,23.3637 C69.0266,23.3637 68.2546,24.6267 63.5886,24.8827 C58.9226,25.1387 46.9796,19.6857 46.9796,19.6857 C43.0986,23.7817 21.6166,28.5557 17.1996,32.8627 C17.1996,32.8627 19.0806,73.3377 19.6996,79.8737 C20.3166,86.4097 18.6696,111.8537 17.8456,120.7097 C17.0216,129.5667 18.3506,154.2627 18.3506,154.2627 C24.7496,156.2027 40.3198973,155.7778 55.6567,155.7778 Z" id="Fill-1" fill="#0a597f"/><path d="M89.336,49.8614 C89.367,47.5734 89.031,43.6634 86.873,39.7444 C85.51,37.2674 83.395,35.0024 80.584,32.8644 L73.678,33.0614 L73.678,80.8404 L81.983,80.8404 L88.266,75.6854 C88.266,75.6854 87.327,70.8744 87.529,65.7474 C87.676,62.0024 89.318,51.1204 89.336,49.8674 C89.336,49.8664 89.337,49.8614 89.337,49.8614 L89.336,49.8614 Z" id="Fill-3" fill="#0a597f"/><g id="Group-7" transform="translate(48.000000, 0.434000)"><mask id="bodywaving-mask-2" fill="#fff"><use xlink:href="#bodywaving-path-1"/></mask><g id="Clip-6"/><path d="M20.7134,22.902 C21.4054,16.787 22.0254,1.139 22.0254,1.139 L2.1384,0.566 C2.1384,0.566 4.2634,13.332 0.0134,21.914 C0.0134,21.914 4.2024,27.443 9.2954,30.219 C13.9694,32.767 17.8914,33.527 19.2904,31.356 C19.2904,31.356 20.1224,28.126 20.7134,22.902" id="Fill-5" fill="#ffcba7" mask="url(#bodywaving-mask-2)"/></g><mask id="bodywaving-mask-4" fill="#fff"><use xlink:href="#bodywaving-path-3"/></mask><g id="Clip-9"/><polygon id="Fill-8" fill="#0a597f" mask="url(#bodywaving-mask-4)" points="62.05 34.289 67.486 34.289 67.486 25.145 62.05 25.145"/><path d="M33.2125,54.3496 C33.2125,54.3496 28.4825,57.9486 28.5855,62.3696 C28.6885,66.7906 27.3515,76.0446 27.5575,81.5976 C27.7625,87.1506 28.2765,93.0116 28.2765,93.0116 C28.2765,93.0116 17.9945,97.0216 9.8715,97.0216 C1.7485,97.0216 0.0005,93.8336 0.0005,93.8336 C0.0005,93.8336 0.3085,87.6636 2.0565,79.1296 C3.8045,70.5956 5.8605,67.3046 6.8895,60.1076 C7.9175,52.9096 9.1515,41.3936 11.4135,37.7936 C13.6755,34.1956 19.5025,31.2456 20.2885,30.8646 C21.0745,30.4836 29.5105,36.1496 31.2585,40.3656 C33.0065,44.5806 33.2125,54.3496 33.2125,54.3496" id="Fill-10" fill="#0a597f" mask="url(#bodywaving-mask-4)"/><path d="M11.4952,70.46 C11.3912,70.71 11.2822,70.95 11.1842,71.21 C10.8252,72.187 10.5132,73.244 10.3752,74.464 C10.2392,75.663 10.2872,77.116 10.8992,78.574 C11.5032,80.041 12.6672,81.249 13.8672,81.942 C15.0992,82.702 16.5902,83.062 17.8952,83.0690035 C20.5422,83.071 22.5272,82.208 24.3002,81.355 C30.1242,76.427 36.1322,71.462 42.5572,67.126 C46.0382,63.966 49.4712,60.798 52.9222,57.667 C58.0682,53.074 63.2502,48.552 68.7452,44.439 C73.3182,40.975 78.1042,37.795 83.1842,35.079 C82.7832,34.694 82.3592,34.314 81.9142,33.939 C76.6272,35.925 71.5852,38.59 66.7672,41.539 C60.7862,45.263 55.1102,49.439 49.6682,53.837 C44.1832,58.183 38.9572,62.806 33.6532,67.173 C30.9902,69.331 28.3482,71.497 25.6422,73.364 C24.2922,74.291 22.9202,75.149 21.5772,75.798 C20.2512,76.455 18.8872,76.868 18.0382,76.823 C17.6092,76.808 17.3572,76.726 17.1102,76.566 C16.8172,76.378 16.7242,76.267 16.6572,76.124 C16.4632,75.872 16.5032,74.628 17.0032,73.329 C17.9772,70.667 19.8652,67.846 21.8452,65.206 C25.8192,59.827 30.5482,54.812 35.2842,49.837 C43.6182,41.257 52.3462,32.96 61.1082,24.657 C60.3632,24.519 59.5582,24.325 58.7232,24.095 C54.9492,26.806 51.2532,29.622 47.5892,32.487 C44.8672,34.67 42.1642,36.884 39.4902,39.137 C36.8322,41.409 34.2212,43.74 31.6392,46.115 C30.9122,46.778 30.2072,47.468 29.4942,48.148 C28.1342,49.648 26.7842,51.153 25.4502,52.674 C20.4892,58.392 15.6962,64.287 11.4952,70.46" id="Fill-11" fill="#FF7475" mask="url(#bodywaving-mask-4)"/><path d="M36.9815,77.8369 C38.6375,76.4459 40.3005,75.0659 42.0115,73.7599 L44.5595,71.7709 L47.1715,69.8419 C48.9025,68.5429 50.7065,67.3249 52.4755,66.0659 C54.2815,64.8519 56.0665,63.6089 57.8885,62.4099 C61.5035,59.9759 65.1925,57.6389 68.8865,55.3039 C72.5795,52.9669 76.2955,50.6569 80.0435,48.3979 L85.6835,45.0349 L88.4095,43.4209 C88.2555,42.9159 88.0745,42.4049 87.8675,41.8859 C72.9575,49.0049 58.3425,56.7369 44.4165,65.8839 C43.7915,66.2889 43.1745,66.7089 42.5575,67.1259 C40.8805,68.6479 39.1965,70.1669 37.4865,71.6789 C34.8525,74.0109 32.1355,76.2799 29.1445,78.3939 C27.6435,79.4459 26.0805,80.4659 24.3065,81.3529 C24.3045,81.3529 24.3025,81.3549 24.3005,81.3549 C23.9985,81.6099 23.6945,81.8659 23.3935,82.1209 C20.0445,84.9109 16.7555,87.7819 13.3635,90.0509 C11.6825,91.1709 9.9425,92.1259 8.3875,92.5499 C6.7925,92.9669 5.7495,92.8169 4.6425,92.1039 C4.1075,91.7529 3.4035,91.0829 3.2465,90.7879 C3.0025,90.4049 2.8305,89.9189 2.7905,89.2309 C2.7005,87.8639 3.1385,86.0049 3.8085,84.1999 C5.2065,80.5399 7.3465,76.8379 9.6415,73.2629 C10.2445,72.3209 10.8635,71.3879 11.4955,70.4599 C12.1755,68.8309 12.9905,67.3879 13.8515,66.0109 C14.8505,64.4329 15.9205,62.9549 17.0255,61.5249 C19.2595,58.6849 21.6555,56.0599 24.0965,53.5019 C25.8565,51.6649 27.6615,49.8899 29.4935,48.1479 C33.9975,43.1789 38.6315,38.3149 43.3465,33.5259 C46.9605,29.8639 50.6245,26.2469 54.3315,22.6729 C53.7575,22.4649 53.1955,22.2549 52.6515,22.0459 C48.9615,25.2549 45.3075,28.5059 41.6895,31.8039 C35.2015,37.7299 28.8325,43.7959 22.6745,50.1069 C19.5925,53.2599 16.5335,56.4469 13.5785,59.7519 C13.0405,60.3509 12.5075,60.9549 11.9745,61.5599 C9.9485,64.4809 7.9905,67.4379 6.1805,70.4109 L5.1695,69.7779 C5.1095,69.8579 5.0465,69.9339 4.9865,70.0129 C4.6855,70.4189 4.3865,70.8269 4.0895,71.2369 C3.4155,73.4499 2.7145,75.9189 2.0565,79.1299 C0.3085,87.6649 0.0005,93.8339 0.0005,93.8339 C0.0005,93.8339 1.7485,97.0219 9.8715,97.0219 C11.2905,97.0219 12.7755,96.8879 14.2595,96.6859 C15.1445,96.1749 15.9865,95.6359 16.7905,95.0849 C20.6205,92.3739 23.9055,89.4119 27.1855,86.4779 C30.4495,83.5379 33.6725,80.6259 36.9815,77.8369" id="Fill-12" fill="#FF7475" mask="url(#bodywaving-mask-4)"/><path d="M15.8306,56.1406 C19.2416,51.4836 22.8186,46.9386 26.5596,42.5286 C28.3986,40.2946 30.3506,38.1616 32.2606,35.9866 C34.2396,33.8776 36.1676,31.7136 38.2216,29.6736 C41.3836,26.3766 44.7126,23.2486 48.1026,20.1826 C47.3956,19.8756 46.9796,19.6856 46.9796,19.6856 C46.5926,20.0936 46.0246,20.5086 45.3226,20.9306 C42.4476,23.3116 39.6146,25.7466 36.8916,28.3056 C34.7136,30.2536 32.6606,32.3286 30.5516,34.3546 C28.5126,36.4446 26.4286,38.4986 24.4546,40.6566 C20.4446,44.9126 16.5886,49.3196 12.8856,53.8586 C10.7296,56.5006 8.6366,59.1706 6.5946,61.9036 C6.0766,64.7486 5.3906,67.0246 4.6406,69.4476 L5.1696,69.7786 C7.3396,66.9236 9.6326,64.2116 11.9746,61.5596 C13.2376,59.7366 14.5226,57.9246 15.8306,56.1406" id="Fill-13" fill="#FF7475" mask="url(#bodywaving-mask-4)"/><path d="M87.5289,65.7471 C87.5899,64.2051 87.9039,61.4521 88.2539,58.6611 C63.2319,79.4101 40.3079,102.4711 19.1699,126.9351 L19.7239,127.4371 C40.8159,105.3661 63.3669,84.7051 87.5159,66.2471 C87.5199,66.0811 87.5219,65.9151 87.5289,65.7471" id="Fill-14" fill="#FF7475" mask="url(#bodywaving-mask-4)"/><path d="M59.6021,121.0615 C68.3921,113.0205 77.4261,105.2345 86.6811,97.7695 C85.9501,92.7805 85.3251,88.2315 84.8511,83.9635 C73.7571,93.5775 63.0991,103.6075 52.8031,114.0045 C40.6521,126.3235 28.9951,139.1465 18.2751,152.7865 C18.3221,153.7195 18.3511,154.2625 18.3511,154.2625 C20.1021,154.7935 22.5941,155.1845 25.5971,155.4365 C36.2491,143.3605 47.7211,131.9715 59.6021,121.0615" id="Fill-15" fill="#FF7475" mask="url(#bodywaving-mask-4)"/><path d="M89.6949,125.8408 C87.6519,127.5708 85.4319,129.1648 83.1989,130.6108 C81.7469,131.5268 80.2679,132.3918 78.7529,133.1178 C77.2319,133.9138 75.7709,134.3378 74.0889,134.7108 C70.7619,135.4328 67.2659,135.7918 63.7869,136.0358 C61.9149,136.1568 59.0429,136.1668 56.7299,136.1688 C66.9109,127.1878 77.4789,118.6648 88.4549,110.7038 C88.3329,109.5968 88.2079,108.4928 88.0689,107.4048 L87.3449,106.4288 C68.1559,120.9878 50.3219,137.2488 33.7529,154.6268 L34.9269,155.7778 C35.2139,155.7778 35.5029,155.7768 35.7939,155.7748 C41.7699,149.8358 47.8939,144.0498 54.1649,138.4348 L63.8679,138.2408 C67.4119,138.2198 70.9469,138.1728 74.5769,137.8508 C76.3699,137.6998 78.3409,137.2998 80.1089,136.8408 C81.8949,136.3618 83.6459,135.8308 85.3769,135.2558 C86.9629,134.7358 90.2040999,133.6638 91.7690999,133.1178 C91.6570999,130.5558 90.9149725,127.898463 90.7609725,125.259463" id="Fill-16" fill="#FF7475" mask="url(#bodywaving-mask-4)"/><path d="M69.6744,132.1895 C71.2364,134.5575 85.4694,125.5775 89.5104,122.9585 C89.2914,119.6185 89.0284,116.2685 88.6984,112.9715 C84.7944,116.1055 68.0634,129.7475 69.6744,132.1895" id="Fill-17" fill="#FF7475" mask="url(#bodywaving-mask-4)"/><path d="M87.5982,70.1231 C82.3832,73.8491 77.5382,77.9541 72.8282,82.1651 C66.1902,88.1081 59.9812,94.4421 53.9342,100.9011 C47.8782,107.3561 42.0542,114.0031 36.3802,120.7691 C30.7062,127.5441 25.1682,134.3841 19.8112,141.4541 L23.3572,144.1591 C28.7472,137.3121 34.4022,130.5851 40.1412,123.9851 C45.8902,117.3841 51.7802,110.9081 57.8732,104.6501 C63.9572,98.3881 70.1882,92.2671 76.7592,86.6011 C79.2872,84.4211 81.8542,82.2761 84.4712,80.2211 C84.4302,79.7801 84.3852,79.3351 84.3482,78.8991 L88.2662,75.6851 C88.2662,75.6851 87.8042,73.3111 87.5982,70.1231" id="Fill-18" fill="#FF7475" mask="url(#bodywaving-mask-4)"/><path d="M68.107,38.2266 C69.132,42.1496 69.763,46.1666 70.163,50.2116 C70.573,54.2606 70.5,58.3656 70.353,62.3976 C70.104,70.4876 69.533,78.5406 69.147,86.5906 C68.964,90.6216 68.865,94.6156 69.025,98.6276 C69.169,102.6476 69.411,106.6806 69.632,110.7116 C69.849,114.7456 70.024,118.7846 70.16,122.8256 C70.277,126.8646 70.32,130.9206 70.025,134.9526 C70.083,130.9116 69.737,126.8876 69.438,122.8646 C69.136,118.8406 68.748,114.8226 68.401,110.7976 C68.066,106.7736 67.711,102.7506 67.452,98.7046 C67.145,94.6496 67.245,90.5586 67.364,86.5216 C67.615,78.4296 68.144,70.3666 68.639,62.3196 C68.88,58.2866 69.032,54.3036 68.898,50.2886 C68.791,46.2746 68.501,42.2546 68.107,38.2266" id="Fill-19" fill="#000" mask="url(#bodywaving-mask-4)"/><path d="M132.5743,30.5069 C131.5813,29.6689 128.8293,32.9549 128.1813,33.9629 C127.5333,34.9719 124.8693,38.1399 124.4373,37.7069 C124.0053,37.2759 125.0133,35.6919 125.6613,34.3959 C126.3093,33.0989 127.4053,31.3039 128.5573,29.8639 C129.7093,28.4239 130.8293,26.4649 129.5663,25.5459 C129.0693,25.1849 126.0943,29.1389 125.1893,30.3629 C124.2853,31.5869 122.2053,35.0429 121.6293,35.5339 C121.0533,36.0259 120.3333,36.3389 120.6213,35.5339 C120.9093,34.7299 122.1333,29.9309 122.6373,28.5989 C123.1413,27.2659 125.7973,21.7499 124.5013,21.5339 C123.2053,21.3189 121.7013,24.6749 120.6213,26.7629 C119.5413,28.8509 116.8773,35.2589 116.3013,34.8419 C115.7243,34.4249 116.9493,29.4269 117.3083,27.6899 C117.6693,25.9509 119.2533,20.7859 118.1733,20.858134 C117.0933,20.9299 115.1483,26.2589 114.2843,28.9949 C113.4203,31.7309 112.3233,34.8939 111.5313,37.0539 C111.2453,37.7689 110.9743,38.8899 110.7613,39.9099 C110.2683,38.4769 109.9203,36.0639 109.8503,34.8419 C109.7623,33.3009 107.5543,31.0849 106.8483,32.1449 C106.1413,33.2049 107.5543,36.4719 107.5543,38.9449 C107.5543,41.4169 107.8203,44.9489 107.9963,47.3329 C108.1733,49.7179 109.7083,53.6209 108.5873,56.2719 C107.4653,58.9229 96.7593,67.1829 92.2723,71.6689 C87.7853,76.1549 84.3413,78.8289 84.3413,78.8289 C84.3413,78.8289 85.0623,85.4269 85.7463,91.1829 C86.4293,96.9389 87.0543,100.3029 87.0543,100.3029 C87.0543,100.3029 90.1353,100.9819 93.1903,98.8129 C96.2453,96.6439 103.6693,86.5489 108.0083,79.7919 C112.3453,73.0339 118.5193,59.1869 118.5193,59.1869 C118.5193,59.1869 121.6233,56.7139 122.5413,55.2119 C123.4593,53.7109 124.3653,49.7329 125.3013,47.6449 C125.9313,46.2399 126.4243,44.8719 126.6613,43.7399 L126.6653,43.7409 C126.9873,42.5309 126.9573,40.8039 127.3183,39.9399 C127.6783,39.0749 129.5503,36.6989 130.1983,35.5339 C130.8463,34.3689 133.3523,31.1639 132.5743,30.5069" id="Fill-20" fill="#ffcba7" mask="url(#bodywaving-mask-4)"/><path d="M108.587,56.2725 C108.046,57.5735 107.031,58.5945 106.108,59.6205 C105.166,60.6475 104.139,61.5835 103.135,62.5405 C101.095,64.4195 98.998,66.2275 96.943,68.0755 C95.918,69.0005 94.89,69.9205 93.885,70.8565 C92.881,71.7885 91.934,72.7795 90.959,73.7685 C89.993,74.7605 89.004,75.7375 87.976,76.6865 C86.93,77.6225 85.914,78.5805 84.557,79.2805 L84.125,78.3775 C85.233,77.7955 86.266,76.8365 87.257,75.9165 C88.252,74.9755 89.211,73.9855 90.187,73.0065 C92.104,71.0205 94.165,69.0895 96.279,67.3165 L102.607,61.9455 C103.669,61.0615 104.697,60.1435 105.739,59.2415 C106.257,58.7875 106.762,58.3195 107.253,57.8385 C107.747,57.3585 108.229,56.8665 108.587,56.2725" id="Fill-21" fill="#000" mask="url(#bodywaving-mask-4)"/><path d="M116.8834,51.1729 C116.7144,49.2449 116.2704,47.3509 115.3034,45.7749 C114.2854,44.2479 112.7384,43.0299 111.3924,41.6129 C111.2204,41.4349 111.0494,41.2469 110.8884,41.0279 C110.7274,40.7819 110.6104,40.5359 110.5264,40.2959 C110.3484,39.8139 110.2294,39.3339 110.1224,38.8529 C109.9144,37.8899 109.7764,36.9249 109.6754,35.9519 L109.6134,35.2209 C109.5984,34.9619 109.5924,34.7369 109.5524,34.5359 C109.4624,34.1089 109.2554,33.6849 108.9984,33.3009 C108.7404,32.9169 108.4414,32.5479 108.0724,32.2649 C107.7344,31.9889 107.2024,31.7369 106.8484,32.1459 C106.9594,31.9229 107.2274,31.7899 107.4874,31.8179 C107.7494,31.8309 107.9884,31.9389 108.2054,32.0659 C108.6354,32.3289 109.0094,32.6729 109.3204,33.0689 C109.6254,33.4679 109.8854,33.9109 110.0304,34.4229 C110.1034,34.6929 110.1204,34.9539 110.1394,35.1769 L110.2254,35.8879 C110.3574,36.8349 110.5284,37.7809 110.7614,38.7019 C110.8804,39.1599 111.0124,39.6159 111.1844,40.0359 C111.2674,40.2509 111.3714,40.4369 111.4804,40.5929 C111.6134,40.7569 111.7644,40.9319 111.9294,41.0989 C113.2574,42.4589 114.7954,43.6849 115.9054,45.4119 C116.4044,46.2959 116.7344,47.2569 116.8774,48.2379 C117.0284,49.2159 117.0534,50.2099 116.8834,51.1729" id="Fill-22" fill="#000" mask="url(#bodywaving-mask-4)"/><path d="M113.46,35.8135 C114.542,36.0845 115.506,36.4695 116.477,36.9035 C117.439,37.3385 118.369,37.8345 119.27,38.3745 C120.161,38.9295 121.04,39.5035 121.865,40.1485 C122.702,40.7765 123.491,41.4635 124.262,42.1655 C124.323,42.2205 124.327,42.3145 124.272,42.3755 C124.219,42.4335 124.127,42.4365 124.065,42.3875 C123.263,41.7375 122.448,41.1025 121.59,40.5305 C120.744,39.9425 119.851,39.4285 118.952,38.9355 C118.043,38.4585 117.112,38.0275 116.161,37.6585 C115.216,37.2955 114.219,36.9715 113.274,36.7905 L113.245,36.7845 C112.976,36.7325 112.799,36.4715 112.851,36.2025 C112.903,35.9325 113.163,35.7565 113.433,35.8075 C113.441,35.8095 113.452,35.8115 113.46,35.8135" id="Fill-23" fill="#000" mask="url(#bodywaving-mask-4)"/><path d="M84.8892,58.0659 C84.7642,61.8309 84.5012,65.5319 84.5652,69.2589 C84.6592,76.7119 85.5402,84.1419 86.5342,91.5579 C87.4952,98.9689 88.8312,106.3739 89.4612,113.8779 C90.1492,121.3639 92.5122,128.8639 92.7862,136.3609 C92.9022,140.1099 93.0962,141.8459 93.1142,145.6189 C93.0982,147.5099 93.1172,148.3869 92.7372,150.3369 C92.3533438,151.579341 90.8431058,153.7779 87.2157639,154.4929 C83.588422,155.2079 78.1940131,155.584919 76.3332,155.6689 C72.788009,155.8289 67.4303233,156.0839 63.7083233,156.3079 C59.9913233,156.5639 55.6567,156.3079 52.0718737,156.3079 C48.4870474,156.3079 44.5042,156.1869 40.7452,156.3079 C36.9862,156.4269 33.2222,156.4389 29.4562,156.2789 C27.5742,156.1939 25.6912,156.0579 23.8122,155.8289 C21.9342,155.5999 20.0552,155.3249 18.1992,154.7609 L18.5012,153.7649 C20.2452,154.2649 22.0972,154.5069 23.9382,154.6989 C25.7832,154.8999 27.6462,154.9819 29.5062,155.0659 C33.2322,155.1999 36.9692,155.1669 40.7012,155.0269 C44.4332,154.8849 48.219835,154.9679 51.9458737,154.9679 C54.0387,154.9679 61.7753233,155.2499 63.6613233,155.2049 C67.4293233,155.1029 72.5136509,155.0269 76.4162,154.6319 C78.29238,154.442001 84.348346,154.061676 87.2477639,153.4519 C90.1471818,152.842124 91.6612,150.3189 91.7102,150.1109 C92.0392,148.3739 92.0252,147.4749 92.0232,145.6249 C91.9792,141.9019 91.7602,140.1499 91.6162,136.4069 C91.2872,128.9249 88.8702,121.4459 88.1312,114.0069 C87.4462,106.5679 86.0952,99.2039 85.0872,91.7549 C84.0572,84.3209 83.2482,76.8209 83.1732,69.2729 C83.1242,65.5009 83.3722,61.7159 83.6892,57.9999 C83.9742,54.2709 84.2882,50.5589 84.3072,46.7979 C84.9562,50.5119 85.0002,54.3139 84.8892,58.0659 Z" id="Fill-24" fill="#000" mask="url(#bodywaving-mask-4)"/><path d="M31.627,147.1485 C31.368,145.9415 26.451,141.2835 25.675,140.5065 C24.898,139.7305 23.111,137.9055 22.98,136.9875 C22.848,136.0695 22.717,128.8545 22.98,119.6725 C23.169,113.0655 22.689,101.1185 22.406,94.9355 C18.78,95.9635 14.043,97.0215 9.871,97.0215 C7.485,97.0215 5.662,96.7435 4.259,96.3545 C4.245,97.9185 4.264,99.5805 4.369,100.7415 C4.628,103.5875 12.995,134.4685 13.944,139.4715 C14.893,144.4745 15.928,154.9985 16.359,156.2065 C16.791,157.4135 20.327,164.0555 21.794,164.3145 C23.26,164.5735 26.365,163.4515 26.365,163.4515 C26.365,163.4515 27.659,167.1605 28.004,167.9365 C28.349,168.7125 28.914,171.8515 30.247,171.3875 C31.097,171.0905 30.505,169.2305 30.333,166.6425 C30.16,164.0555 30.419,160.5185 30.419,160.5185 C30.419,160.5185 31.886,159.5695 32.058,158.7945 C32.231,158.0175 32.317,156.8955 32.058,154.6535 C31.799,152.4105 31.886,148.3565 31.627,147.1485" id="Fill-25" fill="#ffcba7" mask="url(#bodywaving-mask-4)"/><path d="M28.4874,148.4444 C28.9254,149.3894 29.2804,150.3544 29.6054,151.3274 C29.9324,152.3074 30.2164,153.2564 30.4834,154.2904 C30.7034,155.3714 30.7144,156.3924 30.6984,157.4314 C30.6784,158.4654 30.5864,159.4954 30.4194,160.5184 C30.2754,159.4924 30.1594,158.4714 30.0674,157.4554 C29.9554,156.4484 29.8904,155.4094 29.6844,154.4814 C29.4354,153.5304 29.1734,152.5034 28.9714,151.5034 C28.7614,150.4954 28.5834,149.4794 28.4874,148.4444" id="Fill-26" fill="#221F1F" mask="url(#bodywaving-mask-4)"/><path d="M18.6382,157.419 C19.4572,157.573 20.1952,157.656 20.9532,157.763 C21.7032,157.872 22.4772,157.939 23.2642,157.993 C24.8352,158.102 26.4202,158.214 28.0102,158.444 C26.4252,158.702 24.8332,158.83 23.2312,158.814 C22.4332,158.8 21.6162,158.781 20.8022,158.61 C20.0092,158.425 19.1762,158.101 18.6382,157.419" id="Fill-27" fill="#221F1F" mask="url(#bodywaving-mask-4)"/><path d="M33.2125,54.3487 C30.9135,56.7417 28.8595,59.6307 29.1065,62.8697 C29.0975,66.2827 28.7415,69.6137 28.5175,72.9587 C28.3165,76.3057 27.9765,79.6187 28.2475,82.9367 C28.4545,86.2767 28.6235,89.6187 28.7755,92.9637 L28.7755,92.9677 L28.7915,93.3417 L28.4585,93.4777 C26.1385,94.4187 23.7805,95.1897 21.3725,95.8347 C18.9725,96.4947 16.5225,97.0007 14.0345,97.2877 C11.5505,97.5807 9.0095,97.6647 6.5195,97.2357 C5.2745,97.0497 4.0425,96.7057 2.8895,96.1807 C1.7545,95.6587 0.6235,94.9267 0.0005,93.8337 C0.8035,94.7897 1.9615,95.2847 3.0855,95.6867 C4.2295,96.0757 5.4325,96.2547 6.6315,96.3887 C7.8335,96.5227 9.0525,96.5267 10.2635,96.4857 C11.4735,96.4507 12.6865,96.3477 13.8915,96.1697 C16.3035,95.8277 18.6955,95.2977 21.0665,94.6837 C23.4295,94.0497 25.7925,93.3467 28.0955,92.5457 L27.7785,93.0547 L27.7785,93.0517 C27.5075,89.7017 27.2545,86.3457 27.0395,82.9887 C26.8895,81.3237 26.9115,79.5847 26.9815,77.9077 C27.0455,76.2177 27.1765,74.5377 27.3265,72.8647 C27.6045,69.5207 28.0085,66.1717 28.0675,62.8717 C28.0595,62.4787 28.0885,62.0187 28.1195,61.5647 C28.1935,61.1207 28.2565,60.6717 28.4045,60.2507 C28.6715,59.4017 29.0645,58.6057 29.5615,57.8957 C30.5455,56.4677 31.7855,55.2587 33.2125,54.3487" id="Fill-28" fill="#000" mask="url(#bodywaving-mask-4)"/><path d="M63.5884,24.8829 C63.5884,24.8829 67.9614,22.6989 69.0974,20.4279 C69.0974,20.4279 70.6644,23.0489 71.2754,26.0189 C71.8874,28.9889 69.7914,33.1829 67.9564,34.8419 C67.9564,34.8419 65.7724,25.4939 63.5884,24.8829" id="Fill-29" fill="#0a597f" mask="url(#bodywaving-mask-4)"/><path d="M63.5884,24.8829 C63.5884,24.8829 62.7054,25.5569 62.6274,27.6349 C62.5804,28.9009 63.1084,34.8419 63.1084,34.8419 C63.1084,34.8419 57.8444,36.0969 53.3024,32.0779 C48.7594,28.0599 45.0684,21.4759 44.8934,20.4279 C44.8934,20.4279 46.9024,18.6809 47.3394,16.9339 C47.7764,15.1869 48.9994,14.2259 49.5234,14.2259 C50.0474,14.2259 51.9874,17.4279 55.2024,20.4279 C59.1334,24.0969 63.5884,24.8829 63.5884,24.8829" id="Fill-30" fill="#0a597f" mask="url(#bodywaving-mask-4)"/><path d="M63.8897,25.2784 C63.7317,25.4154 63.4937,25.7894 63.3817,26.1244 C63.2507,26.4744 63.1687,26.8574 63.1267,27.2504 C63.0447,28.0164 63.1217,28.8834 63.1547,29.7234 C63.2477,31.4164 63.3697,33.1144 63.4997,34.8074 L63.5287,35.1834 L63.1827,35.2274 C61.0137,35.5064 58.8757,35.1734 56.9087,34.3584 C55.9307,33.9464 55.0067,33.4164 54.1557,32.7874 C53.3227,32.1304 52.5527,31.4244 51.8367,30.6694 C50.3827,29.1764 49.0877,27.5464 47.8767,25.8624 C47.2747,25.0164 46.7027,24.1514 46.1607,23.2664 C45.6387,22.3604 45.0757,21.5164 44.7467,20.4524 C44.7227,20.3744 44.7667,20.2924 44.8447,20.2684 C44.9207,20.2454 45.0017,20.2874 45.0267,20.3624 L45.0397,20.4034 C45.3427,21.3104 45.9357,22.2154 46.4647,23.0774 C47.0187,23.9424 47.6027,24.7904 48.2157,25.6164 C49.4487,27.2604 50.7637,28.8484 52.2217,30.2884 C52.9407,31.0184 53.7137,31.6954 54.5137,32.3014 C55.3367,32.8844 56.2237,33.3704 57.1567,33.7434 C59.0127,34.4814 61.1107,34.7414 63.0337,34.4564 L62.7167,34.8764 C62.5517,33.1784 62.3947,31.4854 62.2667,29.7804 C62.2187,28.9244 62.1147,28.0874 62.1897,27.1574 C62.2287,26.7024 62.3147,26.2454 62.4717,25.7944 C62.6477,25.3354 62.8127,24.9264 63.2877,24.4874 C63.4887,24.3014 63.8027,24.3154 63.9877,24.5164 C64.1737,24.7174 64.1607,25.0304 63.9597,25.2164 L63.9497,25.2254 L63.8897,25.2784 Z" id="Fill-31" fill="#000" mask="url(#bodywaving-mask-4)"/><path d="M71.4214,25.9893 C71.7614,27.6453 71.3814,29.3333 70.8014,30.8663 C70.1924,32.3993 69.3834,33.8713 68.1654,35.0733 L67.7914,35.4423 L67.6534,34.9133 C67.1904,33.1393 66.6514,31.3713 66.0124,29.6583 C65.6904,28.8033 65.3394,27.9593 64.9254,27.1653 C64.7194,26.7693 64.4944,26.3853 64.2404,26.0483 C63.9984,25.7103 63.6774,25.4233 63.4544,25.3613 L63.4194,25.3513 C63.1544,25.2783 63.0004,25.0033 63.0734,24.7393 C63.1474,24.4733 63.4214,24.3193 63.6864,24.3933 C63.6974,24.3963 63.7114,24.4003 63.7224,24.4053 C64.3874,24.6453 64.7134,25.0933 65.0074,25.4923 C65.2964,25.9053 65.5244,26.3313 65.7304,26.7603 C66.1434,27.6223 66.4724,28.5013 66.7734,29.3863 C67.3674,31.1603 67.8484,32.9523 68.2594,34.7703 L67.7474,34.6103 C68.8884,33.5623 69.7444,32.1513 70.3754,30.6943 C70.9864,29.2333 71.3994,27.6153 71.1304,26.0493 L71.1294,26.0443 C71.1154,25.9633 71.1704,25.8853 71.2514,25.8723 C71.3304,25.8583 71.4054,25.9113 71.4214,25.9893" id="Fill-32" fill="#000" mask="url(#bodywaving-mask-4)"/></g></g></g><g id="Head" transform="translate(112.000000, 0.000000) scale(1 1)"><g id="Head/Cap" stroke="none" stroke-width="1" fill="none" fill-rule="evenodd"><g id="Group-17" transform="translate(31.000000, 17.000000)"><path d="M2.0905,24.5154 C2.0175,23.8784 1.9805,23.2314 1.9805,22.5754 C1.9805,12.8834 10.1365,5.0274 20.1975,5.0274 C29.2175,5.0274 37.3115,11.5844 38.7635,19.8744 C38.7635,19.8744 42.8185,42.1244 31.1805,48.7754 C26.8865,51.2294 14.4715,41.1294 14.4715,41.1294" id="Fill-1" fill="#ffcba7"/><g id="Group-5" transform="translate(14.000000, 19.546600)" fill="#000"><path d="M24.7639,0.3282 C25.5479,4.4712 25.8419,8.7232 25.5489,12.9532 C25.2569,17.1602 24.3509,21.4742 21.9979,25.1252 C20.8289,26.9372 19.2369,28.4942 17.3509,29.5952 C16.2359,30.1682 15.0389,30.0282 13.9849,29.8102 C12.9169,29.5622 11.9119,29.1682 10.9399,28.7242 C8.9909,27.8412 7.2029,26.6822 5.4579,25.4902 C3.7169,24.2892 2.0549,22.9772 0.4719,21.5832 C3.9089,24.0132 7.4359,26.3632 11.2319,28.0752 C12.1809,28.4902 13.1559,28.8522 14.1459,29.0662 C15.1249,29.2642 16.1729,29.3182 16.9569,28.8872 C18.7199,27.8752 20.2419,26.4282 21.3709,24.7102 C22.5009,22.9902 23.3259,21.0632 23.8779,19.0582 C24.4439,17.0572 24.8219,14.9942 25.0169,12.9082 C25.4069,8.7382 25.2949,4.5082 24.7639,0.3282" id="Fill-3"/></g><g id="Group-8" transform="translate(0.000000, 1.546600)" fill="#0519fc"><path d="M1.7531,25.5371 C1.7531,25.5371 0.2421,23.7141 0.1121,22.4191 C-0.0169,21.1241 -0.1899,11.1951 0.5871,10.0721 C1.3641,8.9501 9.6961,1.1801 11.0341,0.7481 C12.3731,0.3161 21.7831,0.7481 21.7831,0.7481 L13.8401,16.5481 L10.6031,20.2171 L10.2641,25.5371 L1.7531,25.5371 Z" id="Fill-6"/></g><path d="M11.7336,36.6697 C11.2366,37.5207 10.0446,37.8397 9.1056,37.8697 C6.6006,37.9507 2.7886,34.7957 1.6246,30.5607 C0.4616,26.3257 2.2166,23.3327 4.7216,23.2517 C6.5716,23.1917 8.7726,24.6237 10.2646,27.0837" id="Fill-9" fill="#ffcba7"/><path d="M11.7336,36.6697 C11.4356,37.2377 10.8386,37.5997 10.2316,37.7897 C9.6206,37.9837 8.9606,38.0617 8.3086,37.9537 C7.0046,37.7457 5.8706,37.0227 4.8836,36.2057 C2.9116,34.5487 1.4866,32.1967 1.0336,29.6187 C0.7976,28.3387 0.7916,26.9787 1.2236,25.6887 C1.6546,24.4297 2.6946,23.2047 4.1296,22.9597 C5.5496,22.7067 6.8626,23.3417 7.8786,24.1117 C8.9136,24.9037 9.6966,25.9587 10.2646,27.0837 C9.5186,26.0637 8.6256,25.1707 7.6046,24.4987 C6.5966,23.8327 5.3666,23.4397 4.2746,23.6727 C3.1796,23.9197 2.3546,24.8567 1.9876,25.9577 C1.5986,27.0617 1.5716,28.2977 1.7746,29.4897 C1.9656,30.6917 2.3886,31.8507 2.9916,32.9137 C3.5916,33.9747 4.3256,34.9797 5.2366,35.8057 C6.1336,36.6357 7.1916,37.3377 8.3696,37.6367 C8.9526,37.7807 9.5826,37.7597 10.1836,37.6177 C10.7746,37.4727 11.3776,37.2027 11.7336,36.6697" id="Fill-11" fill="#000"/><path d="M10.2643,27.0837 C10.2643,27.0837 11.7273,27.7667 12.8873,29.2317 C14.0473,30.6967 14.9413,31.2467 15.4103,30.8197 C15.8793,30.3927 14.4073,25.8127 14.4713,24.7737 C14.5353,23.7357 15.8183,19.3397 15.7573,16.8967 C15.7573,16.8967 10.8613,19.9697 10.7313,20.8667 C10.6023,21.7637 10.2643,27.0837 10.2643,27.0837" id="Fill-13" fill="#474747"/><path d="M10.2643,27.0837 C10.2643,27.0837 10.7843,22.5277 11.2053,21.6867 C11.6263,20.8437 17.8973,14.7607 24.6823,14.0117 C31.4683,13.2627 36.3943,15.2457 37.1543,15.6897 C37.9133,16.1347 38.5293,18.7737 38.5293,18.7737 C38.5293,18.7737 44.8513,10.9227 45.9743,8.9577 C47.0973,6.9917 47.6123,5.0257 45.7403,3.8567 C43.8683,2.6877 39.2663,0.0037 35.8293,0.0037 C32.3913,0.0037 23.1833,-0.1943 20.7143,2.3167 C18.2433,4.8297 10.4823,18.7887 10.2643,19.8747 C10.0463,20.9607 10.2643,27.0837 10.2643,27.0837" id="Fill-15" fill="#000"/></g></g></g><g id="Expressions" transform="translate(158.000000, 29.000000) scale(1 1)" fill="#000"><g id="Expressions/Happy" stroke="none" stroke-width="1" fill="none" fill-rule="evenodd"><g id="Group" transform="translate(7.000000, 4.000000)" fill="#000"><path d="M3.70147231,20.2519297 C3.84599011,19.3810589 4.45155927,18.9902089 5.1691431,19.4508857 L5.27757715,19.5264201 C6.64605655,20.5543282 8.726403,20.9771082 11.5267626,20.7735349 C11.7333243,20.7585189 11.9129486,20.9137973 11.9279647,21.120359 C11.9429808,21.3269207 11.7877024,21.5065449 11.5811407,21.521561 C8.74502911,21.7277333 6.55941517,21.3175838 5.03142799,20.2725376 L4.82714297,20.1260942 C4.5666552,19.9304336 4.50954987,19.9637589 4.441354,20.3747104 C4.34669757,20.9451143 4.48682869,21.8343583 4.83085316,22.6661213 C5.73021088,24.8405377 7.50118009,25.8767616 9.89508429,24.9673291 C10.088691,24.8937788 10.3052646,24.9911038 10.3788149,25.1847106 C10.4523651,25.3783173 10.3550401,25.5948909 10.1614334,25.6684412 C7.34567288,26.7381348 5.1791289,25.4704535 4.13779541,22.9527761 C3.74371779,21.9999974 3.58184696,20.9727975 3.70147231,20.2519297 Z" id="Path-2" fill-rule="nonzero"/><g id="Group-18"><path d="M0.0246196271,4.63233625 C0.533331126,3.52891014 1.2933508,2.47790812 2.2948326,1.70112436 C3.29021925,0.916779447 4.44689323,0.413205815 5.60403607,0.0492617078 L5.61153781,0.0472453969 C6.1858895,-0.133718501 6.78790385,0.221152207 6.95622406,0.838647402 C7.12407541,1.45664667 6.79446787,2.10337838 6.22011617,2.28434227 C6.13290849,2.31156247 6.03960564,2.3266848 5.95333567,2.33071742 C4.91715833,2.36902733 3.89035816,2.51722618 2.94185737,2.92502504 C1.99241886,3.32475867 1.13347004,4.01685736 0.41470992,4.91209938 C0.329377668,5.0179557 0.180280657,5.03005356 0.0818203672,4.93831142 C-0.00163645024,4.86068345 -0.0222662253,4.73365587 0.0246196271,4.63233625" id="Fill-9"/><path d="M12.0175854,6.63233625 C12.3809508,5.52891014 12.923822,4.47790812 13.6391661,3.70112436 C14.3501566,2.91677945 15.1763523,2.41320581 16.0028829,2.04926171 L16.0082413,2.0472454 C16.4184925,1.8662815 16.8485027,2.22115221 16.9687315,2.8386474 C17.0886253,3.45664667 16.8531913,4.10337838 16.4429401,4.28434227 C16.3806489,4.31156247 16.314004,4.3266848 16.2523826,4.33071742 C15.512256,4.36902733 14.7788273,4.51722618 14.1013267,4.92502504 C13.4231563,5.32475867 12.8096215,6.01685736 12.2962214,6.91209938 C12.2352698,7.0179557 12.1287719,7.03005356 12.0584431,6.93831142 C11.9988311,6.86068345 11.9840956,6.73365587 12.0175854,6.63233625" id="Fill-9-Copy" transform="translate(14.500000, 4.500000) scale(-1, 1) translate(-14.500000, -4.500000)"/><path d="M5.99717249,10.1502934 C6.21141031,11.0039316 5.96204216,11.7117838 5.44040055,11.7311473 C4.91826112,11.7510167 4.32177824,11.0745789 4.10754042,10.2209406 C3.89330261,9.36730235 4.14267076,8.65945019 4.66481361,8.64009015 C5.1864518,8.6202173 5.78293468,9.29665512 5.99717249,10.1502934" id="Fill-11" transform="translate(5.052360, 10.185619) rotate(20.000000) translate(-5.052360, -10.185619)"/><path d="M15.2914755,10.5784931 C15.3505205,11.4566023 14.9797452,12.1093737 14.4623283,12.0369076 C13.9459104,11.963934 13.479008,11.1928401 13.4199629,10.314731 C13.3604162,9.43610997 13.732192,8.78334149 14.2486099,8.85631508 C14.765528,8.92929013 15.2324304,9.70038401 15.2914755,10.5784931" id="Fill-13" transform="translate(14.355677, 10.446574) rotate(8.000000) translate(-14.355677, -10.446574)"/></g></g><path d="M18.5379491,12.250917 C18.6180931,13.3277399 19.0257588,14.3861031 19.5295974,15.3788312 C20.0467932,16.36797 20.6660391,17.3217275 21.3990894,18.1606238 C21.5850235,18.3667585 21.7757662,18.568791 21.9771947,18.7513381 C22.0744361,18.8492777 22.181829,18.9261937 22.2844133,19.0123395 C22.3736403,19.0866915 22.5472856,19.2225763 22.6642958,19.3584611 C22.7893205,19.5061397 22.9100707,19.681508 22.9693773,19.9096919 C23.0292181,20.1378758 22.9982291,20.3983644 22.9036592,20.5983458 C22.7091765,21.0039491 22.3992864,21.2157243 22.1113023,21.3905799 C21.5209083,21.7274716 20.8941823,21.866433 20.2695935,21.95463 C19.6439361,22.0310331 19.0033185,22.0166755 18.3840726,21.8674586 C18.2403477,21.8331028 18.1532579,21.6936286 18.1895899,21.5556927 C18.2216475,21.4316017 18.3434663,21.3516091 18.4716967,21.3623773 L18.4781082,21.3628901 C19.0327046,21.4080141 19.5985212,21.3551985 20.1451032,21.2444396 C20.6890137,21.1367573 21.2249098,20.9439547 21.653413,20.6850044 C21.8639246,20.5588623 22.0391727,20.3916984 22.085122,20.2676074 C22.1294683,20.1568484 22.1080966,20.0876241 21.9734547,19.9271262 C21.8965164,19.8455953 21.8345384,19.8050863 21.7004308,19.6907379 C21.5807491,19.5876706 21.4519845,19.4892182 21.3451258,19.3784593 C21.1175169,19.1656586 20.911814,18.9400385 20.7125226,18.7113418 C19.9329888,17.7873252 19.290234,16.7807522 18.8093701,15.6982887 C18.3236975,14.625568 17.9593095,13.463112 18.0036558,12.2473276 C18.0084645,12.1058023 18.1324205,11.9950434 18.2798854,12.0001711 C18.4171988,12.0047861 18.5267289,12.1078534 18.5368805,12.2365594 L18.5379491,12.250917 Z" id="Fill-1" fill="#000"/></g></g></g></svg>