<svg xmlns="http://www.w3.org/2000/svg" width="183.037" height="215.306" viewBox="0 0 183.037 215.306">
  <g id="Group_653" data-name="Group 653" transform="translate(-361.279 -1084.918)">
    <rect id="Rectangle_14" data-name="Rectangle 14" width="23.835" height="16.052" transform="matrix(0.514, -0.858, 0.858, 0.514, 490.102, 1131.479)" fill="#0c4589"/>
    <rect id="Rectangle_15" data-name="Rectangle 15" width="15.079" height="26.141" rx="7.54" transform="matrix(0.514, -0.858, 0.858, 0.514, 491.894, 1118.663)" fill="#0a6cb4"/>
    <path id="Path_3073" data-name="Path 3073" d="M802.037,255.841,783.4,244.687a2.211,2.211,0,0,0-3.032.762l-2.737,4.572,22.43,13.425,2.737-4.572A2.211,2.211,0,0,0,802.037,255.841Z" transform="translate(-281.865 862.172)" fill="#013173"/>
    <rect id="Rectangle_16" data-name="Rectangle 16" width="16.052" height="23.835" transform="matrix(0.848, -0.529, 0.529, 0.848, 389.392, 1119.5)" fill="#0c4589"/>
    <rect id="Rectangle_17" data-name="Rectangle 17" width="26.141" height="15.079" rx="7.54" transform="matrix(0.848, -0.529, 0.529, 0.848, 383.439, 1119.488)" fill="#0a6cb4"/>
    <path id="Path_3074" data-name="Path 3074" d="M336.193,244.449l-18.425,11.5a2.21,2.21,0,0,0-.705,3.046l2.821,4.521,22.176-13.84-2.821-4.521A2.211,2.211,0,0,0,336.193,244.449Z" transform="translate(67.547 862.37)" fill="#013173"/>
    <rect id="Rectangle_18" data-name="Rectangle 18" width="24.725" height="36.713" transform="translate(440.435 1089.789)" fill="#0c4589"/>
    <rect id="Rectangle_19" data-name="Rectangle 19" width="40.265" height="23.227" rx="9.14" transform="translate(432.665 1084.919)" fill="#0a6cb4"/>
    <path id="Path_3075" data-name="Path 3075" d="M554.828,154.967H518.985a2.211,2.211,0,0,0-2.211,2.211v9.4h40.265v-9.4A2.211,2.211,0,0,0,554.828,154.967Z" transform="translate(-84.109 929.951)" fill="#013173"/>
    <ellipse id="Ellipse_7" data-name="Ellipse 7" cx="91.518" cy="91.518" rx="91.518" ry="91.518" transform="translate(361.279 1117.188)" fill="#013173"/>
    <ellipse id="Ellipse_8" data-name="Ellipse 8" cx="75.987" cy="75.987" rx="75.987" ry="75.987" transform="translate(376.811 1132.719)" fill="#0a6cb4"/>
    <ellipse id="Ellipse_9" data-name="Ellipse 9" cx="71.841" cy="71.841" rx="71.841" ry="71.841" transform="translate(380.956 1136.865)" fill="#fff"/>
    <g id="Group_623" data-name="Group 623" transform="translate(383.002 1138.96)">
      <g id="Group_564" data-name="Group 564" transform="translate(67.032)">
        <path id="Path_3076" data-name="Path 3076" d="M589.393,394.563h3.892l.818-16.191h-5.527Z" transform="translate(-588.575 -378.372)" fill="#29abe2"/>
      </g>
      <g id="Group_565" data-name="Group 565" transform="translate(59.634 0.101)">
        <path id="Path_3077" data-name="Path 3077" d="M560.526,395.391l3.87-.414-.908-16.187-5.5.588Z" transform="translate(-557.992 -378.791)" fill="#f2f2f2"/>
      </g>
      <g id="Group_566" data-name="Group 566" transform="translate(52.351 0.992)">
        <path id="Path_3078" data-name="Path 3078" d="M532.107,399.293l3.8-.823-2.623-16-5.4,1.168Z" transform="translate(-527.886 -382.472)" fill="#f2f2f2"/>
      </g>
      <g id="Group_567" data-name="Group 567" transform="translate(45.266 2.661)">
        <path id="Path_3079" data-name="Path 3079" d="M504.458,406.225l3.7-1.222-4.309-15.629-5.248,1.736Z" transform="translate(-498.596 -389.374)" fill="#f2f2f2"/>
      </g>
      <g id="Group_568" data-name="Group 568" transform="translate(38.459 5.091)">
        <path id="Path_3080" data-name="Path 3080" d="M477.89,416.108l3.544-1.608-5.946-15.082-5.033,2.284Z" transform="translate(-470.455 -399.417)" fill="#f2f2f2"/>
      </g>
      <g id="Group_569" data-name="Group 569" transform="translate(32.006 8.253)">
        <path id="Path_3081" data-name="Path 3081" d="M452.706,428.83l3.353-1.976-7.515-14.365-4.762,2.806Z" transform="translate(-443.782 -412.49)" fill="#f2f2f2"/>
      </g>
      <g id="Group_570" data-name="Group 570" transform="translate(25.982 12.112)">
        <path id="Path_3082" data-name="Path 3082" d="M429.192,444.248l3.124-2.321-9-13.485-4.437,3.3Z" transform="translate(-418.879 -428.442)" fill="#f2f2f2"/>
      </g>
      <g id="Group_571" data-name="Group 571" transform="translate(20.455 16.624)">
        <path id="Path_3083" data-name="Path 3083" d="M407.612,462.186l2.86-2.64L400.09,447.094l-4.061,3.749Z" transform="translate(-396.029 -447.094)" fill="#f2f2f2"/>
      </g>
      <g id="Group_572" data-name="Group 572" transform="translate(15.486 21.738)">
        <path id="Path_3084" data-name="Path 3084" d="M388.212,482.441l2.563-2.929-11.647-11.277-3.64,4.16Z" transform="translate(-375.489 -468.235)" fill="#f2f2f2"/>
      </g>
      <g id="Group_573" data-name="Group 573" transform="translate(11.133 27.396)">
        <path id="Path_3085" data-name="Path 3085" d="M371.212,504.784l2.237-3.185-12.78-9.976-3.177,4.523Z" transform="translate(-357.493 -491.624)" fill="#f2f2f2"/>
      </g>
      <g id="Group_574" data-name="Group 574" transform="translate(7.445 33.533)">
        <path id="Path_3086" data-name="Path 3086" d="M356.8,528.962l1.886-3.4L344.923,517l-2.678,4.835Z" transform="translate(-342.245 -516.996)" fill="#f2f2f2"/>
      </g>
      <g id="Group_575" data-name="Group 575" transform="translate(4.462 40.081)">
        <path id="Path_3087" data-name="Path 3087" d="M345.152,554.7l1.513-3.586-14.6-7.049-2.149,5.092Z" transform="translate(-329.917 -544.065)" fill="#f2f2f2"/>
      </g>
      <g id="Group_576" data-name="Group 576" transform="translate(2.221 46.965)">
        <path id="Path_3088" data-name="Path 3088" d="M336.388,581.707l1.124-3.726-15.266-5.457-1.6,5.292Z" transform="translate(-320.65 -572.524)" fill="#f2f2f2"/>
      </g>
      <g id="Group_577" data-name="Group 577" transform="translate(0.744 54.107)">
        <path id="Path_3089" data-name="Path 3089" d="M330.61,609.678l.721-3.825-15.76-3.8-1.024,5.432Z" transform="translate(-314.547 -602.049)" fill="#f2f2f2"/>
      </g>
      <g id="Group_578" data-name="Group 578" transform="translate(0.051 61.427)">
        <path id="Path_3090" data-name="Path 3090" d="M327.884,638.294l.311-3.88-16.075-2.107-.441,5.51Z" transform="translate(-311.679 -632.307)" fill="#f2f2f2"/>
      </g>
      <g id="Group_579" data-name="Group 579" transform="translate(0 68.84)">
        <path id="Path_3091" data-name="Path 3091" d="M327.78,667.232l-.1-3.891-16.207-.386.147,5.525Z" transform="translate(-311.469 -662.955)" fill="#f2f2f2"/>
      </g>
      <g id="Group_580" data-name="Group 580" transform="translate(0.299 74.926)">
        <path id="Path_3092" data-name="Path 3092" d="M329.379,691.969l-.517-3.858-16.157,1.339.734,5.478Z" transform="translate(-312.706 -688.111)" fill="#f2f2f2"/>
      </g>
      <g id="Group_581" data-name="Group 581" transform="translate(1.386 80.566)">
        <path id="Path_3093" data-name="Path 3093" d="M334.044,715.209l-.924-3.781L317.2,714.476l1.312,5.369Z" transform="translate(-317.198 -711.428)" fill="#f2f2f2"/>
      </g>
      <g id="Group_582" data-name="Group 582" transform="translate(3.247 86.084)">
        <path id="Path_3094" data-name="Path 3094" d="M341.722,737.9l-1.32-3.661-15.509,4.724,1.875,5.2Z" transform="translate(-324.893 -734.238)" fill="#f2f2f2"/>
      </g>
      <g id="Group_583" data-name="Group 583" transform="translate(5.863 91.416)">
        <path id="Path_3095" data-name="Path 3095" d="M352.327,759.783l-1.7-3.5-14.919,6.345,2.417,4.971Z" transform="translate(-335.706 -756.283)" fill="#f2f2f2"/>
      </g>
      <g id="Group_584" data-name="Group 584" transform="translate(9.203 96.503)">
        <path id="Path_3096" data-name="Path 3096" d="M365.738,780.612l-2.065-3.3-14.16,7.9,2.932,4.686Z" transform="translate(-349.514 -777.312)" fill="#f2f2f2"/>
      </g>
      <g id="Group_585" data-name="Group 585" transform="translate(13.229 101.287)">
        <path id="Path_3097" data-name="Path 3097" d="M381.8,800.15l-2.4-3.061-13.24,9.355,3.413,4.348Z" transform="translate(-366.159 -797.089)" fill="#f2f2f2"/>
      </g>
      <g id="Group_586" data-name="Group 586" transform="translate(17.897 105.714)">
        <path id="Path_3098" data-name="Path 3098" d="M400.341,818.176l-2.715-2.789L385.455,826.1l3.856,3.96Z" transform="translate(-385.455 -815.388)" fill="#f2f2f2"/>
      </g>
      <g id="Group_587" data-name="Group 587" transform="translate(23.152 109.733)">
        <path id="Path_3099" data-name="Path 3099" d="M421.14,834.487l-3-2.484-10.963,11.943,4.255,3.528Z" transform="translate(-407.181 -832.002)" fill="#f2f2f2"/>
      </g>
      <g id="Group_588" data-name="Group 588" transform="translate(28.936 113.299)">
        <path id="Path_3100" data-name="Path 3100" d="M443.967,848.9l-3.243-2.152-9.632,13.041,4.606,3.055Z" transform="translate(-431.091 -846.744)" fill="#f2f2f2"/>
      </g>
      <g id="Group_589" data-name="Group 589" transform="translate(35.183 116.371)">
        <path id="Path_3101" data-name="Path 3101" d="M468.561,861.24l-3.454-1.795-8.191,13.99,4.9,2.549Z" transform="translate(-456.916 -859.445)" fill="#f2f2f2"/>
      </g>
      <g id="Group_590" data-name="Group 590" transform="translate(41.822 118.916)">
        <path id="Path_3102" data-name="Path 3102" d="M494.644,871.38l-3.625-1.417-6.658,14.782,5.148,2.013Z" transform="translate(-484.362 -869.963)" fill="#f2f2f2"/>
      </g>
      <g id="Group_591" data-name="Group 591" transform="translate(48.779 120.903)">
        <path id="Path_3103" data-name="Path 3103" d="M521.921,879.2l-3.755-1.024-5.049,15.406,5.333,1.454Z" transform="translate(-513.118 -878.178)" fill="#f2f2f2"/>
      </g>
      <g id="Group_592" data-name="Group 592" transform="translate(55.973 122.31)">
        <path id="Path_3104" data-name="Path 3104" d="M550.083,884.615,546.241,884l-3.383,15.855,5.457.879Z" transform="translate(-542.858 -883.996)" fill="#f2f2f2"/>
      </g>
      <g id="Group_593" data-name="Group 593" transform="translate(63.324 123.122)">
        <path id="Path_3105" data-name="Path 3105" d="M578.811,887.56l-3.887-.207-1.678,16.125,5.519.294Z" transform="translate(-573.246 -887.352)" fill="#f2f2f2"/>
      </g>
      <g id="Group_594" data-name="Group 594" transform="translate(70.702 123.122)">
        <path id="Path_3106" data-name="Path 3106" d="M607.636,887.352l-3.887.207.045,16.212,5.519-.294Z" transform="translate(-603.75 -887.352)" fill="#f2f2f2"/>
      </g>
      <g id="Group_595" data-name="Group 595" transform="translate(76.393 122.31)">
        <path id="Path_3107" data-name="Path 3107" d="M631.116,884l-3.843.619,1.768,16.115,5.457-.879Z" transform="translate(-627.273 -883.996)" fill="#f2f2f2"/>
      </g>
      <g id="Group_596" data-name="Group 596" transform="translate(82.008 120.903)">
        <path id="Path_3108" data-name="Path 3108" d="M654.243,878.178l-3.755,1.024,3.471,15.836,5.332-1.454Z" transform="translate(-650.488 -878.178)" fill="#f2f2f2"/>
      </g>
      <g id="Group_597" data-name="Group 597" transform="translate(87.485 118.916)">
        <path id="Path_3109" data-name="Path 3109" d="M676.755,869.963l-3.625,1.417,5.135,15.377,5.148-2.013Z" transform="translate(-673.13 -869.963)" fill="#f2f2f2"/>
      </g>
      <g id="Group_598" data-name="Group 598" transform="translate(92.762 116.371)">
        <path id="Path_3110" data-name="Path 3110" d="M698.4,859.445l-3.454,1.795,6.74,14.745,4.9-2.549Z" transform="translate(-694.944 -859.445)" fill="#f2f2f2"/>
      </g>
      <g id="Group_599" data-name="Group 599" transform="translate(97.779 113.299)">
        <path id="Path_3111" data-name="Path 3111" d="M718.926,846.744l-3.243,2.152,8.269,13.944,4.606-3.055Z" transform="translate(-715.683 -846.744)" fill="#f2f2f2"/>
      </g>
      <g id="Group_600" data-name="Group 600" transform="translate(102.478 109.733)">
        <path id="Path_3112" data-name="Path 3112" d="M738.107,832l-3,2.484,9.7,12.987,4.255-3.528Z" transform="translate(-735.11 -832.002)" fill="#f2f2f2"/>
      </g>
      <g id="Group_601" data-name="Group 601" transform="translate(106.808 105.714)">
        <path id="Path_3113" data-name="Path 3113" d="M755.722,815.388l-2.715,2.789,11.03,11.881,3.856-3.96Z" transform="translate(-753.007 -815.388)" fill="#f2f2f2"/>
      </g>
      <g id="Group_602" data-name="Group 602" transform="translate(110.717 101.287)">
        <path id="Path_3114" data-name="Path 3114" d="M771.573,797.089l-2.4,3.061,12.23,10.642,3.413-4.348Z" transform="translate(-769.17 -797.089)" fill="#f2f2f2"/>
      </g>
      <g id="Group_603" data-name="Group 603" transform="translate(114.164 96.503)">
        <path id="Path_3115" data-name="Path 3115" d="M785.481,777.312l-2.064,3.3,13.292,9.281,2.932-4.686Z" transform="translate(-783.416 -777.312)" fill="#f2f2f2"/>
      </g>
      <g id="Group_604" data-name="Group 604" transform="translate(117.107 91.416)">
        <path id="Path_3116" data-name="Path 3116" d="M797.286,756.283l-1.7,3.5,14.2,7.816,2.417-4.971Z" transform="translate(-795.584 -756.283)" fill="#f2f2f2"/>
      </g>
      <g id="Group_605" data-name="Group 605" transform="translate(119.514 86.084)">
        <path id="Path_3117" data-name="Path 3117" d="M806.857,734.238l-1.32,3.661,14.954,6.262,1.875-5.2Z" transform="translate(-805.536 -734.238)" fill="#f2f2f2"/>
      </g>
      <g id="Group_606" data-name="Group 606" transform="translate(121.358 80.566)">
        <path id="Path_3118" data-name="Path 3118" d="M814.083,711.428l-.924,3.781,15.535,4.637,1.312-5.369Z" transform="translate(-813.16 -711.428)" fill="#f2f2f2"/>
      </g>
      <g id="Group_607" data-name="Group 607" transform="translate(122.618 74.926)">
        <path id="Path_3119" data-name="Path 3119" d="M818.884,688.111l-.517,3.858,15.94,2.959.734-5.478Z" transform="translate(-818.368 -688.111)" fill="#f2f2f2"/>
      </g>
      <g id="Group_608" data-name="Group 608" transform="translate(123.28 68.84)">
        <path id="Path_3120" data-name="Path 3120" d="M821.205,663.341l-.1,3.891,16.164,1.248.147-5.525Z" transform="translate(-821.102 -662.955)" fill="#29abe2"/>
      </g>
      <g id="Group_609" data-name="Group 609" transform="translate(123.024 61.427)">
        <path id="Path_3121" data-name="Path 3121" d="M820.046,634.414l.311,3.88,16.205-.477-.441-5.51Z" transform="translate(-820.046 -632.307)" fill="#29abe2"/>
      </g>
      <g id="Group_610" data-name="Group 610" transform="translate(122.062 54.107)">
        <path id="Path_3122" data-name="Path 3122" d="M816.07,605.853l.721,3.825,16.063-2.2-1.024-5.432Z" transform="translate(-816.07 -602.049)" fill="#29abe2"/>
      </g>
      <g id="Group_611" data-name="Group 611" transform="translate(120.508 46.965)">
        <path id="Path_3123" data-name="Path 3123" d="M809.645,577.981l1.124,3.726,15.738-3.892-1.6-5.292Z" transform="translate(-809.645 -572.524)" fill="#29abe2"/>
      </g>
      <g id="Group_612" data-name="Group 612" transform="translate(118.38 40.081)">
        <path id="Path_3124" data-name="Path 3124" d="M800.845,551.114l1.513,3.586,15.235-5.542-2.149-5.092Z" transform="translate(-800.845 -544.065)" fill="#29abe2"/>
      </g>
      <g id="Group_613" data-name="Group 613" transform="translate(115.7 33.533)">
        <path id="Path_3125" data-name="Path 3125" d="M789.769,525.557l1.886,3.4,14.56-7.13L803.537,517Z" transform="translate(-789.769 -516.996)" fill="#29abe2"/>
      </g>
      <g id="Group_614" data-name="Group 614" transform="translate(112.501 27.396)">
        <path id="Path_3126" data-name="Path 3126" d="M776.543,501.6l2.237,3.185,13.719-8.638-3.177-4.523Z" transform="translate(-776.543 -491.624)" fill="#29abe2"/>
      </g>
      <g id="Group_615" data-name="Group 615" transform="translate(108.818 21.738)">
        <path id="Path_3127" data-name="Path 3127" d="M761.317,479.512l2.563,2.929L776.6,472.394l-3.64-4.16Z" transform="translate(-761.317 -468.235)" fill="#29abe2"/>
      </g>
      <g id="Group_616" data-name="Group 616" transform="translate(104.692 16.624)">
        <path id="Path_3128" data-name="Path 3128" d="M744.263,459.546l2.86,2.64,11.584-11.342-4.061-3.749Z" transform="translate(-744.263 -447.094)" fill="#29abe2"/>
      </g>
      <g id="Group_617" data-name="Group 617" transform="translate(100.172 12.112)">
        <path id="Path_3129" data-name="Path 3129" d="M725.574,441.927l3.124,2.321,10.312-12.509-4.437-3.3Z" transform="translate(-725.574 -428.442)" fill="#29abe2"/>
      </g>
      <g id="Group_618" data-name="Group 618" transform="translate(95.307 8.253)">
        <path id="Path_3130" data-name="Path 3130" d="M705.463,426.854l3.353,1.976,8.924-13.535-4.762-2.806Z" transform="translate(-705.463 -412.49)" fill="#29abe2"/>
      </g>
      <g id="Group_619" data-name="Group 619" transform="translate(90.153 5.091)">
        <path id="Path_3131" data-name="Path 3131" d="M684.157,414.5l3.544,1.608,7.435-14.407-5.033-2.284Z" transform="translate(-684.157 -399.417)" fill="#29abe2"/>
      </g>
      <g id="Group_620" data-name="Group 620" transform="translate(84.768 2.661)">
        <path id="Path_3132" data-name="Path 3132" d="M661.9,405l3.7,1.222,5.862-15.115-5.248-1.736Z" transform="translate(-661.897 -389.374)" fill="#29abe2"/>
      </g>
      <g id="Group_621" data-name="Group 621" transform="translate(79.214 0.992)">
        <path id="Path_3133" data-name="Path 3133" d="M638.936,398.47l3.8.823,4.222-15.653-5.4-1.168Z" transform="translate(-638.936 -382.472)" fill="#29abe2"/>
      </g>
      <g id="Group_622" data-name="Group 622" transform="translate(73.553 0.101)">
        <path id="Path_3134" data-name="Path 3134" d="M615.533,394.977l3.87.414,2.534-16.013-5.5-.588Z" transform="translate(-615.533 -378.791)" fill="#29abe2"/>
      </g>
    </g>
    <g id="Group_624" data-name="Group 624" transform="translate(438.402 1238.955)">
      <path id="Path_3135" data-name="Path 3135" d="M540.488,807.732h1.97v1.037h.038a3.169,3.169,0,0,1,2.555-1.16,3.657,3.657,0,0,1,1.64.349,4.906,4.906,0,0,1,1.122.933,3.856,3.856,0,0,1,3.083-1.282,3.358,3.358,0,0,1,2.225.858,3.293,3.293,0,0,1,1.037,2.546v6.5h-1.97v-5.826a2.12,2.12,0,0,0-.538-1.565,1.859,1.859,0,0,0-1.386-.547,1.891,1.891,0,0,0-1.4.547,2.077,2.077,0,0,0-.556,1.565v5.826h-1.971v-5.826a2.12,2.12,0,0,0-.537-1.565,1.891,1.891,0,0,0-1.4-.547,1.859,1.859,0,0,0-1.386.547,2.058,2.058,0,0,0-.566,1.565v5.826h-1.97Z" transform="translate(-540.488 -803.772)" fill="#0a6cb4"/>
      <path id="Path_3136" data-name="Path 3136" d="M608.262,791.748h1.97v1.971h-1.97Zm0,3.96h1.97v9.786h-1.97Z" transform="translate(-591.868 -791.748)" fill="#0a6cb4"/>
      <path id="Path_3137" data-name="Path 3137" d="M627.164,807.733h1.971v1.037h.038a3.159,3.159,0,0,1,2.545-1.16,3.357,3.357,0,0,1,2.225.858,3.32,3.32,0,0,1,1.047,2.546v6.5h-1.97v-5.826a2.1,2.1,0,0,0-.547-1.565,1.859,1.859,0,0,0-1.386-.547,1.891,1.891,0,0,0-1.4.547,2.077,2.077,0,0,0-.556,1.565v5.826h-1.971Z" transform="translate(-606.197 -803.773)" fill="#0a6cb4"/>
    </g>
    <g id="Group_630" data-name="Group 630" transform="translate(429.823 1184.173)">
      <path id="Path_3840" data-name="Path 3840" d="M1384.423,585.454v-6l5.595-4.081h5.649v39.407h-5.649V581.345Z" transform="translate(-1384.423 -575.372)" fill="#29abe2"/>
      <path id="Path_3841" data-name="Path 3841" d="M1502.179,575.372h21v5.649H1507.5v8.919a9.925,9.925,0,0,1,6.3-2.162,11.9,11.9,0,0,1,4.162.811,9.061,9.061,0,0,1,2.892,2.054,9.541,9.541,0,0,1,2.378,3.757,13.485,13.485,0,0,1,.541,2.838q.162,1.7.162,4.19a24.521,24.521,0,0,1-.541,5.892,9.449,9.449,0,0,1-1.892,3.595,11.016,11.016,0,0,1-3.379,2.811,10.009,10.009,0,0,1-5.136,1.378,12.311,12.311,0,0,1-7.324-2.379q-3.379-2.433-4.19-7.865h5.649q.919,4.541,5.649,4.595a5.764,5.764,0,0,0,3.243-.811,4.123,4.123,0,0,0,1.621-2.054,9.614,9.614,0,0,0,.595-2.757q.054-1.46.054-2.838a11.387,11.387,0,0,0-1.054-5.487,4.215,4.215,0,0,0-1.757-1.595,7.521,7.521,0,0,0-2.892-.486,5.706,5.706,0,0,0-2.811.7,6.36,6.36,0,0,0-2.27,2.541h-5.325Z" transform="translate(-1477.989 -575.372)" fill="#29abe2"/>
    </g>
  </g>
</svg>
