<svg viewBox="53.25396825396825 17.5 144.04761904761904 332.4999999999999" fill="none" xmlns="http://www.w3.org/2000/svg" xmlns:xlink="http://www.w3.org/1999/xlink" overflow="visible" width="144.04761904761904px" height="332.4999999999999px"><g id="Master/Characters/Standing"><g id="Lower Body Standing" transform="translate(18 139) scale(1 1)"><g id="Lower Body Standing/Shorts"><g id="shorts"><g id="Fill 6"><g id="legs"><path id="Mask" fill-rule="evenodd" clip-rule="evenodd" d="M127.487 9.14258L74.407 10.0221L48.6476 178.122C48.6476 178.122 40.2047 197.551 49.0089 205.369C57.8146 213.188 61.5544 206.932 66.5304 195.813L103.162 35.5315L114.605 120.903C114.605 120.903 120.591 160.643 122.369 175.453C124.148 190.262 123.755 195.869 123.755 195.869L165.108 197.655L145.074 175.453L127.487 9.14258Z" fill="#ffcba7"/></g><path id="shorts_2" fill-rule="evenodd" clip-rule="evenodd" d="M141.862 67.1495L105.38 70.3314L103.299 50.1699L99.708 69.7697L61.9061 67.1831L68.8592 -0.0648193H130.859L141.862 67.1495Z" fill="#2B44FF"/><path id="Fill 9" fill-rule="evenodd" clip-rule="evenodd" d="M103.299 50.1699C102.756 50.2391 94.6072 70 94.6072 70L100.492 70.3314C100.492 70.3314 103.842 50.1007 103.299 50.1699Z" fill="black" fill-opacity="0.1"/><g id="lines"><path id="Fill 18" fill-rule="evenodd" clip-rule="evenodd" d="M97.5782 31.0704L101.358 34.8888C101.431 34.9632 101.528 35 101.625 35C101.72 35 101.816 34.9647 101.888 34.8918C102.036 34.746 102.037 34.5078 101.891 34.3605L98.218 30.6488L97.7509 3.3698C97.7479 3.16164 97.6023 2.99631 97.3695 3.00006C97.1622 3.00382 96.997 3.17516 97 3.38258L97.4694 30.8126C97.4709 30.9095 97.5099 31.002 97.5782 31.0704" fill="#263CD9"/><path id="Fill 15" fill-rule="evenodd" clip-rule="evenodd" d="M65.5866 60.0042L99.5309 64.1223C99.8214 64.157 100.029 64.381 99.9968 64.6216C99.9649 64.8535 99.7236 65.0168 99.4483 64.9986C99.4367 64.9978 99.4251 64.997 99.4142 64.9955L65.4692 60.8774C65.1794 60.8427 64.9708 60.6187 65.0034 60.3781C65.0367 60.136 65.3091 59.9711 65.5866 60.0042" fill="#263CD9"/><path id="Fill 12" fill-rule="evenodd" clip-rule="evenodd" d="M139.482 60.0044L109.417 64.1391C109.159 64.1739 108.975 64.3945 109.003 64.631C109.03 64.8576 109.244 65.0168 109.488 64.9986C109.498 64.9978 109.509 64.9971 109.519 64.9956L139.584 60.8609C139.841 60.826 140.025 60.6054 139.997 60.369C139.969 60.1317 139.727 59.971 139.482 60.0044" fill="#263CD9"/></g><path id="Shape" fill-rule="evenodd" clip-rule="evenodd" d="M98.4903 53.1365L98.39 53.1514C98.268 53.1803 98.1613 53.2398 98.076 53.3198L97.7248 53.5387C96.1459 54.4976 90.5651 57.7114 88.7078 58.5823C87.3219 59.2329 85.9873 59.8918 84.6843 60.5421L82.0425 61.8616C76.3462 64.6887 71.1777 67.0101 64.7247 67.2259L64.0962 67.2402C63.9863 67.2417 63.8307 67.2612 63.612 67.3006L70.7121 67.786C75.1837 66.7404 79.2079 64.7885 83.5843 62.6011L84.3171 62.2345C85.5969 61.5943 86.9045 60.9404 88.257 60.2909L89.2802 59.8048C90.4392 59.2612 92.7489 57.9718 94.2077 57.1443L97.1567 55.4544C99.3806 54.1601 99.3474 54.0635 99.1849 53.5904C99.0827 53.2961 98.7909 53.1148 98.4903 53.1365ZM92.2753 38.7356C90.8316 38.0727 87.8301 38.984 83.3509 41.4641L82.8394 41.7498C79.2131 43.7624 75.7357 46.3349 72.365 48.9155L70.8167 50.1051C68.294 52.0466 65.7277 54.0214 63.0833 55.8034L62.9036 57.5421C65.5359 55.8272 68.0782 53.9093 70.5727 51.9948L73.1718 49.9973C76.2517 47.6394 79.4169 45.2919 82.677 43.395L83.6358 42.8504L84.2862 42.49C88.6319 40.1204 90.9562 39.6326 91.7076 39.9603C91.8203 40.0137 91.9049 40.0891 91.9423 40.2881C92.1928 41.595 89.8147 44.1208 84.8736 47.7961L83.9782 48.4599V48.4599L83.7798 48.6113C80.8288 50.9181 77.6767 53.0164 74.5847 55.0381L73.4285 55.7929C70.603 57.6368 67.6929 59.5344 64.9024 61.5873L63.3461 62.7503V62.7503L63.0399 62.9722C62.7887 63.1534 62.536 63.3371 62.2843 63.523L62.0948 65.3625L62.5381 65.0193C62.6827 64.9091 62.8233 64.8034 62.9582 64.703L64.42 63.6367V63.6367L64.5344 63.5507C67.2512 61.4781 70.1308 59.5612 72.9583 57.7124L74.1663 56.9239C77.2602 54.9051 80.4469 52.8255 83.48 50.5416L84.6983 49.6071V49.6071L86.142 48.5335C90.0496 45.5984 93.7186 42.3844 93.2684 40.0335C93.1526 39.4322 92.8104 38.984 92.2753 38.7356ZM94.2698 8.98108C93.1434 8.73471 91.0834 9.79833 87.1991 12.6419L86.4128 13.2186V13.2186L86.3749 13.2437C82.5568 15.6866 78.8242 18.3848 75.1979 21.0408L73.8431 22.0342C71.2769 23.9173 68.6553 25.841 65.9902 27.6935L65.8084 29.4597C68.2142 27.8104 70.5818 26.0966 72.9061 24.3959L77.3493 21.1411C80.0768 19.1529 82.8609 17.1631 85.687 15.3003L87.1467 14.3512V14.3512L88.2423 13.5519C91.7695 10.9908 93.1687 10.394 93.7204 10.3026C93.481 10.8102 92.8881 11.7438 92.2144 12.6477C91.1144 14.1148 89.9011 15.5745 88.6976 16.999L87.9777 17.8493C87.1534 18.8221 86.3073 19.8207 85.4872 20.827L84.6776 21.8352C78.9368 29.1048 71.6587 35.934 64.4543 42.5371L64.2455 44.5597L66.9876 42.0437C73.6938 35.8659 80.365 29.4749 85.737 22.6721C86.5235 21.6763 87.3555 20.6768 88.1837 19.6958L89.0088 18.7219C90.4546 17.0155 91.9484 15.2512 93.2958 13.4556L93.6225 13.0096C95.5164 10.3756 95.2277 9.85189 95.0693 9.56412C94.9017 9.26079 94.6448 9.06949 94.2698 8.98108ZM82.3793 -0.0651924C81.4863 1.65675 80.1081 3.43205 78.8456 4.98451L77.9701 6.05372C75.6254 8.91325 73.1068 11.6427 70.6308 14.2879L67.8404 17.2665C67.5508 17.5769 67.2609 17.8885 66.9711 18.2013L66.738 20.4484C67.5856 19.5197 68.4377 18.603 69.2864 17.6953L70.556 16.3403C73.0294 13.7041 75.5758 10.9892 77.9888 8.1399L79.0142 6.91036L79.8423 5.89854C81.2295 4.1949 82.7686 2.21573 83.7289 0.256598L83.8797 -0.0650201L82.3793 -0.0651924ZM74.9095 -0.0645545C74.2048 0.409732 73.5072 0.896967 72.822 1.38128L70.2957 3.17141C69.6386 3.63178 69.0013 4.06888 68.3903 4.4655L68.2145 6.16867C69.4101 5.44384 70.6821 4.55572 72.0131 3.61074L72.5871 3.20258C74.1333 2.10296 75.7637 0.943446 77.3902 -0.065918L74.9095 -0.0645545Z" fill="black" fill-opacity="0.1"/><path id="Path 2" fill-rule="evenodd" clip-rule="evenodd" d="M52.8626 151.489L75.6879 155.232L69.0419 185.894L47.9338 182.688L52.8626 151.489Z" fill="#2B44FF"/><path id="Path 3" fill-rule="evenodd" clip-rule="evenodd" d="M119.737 154.425L142.189 150.054L145.065 177.291L127.4 184.534L123.144 179.872L119.737 154.425Z" fill="#2B44FF"/></g></g><g id="shoes"><path id="Fill 63" fill-rule="evenodd" clip-rule="evenodd" d="M70.5 181.648L64.3455 180.107C64.3455 180.107 66.5871 172.963 57.7976 171.23C51.5548 170 50.2248 173.913 47.5179 177.934C47.5179 177.934 40.0841 196.083 40.1084 201.524C40.1175 203.693 42.4373 206.263 44.4762 206.995C47.6166 208.124 55.8869 209.105 58.9149 208.991C61.1307 208.907 67.1921 209.109 68.5584 202.577C69.8269 196.516 68.5038 192.236 68.5038 192.236L70.5 181.648Z" fill="#F76954"/><path id="Fill 65" fill-rule="evenodd" clip-rule="evenodd" d="M60.477 209.566C65.3265 209.566 67.7089 207.575 68.372 205.271L69.0419 200.199C68.5869 201.78 62.893 202.805 55.8082 202.582C47.8172 202.33 40.82 199.579 40.346 197.475L39.5 203.399C40.1813 206.421 48.1136 209.665 54.6131 209.868C55.1512 209.885 59.8665 209.566 60.477 209.566" fill="#F8B0BE"/><path id="Fill 68" fill-rule="evenodd" clip-rule="evenodd" d="M61.7914 194.144C61.9522 194.144 62.0932 194.034 62.129 193.876C62.1671 193.717 62.0879 193.554 61.9393 193.483L50.5141 188.106L61.2579 188.764C61.4164 188.779 61.5551 188.68 61.607 188.534C61.658 188.387 61.607 188.224 61.4805 188.135L51.3921 180.962L61.7121 183.376C61.9034 183.422 62.0856 183.303 62.1298 183.117C62.1732 182.93 62.0574 182.743 61.8707 182.699L49.8305 179.882C49.6674 179.843 49.5027 179.927 49.4342 180.077C49.3663 180.228 49.4151 180.407 49.55 180.503L60.088 187.998L48.7482 187.302C48.5889 187.281 48.4319 187.401 48.39 187.562C48.3489 187.724 48.4281 187.892 48.579 187.963L60.1635 193.416L46.6325 193.144C46.4374 193.124 46.2827 193.294 46.2797 193.486C46.2774 193.677 46.4298 193.835 46.6219 193.838L49.7459 193.888L61.7838 194.144H61.7914Z" fill="white"/></g><g id="Shoes"><g id="Group 78"><path id="Mask" fill-rule="evenodd" clip-rule="evenodd" d="M172.353 200.78C172.353 200.78 173.704 195.595 165.936 188.797C158.169 182 144.12 181.31 144.733 171C144.733 171 138.319 171.245 137.96 177.036C137.6 182.827 131.925 172.488 129.054 173.154C126.184 173.82 121.879 177.361 121.879 177.361L121.927 200.8C121.927 200.8 154.911 200.787 171.403 200.781C171.72 200.781 172.353 200.78 172.353 200.78Z" fill="#F76954"/><g id="Group 78_2"><path id="Fill 76" fill-rule="evenodd" clip-rule="evenodd" d="M158.01 192.991C158.078 192.991 158.145 192.97 158.203 192.929L166.917 186.734C167.065 186.628 167.1 186.421 166.994 186.272C166.887 186.122 166.68 186.087 166.532 186.193L158.355 192.007L158.536 182.598C158.539 182.473 158.471 182.359 158.362 182.3C158.253 182.24 158.12 182.248 158.017 182.317L151.337 186.888L152.722 180.141C152.743 180.034 152.711 179.923 152.636 179.846C152.562 179.766 152.451 179.731 152.345 179.747L143.106 181.195L147.271 172.865C147.353 172.701 147.287 172.502 147.123 172.42C146.959 172.338 146.76 172.404 146.678 172.568L142.224 181.475C142.169 181.586 142.18 181.718 142.254 181.819C142.327 181.919 142.45 181.969 142.573 181.951L151.975 180.476L150.522 187.558C150.496 187.692 150.551 187.827 150.663 187.901C150.776 187.976 150.923 187.975 151.035 187.899L157.86 183.229L157.678 192.653C157.677 192.778 157.744 192.893 157.856 192.953C157.904 192.978 157.958 192.991 158.01 192.991" fill="white"/></g></g><g id="Group 75"><path id="Fill 73" fill-rule="evenodd" clip-rule="evenodd" d="M172.399 201.865L172.4 196.642L121.879 196.11V202L172.399 201.865Z" fill="#F8B0BE"/></g><path id="Fill 80" fill-rule="evenodd" clip-rule="evenodd" d="M127.4 185.894C127.4 188.655 129.639 190.894 132.4 190.894C135.161 190.894 137.4 188.655 137.4 185.894C137.4 183.132 135.161 180.894 132.4 180.894C129.639 180.894 127.4 183.132 127.4 185.894" fill="#F8B0BE"/></g></g></g><g id="Upper Body" transform="translate(35.5 13) scale(1 1)"><g id="Upper Body/Gesturing 3"><g id="Fill 9"><path id="Mask" fill-rule="evenodd" clip-rule="evenodd" d="M112.538 92.9144C112.538 92.9144 111.938 120.293 115.328 127.09C118.94 134.333 123.682 144.329 128.549 156.181C132.984 166.979 135.248 174.316 135.248 174.316C138.475 189.396 143.633 188.355 143.633 188.355C146.913 188.215 143.305 180.701 143.305 180.701C141.439 174.712 144.279 175.413 144.279 175.413C146.804 175.496 146.945 176.858 147.361 184.045C147.752 190.792 145.231 191.031 145.578 192.495C145.833 193.572 147.754 193.25 147.754 193.25C147.754 193.25 146.97 193.936 147.361 194.765C147.753 195.594 148.854 194.99 149.865 195.042C150.877 195.094 152.643 194.489 154.759 191.16C156.875 187.83 157.198 185.594 157.509 176.296C157.82 166.999 147.691 148.439 147.691 148.439C134.272 126.553 121.555 90.8474 121.555 90.8474L112.538 92.9144Z" fill="#ffcba7"/></g><path id="Tshirt" fill-rule="evenodd" clip-rule="evenodd" d="M118.897 62.2977C116.328 47.0153 99.5761 44.2269 99.5761 44.2269L90.26 42.4845C90.26 46.1357 86.1134 46.8217 84.5054 46.7514C77.676 46.4532 76.7305 42.3671 76.7305 42.3671C62.6697 42.5542 48.6287 54.0196 48.6287 54.0196C33.755 67.2992 34.0009 94.7523 34.0009 94.7523L57.7852 96.1569L59.8901 85.7657L58.0941 94.6297L52.7723 131.087L113.857 130.5L112.482 103.584L112.691 92.9031L126.06 89.8088L118.897 62.2977Z" fill="#26D9B9"/><g id="Arm"><path id="Mask" fill-rule="evenodd" clip-rule="evenodd" d="M38.859 134.158C33.4596 121.194 36.9977 94.7761 36.9977 94.7761L57.8422 95.74L56.1173 107.498L64.98 96.1282L77.6374 78.5007C79.0085 74.7028 81.0236 76.7969 81.0236 76.7969C81.0236 76.7969 81.4968 77.452 81.3292 78.4531C81.1417 79.5728 79.9376 83.4401 79.9376 83.4401L87.888 77.159C91.1809 76.5282 89.6067 82.2717 89.6067 82.2717C92.8433 84.1781 90.9734 87.5142 90.9734 87.5142C91.5985 90.2425 90.4766 92.7331 90.4766 92.7331L84.4562 105.517C84.4562 105.517 69.7696 134.586 62.0586 139.223C55.0658 143.428 41.8529 141.345 38.859 134.158Z" fill="#ffcba7"/></g><path id="Stroke 11" d="M111.456 65.698C111.575 65.6938 111.677 65.7725 111.706 65.8819L111.715 65.939L113.861 126.3C113.866 126.438 113.758 126.554 113.62 126.558C113.502 126.563 113.4 126.484 113.37 126.375L113.361 126.317L111.215 65.9568C111.211 65.8188 111.318 65.7029 111.456 65.698Z" fill="black"/></g></g><g id="Head" transform="translate(86.5 9) scale(1 1)"><g id="Head/Short"><g id="Head"><path id="Combined Shape" fill-rule="evenodd" clip-rule="evenodd" d="M21 31C21 28 24.6105 29.2839 24.6105 29.2839L24.3615 26.9115C24.4112 26.8793 24.3962 26.6113 24.3717 26.1765C24.2358 23.7574 23.8096 16.174 32.6313 15.2835C44.5359 14.0811 45.2763 23.1015 45.2763 23.1015C45.2763 23.1015 45.6645 23.4129 45.2367 31.5501C44.8844 38.2504 43.6227 41.2452 39.1933 42.6257V52C39.1933 52 34.7379 53 32.4307 53C30.1235 53 25.8431 52 25.8431 52L25.6718 34.9999C25.6337 34.8951 25.6149 34.8381 25.6149 34.8381C23.2569 35.4777 21 34 21 31Z" fill="#ffcba7"/><path id="Fill 15" fill-rule="evenodd" clip-rule="evenodd" d="M22.6383 32.8377C22.2747 32.3535 22.1703 31.7577 22.3437 31.1607C22.4331 30.8511 22.7565 30.6723 23.0673 30.7629C23.3763 30.8529 23.5545 31.1769 23.4645 31.4865C23.3763 31.7889 23.4741 32.0067 23.5719 32.1369C23.7471 32.3703 24.0507 32.5101 24.3843 32.5101C24.7065 32.5101 24.9681 32.7711 24.9681 33.0933C24.9681 33.4155 24.7065 33.6771 24.3843 33.6771C23.6859 33.6771 23.0331 33.3633 22.6383 32.8377Z" fill="black"/><path id="Fill 6" fill-rule="evenodd" clip-rule="evenodd" d="M39.2118 42.6251V46.587C39.2118 46.587 32.7788 44.0447 31.6183 41.9704C31.6183 41.9704 35.7073 43.9681 39.2118 42.6251Z" fill="black"/></g><path id="Hair" fill-rule="evenodd" clip-rule="evenodd" d="M25.6681 37.7031C25.9174 36.9413 25.5814 35.5109 25.6681 34.7411C22.0253 35.8402 20.3654 30.9243 21.7326 29.4618C22.6809 28.4475 24.5784 30.4064 24.9681 29.0702C25.3924 27.6167 24.277 23.4752 25.1532 22.0355C26.824 19.291 30.4172 19.5687 33.2252 19.8447C34.6242 19.9825 36.083 20.1232 37.4722 19.849C38.7002 19.6065 39.7716 20.1074 41.0234 20.1646C42.4841 20.2316 44.8203 24.3498 46 22.8038C46.809 21.7436 52.8692 19.849 46.2412 11.9727C43.0797 12.2949 39.9812 13.0495 36.963 12.5002C33.9377 11.9497 30.0995 12.102 27.838 14.4462C26.8077 15.514 26.0235 16.7547 24.7957 17.653C23.4767 18.618 21.7565 18.725 20.5457 19.8235C17.7722 22.34 19.5845 25.6667 19.1997 28.8545C18.815 32.0422 18.8648 32.618 20.3718 33.8835C20.9238 34.3472 21.5276 35.0686 22.0253 35.4836C22.5226 35.8983 22.7527 36.9828 23.419 37.5336C24.0853 38.0844 25.6369 37.7983 25.6681 37.7031Z" fill="#0b0c19"/></g></g><g id="Face" transform="translate(108.768 32.1018) scale(1 1)"><g id="Face/Smiling"><path id="Fill 193 " fill-rule="evenodd" clip-rule="evenodd" d="M19.6346 9.23348C19.5666 9.03523 19.4851 8.84048 19.4263 8.63898C19.3273 8.29373 19.2138 7.95298 19.1001 7.61273C18.9806 7.22398 18.8608 6.83548 18.7413 6.44698C18.7238 6.39048 18.7066 6.33398 18.6891 6.27773C18.6313 6.09048 18.4246 5.95198 18.2278 6.01573C18.0318 6.07923 17.9133 6.27323 17.9658 6.47698C18.0821 6.92798 18.2296 7.37023 18.3771 7.81173C18.5446 8.35523 18.7118 8.89873 18.8791 9.44223H17.3213H17.0556C16.8686 9.44223 16.7118 9.58473 16.6871 9.76748C16.6651 9.93223 16.7711 10.1525 16.9558 10.1787C16.9888 10.1835 17.0228 10.1852 17.0558 10.1892C17.0558 10.1902 17.0558 10.1912 17.0556 10.1922H17.0816C17.7718 10.2797 18.4888 10.2827 19.1788 10.1922H19.2021C19.2311 10.1922 19.2593 10.1872 19.2873 10.1802C19.2921 10.1795 19.2968 10.1795 19.3018 10.1787C19.3663 10.1692 19.4218 10.1332 19.4668 10.085C19.5523 10.0617 19.6313 10.011 19.6848 9.92248C19.8116 9.71248 19.7071 9.44423 19.6346 9.23348" fill="#06030A"/><g id="Group"><path id="Fill 219" fill-rule="evenodd" clip-rule="evenodd" d="M17.6123 14.375C18.9775 14.375 20.0985 13.3325 20.2245 12H15C15.126 13.3325 16.2468 14.375 17.6123 14.375" fill="white"/><path id="Fill 249" fill-rule="evenodd" clip-rule="evenodd" d="M15.3652 5.76824C15.3652 6.29999 15.1497 6.73124 14.8837 6.73124C14.618 6.73124 14.4022 6.29999 14.4022 5.76824C14.4022 5.23649 14.618 4.80524 14.8837 4.80524C15.1497 4.80524 15.3652 5.23649 15.3652 5.76824" fill="#06030A"/><path id="Fill 251" fill-rule="evenodd" clip-rule="evenodd" d="M21.2021 5.76824C21.2021 6.29999 20.9866 6.73124 20.7206 6.73124C20.4546 6.73124 20.2391 6.29999 20.2391 5.76824C20.2391 5.23649 20.4546 4.80524 20.7206 4.80524C20.9866 4.80524 21.2021 5.23649 21.2021 5.76824" fill="#06030A"/><path id="Fill 253" fill-rule="evenodd" clip-rule="evenodd" d="M13.2776 4.2265C13.6098 3.9735 14.0203 3.8985 14.4338 3.8735C14.6771 3.8585 14.9208 3.8615 15.1638 3.87475C15.2901 3.88175 15.4163 3.89175 15.5423 3.90425C15.5963 3.90925 15.6506 3.91525 15.7046 3.9215C15.7378 3.92525 15.7708 3.92925 15.8036 3.93325C15.8141 3.93475 15.8991 3.94575 15.8393 3.93775C16.0398 3.96475 16.2418 3.8895 16.3008 3.67575C16.3486 3.501 16.2408 3.24175 16.0388 3.2145C15.4931 3.14075 14.9423 3.08775 14.3916 3.12625C13.8781 3.16175 13.3191 3.2595 12.8991 3.57875C12.7383 3.701 12.6536 3.902 12.7646 4.092C12.8571 4.2505 13.1156 4.34975 13.2776 4.2265" fill="black"/><path id="Fill 255" fill-rule="evenodd" clip-rule="evenodd" d="M19.6218 3.87395C19.6438 3.86295 19.6658 3.8517 19.6886 3.8422C19.6506 3.85795 19.6843 3.8447 19.7033 3.8392C19.7523 3.82495 19.8006 3.8082 19.8506 3.79595C19.9768 3.76495 19.9913 3.76395 20.1093 3.7557C20.3383 3.73995 20.5928 3.75345 20.8048 3.78345C21.2603 3.8477 21.7441 3.9857 22.1931 4.1382C22.3848 4.2032 22.6031 4.06345 22.6543 3.87645C22.7106 3.67095 22.5851 3.48045 22.3926 3.41495C21.8688 3.2372 21.3361 3.0992 20.7868 3.03095C20.2641 2.96595 19.7226 2.99095 19.2431 3.2262C19.0613 3.3157 19.0118 3.5737 19.1086 3.73945C19.2171 3.9247 19.4393 3.9632 19.6218 3.87395" fill="black"/></g><circle id="blushing" cx="14.4997" cy="8.12951" r="1.08911" fill="#F76954"/></g></g></g></svg>