<svg viewBox="589.2732558139533 33.84999999999991 1015.9883720930237 2674.15" fill="none" xmlns="http://www.w3.org/2000/svg" xmlns:xlink="http://www.w3.org/1999/xlink" overflow="visible" width="1015.9883720930237px" height="2674.15px"><g id="Master/Character/Standing [colors]"><g id="Lower Body/Standing" transform="translate(503 1151) scale(1 1)"><g id="Lower Body/Standing/Summer Shorts"><g id="Group 46"><path id="Fill 1" fill-rule="evenodd" clip-rule="evenodd" d="M434.224 100.607C434.224 100.607 364.117 312.824 394.433 564.831C424.75 816.838 475.909 1328.43 475.909 1328.43H591.492C591.492 1328.43 600.966 843.365 618.019 678.518C635.072 513.671 642.651 396.194 642.651 396.194L671.073 276.823L680.547 434.09C680.547 434.09 877.605 1192.01 892.764 1341.7L1002.66 1339.8C1002.66 1339.8 940.133 439.775 928.765 371.562C917.396 303.349 834.025 121.45 834.025 121.45L434.224 100.607Z" fill="#ffcba7"/><path id="Fill 3" fill-rule="evenodd" clip-rule="evenodd" d="M592.836 1352.21H476.814C470.829 1352.21 465.977 1347.36 465.977 1341.37V1341.28C465.977 1335.29 470.829 1330.44 476.814 1330.44H592.836C598.821 1330.44 603.673 1335.29 603.673 1341.28V1341.37C603.673 1347.36 598.821 1352.21 592.836 1352.21" fill="#56ACF6"/><path id="Fill 5" fill-rule="evenodd" clip-rule="evenodd" d="M604.131 1358.23C604.131 1360.05 603.391 1361.7 602.201 1362.89C601.011 1364.09 599.361 1364.83 597.541 1364.83H595.571V1430.57H474.941V1364.83H473.031C469.391 1364.83 466.441 1361.87 466.441 1358.23C466.441 1356.41 467.181 1354.76 468.371 1353.57C469.561 1352.38 471.211 1351.64 473.031 1351.64H597.541C601.181 1351.64 604.131 1354.59 604.131 1358.23" fill="#E4F9FF"/><path id="Fill 7" fill-rule="evenodd" clip-rule="evenodd" d="M415.694 1546.17C415.694 1546.17 413.563 1512.35 423.95 1508.62C434.337 1504.89 610.155 1499.84 610.155 1499.84L609.845 1534.99C609.845 1534.99 557.113 1548.84 511.305 1550.43C465.497 1552.03 417.026 1548.3 415.694 1546.17" fill="#E4F9FF"/><path id="Fill 9" fill-rule="evenodd" clip-rule="evenodd" d="M610.157 1499.84C610.187 1501.77 610.207 1502.87 610.207 1502.87C610.207 1502.87 575.617 1510.26 546.057 1513.29C516.497 1516.31 429.507 1520 423.797 1512.61C419.077 1506.5 455.637 1456.38 468.477 1439.15C465.687 1437.85 463.747 1435.01 463.747 1431.72C463.747 1429.46 464.667 1427.4 466.147 1425.92C467.627 1424.44 469.687 1423.52 471.947 1423.52H603.107C607.637 1423.52 611.307 1427.19 611.307 1431.72C611.307 1433.98 610.387 1436.04 608.907 1437.52C608.347 1438.08 607.707 1438.56 607.007 1438.94C609.137 1454.41 609.947 1489.35 610.157 1499.84" fill="#204EB2"/><path id="Fill 11" fill-rule="evenodd" clip-rule="evenodd" d="M434.479 1489.01C434.479 1489.01 414.74 1510.19 424.624 1513.61C434.508 1517.03 512.058 1520.08 540.569 1515.51L569.08 1510.95C569.08 1510.95 571.276 1498.41 554.132 1485.75C541.879 1476.7 533.903 1464.23 522.499 1461.95C511.094 1459.67 489.094 1458.45 479.21 1463.39C469.327 1468.34 452.235 1478.42 434.479 1489.01" fill="#56ACF6"/><path id="Fill 13" fill-rule="evenodd" clip-rule="evenodd" d="M574.229 1467.89C574.229 1467.89 575.718 1496.18 586.515 1495.44C597.312 1494.69 601.882 1451.5 607.467 1438.85C607.467 1438.85 602.081 1437.4 592.965 1462.46C588.353 1475.15 589.494 1488.74 574.229 1467.89" fill="white"/><path id="Stroke 15" d="M470.071 1454.51C478.828 1451.92 488.575 1450.45 499.037 1450.68C512.587 1450.98 526.271 1454.13 539.774 1460.7C541.761 1461.66 542.588 1464.06 541.621 1466.05C540.655 1468.03 538.261 1468.86 536.274 1467.89C523.837 1461.84 511.286 1458.95 498.862 1458.68C489.277 1458.47 480.345 1459.81 472.344 1462.19C469.755 1462.95 467.462 1463.77 465.496 1464.58C464.932 1464.82 464.432 1465.04 463.999 1465.23L463.45 1465.49L463.234 1465.6C461.271 1466.61 458.858 1465.84 457.845 1463.88C456.832 1461.91 457.602 1459.5 459.565 1458.49L459.973 1458.28C460.542 1458.01 461.368 1457.64 462.437 1457.19C464.654 1456.28 467.208 1455.36 470.071 1454.51Z" fill="white"/><path id="Stroke 17" d="M480.739 1430.33C489.496 1427.74 499.243 1426.27 509.705 1426.5C523.254 1426.8 536.939 1429.95 550.442 1436.52C552.429 1437.48 553.256 1439.88 552.289 1441.86C551.323 1443.85 548.929 1444.68 546.942 1443.71C534.504 1437.66 521.954 1434.77 509.529 1434.5C499.944 1434.29 491.012 1435.63 483.011 1438C480.423 1438.77 478.13 1439.59 476.164 1440.4L475.518 1440.67C475.313 1440.76 475.119 1440.85 474.935 1440.93L474.204 1441.27L473.902 1441.41C471.939 1442.43 469.526 1441.66 468.513 1439.69C467.5 1437.73 468.27 1435.32 470.233 1434.31L470.492 1434.17C471.061 1433.89 471.938 1433.49 473.105 1433.01C475.322 1432.09 477.876 1431.18 480.739 1430.33Z" fill="white"/><path id="Stroke 19" d="M476.665 1438.08C485.474 1435.69 495.317 1434.45 505.878 1434.96C519.69 1435.63 533.554 1439.26 547.11 1446.46C549.061 1447.5 549.802 1449.92 548.766 1451.87C547.729 1453.82 545.308 1454.57 543.357 1453.53C530.872 1446.9 518.158 1443.56 505.492 1442.95C495.817 1442.48 486.798 1443.62 478.756 1445.8C476.39 1446.44 474.296 1447.12 472.501 1447.8L471.912 1448.03C471.539 1448.18 471.204 1448.31 470.907 1448.44L470.445 1448.64C468.447 1449.59 466.063 1448.73 465.12 1446.73C464.177 1444.73 465.032 1442.35 467.03 1441.41L467.439 1441.22C467.962 1440.99 468.709 1440.68 469.671 1440.32C471.702 1439.55 474.042 1438.79 476.665 1438.08Z" fill="white"/><path id="Stroke 21" d="M475.575 1449.48C495.336 1441.79 517.987 1440.16 542.128 1448.41C544.219 1449.12 545.335 1451.39 544.621 1453.48C543.908 1455.57 541.634 1456.69 539.544 1455.98C517.34 1448.4 496.592 1449.88 478.478 1456.94C475.156 1458.23 472.218 1459.61 469.702 1460.99C469.081 1461.33 468.521 1461.65 468.023 1461.94L467.327 1462.37L466.779 1462.72C464.956 1463.97 462.467 1463.5 461.219 1461.68C459.971 1459.85 460.438 1457.36 462.26 1456.12L462.696 1455.83C463.407 1455.37 464.469 1454.73 465.866 1453.97C468.675 1452.43 471.922 1450.9 475.575 1449.48Z" fill="white"/><path id="Fill 23" fill-rule="evenodd" clip-rule="evenodd" d="M898.544 1362.16L1014.42 1356.25C1020.39 1355.95 1024.99 1350.86 1024.69 1344.88L1024.68 1344.79C1024.38 1338.81 1019.29 1334.21 1013.31 1334.51L897.437 1340.42C891.459 1340.72 886.86 1345.81 887.165 1351.79L887.17 1351.88C887.474 1357.86 892.567 1362.46 898.544 1362.16" fill="#56ACF6"/><path id="Fill 25" fill-rule="evenodd" clip-rule="evenodd" d="M887.569 1368.75C887.662 1370.57 888.485 1372.18 889.734 1373.3C890.983 1374.44 892.669 1375.1 894.486 1375.01L896.454 1374.9L899.798 1440.56L1020.27 1434.42L1016.93 1368.77L1018.84 1368.67C1022.47 1368.48 1025.27 1365.38 1025.08 1361.74C1024.99 1359.93 1024.17 1358.31 1022.92 1357.19C1021.67 1356.06 1019.98 1355.4 1018.16 1355.5L893.815 1361.83C890.18 1362.02 887.384 1365.11 887.569 1368.75" fill="#E4F9FF"/><path id="Fill 27" fill-rule="evenodd" clip-rule="evenodd" d="M1085.32 1546.86C1085.32 1546.86 1085.73 1512.97 1075.17 1509.77C1064.6 1506.58 888.758 1510.48 888.758 1510.48L890.855 1545.56C890.855 1545.56 944.224 1556.71 990.054 1555.98C1035.88 1555.24 1084.1 1549.05 1085.32 1546.86" fill="#E4F9FF"/><path id="Fill 29" fill-rule="evenodd" clip-rule="evenodd" d="M888.756 1510.48C888.824 1512.41 888.86 1513.51 888.86 1513.51C888.86 1513.51 923.782 1519.13 953.457 1520.65C983.133 1522.16 1070.2 1521.42 1075.52 1513.75C1079.93 1507.41 1040.86 1459.21 1027.16 1442.66C1029.88 1441.22 1031.68 1438.29 1031.51 1435C1031.4 1432.74 1030.37 1430.73 1028.82 1429.33C1027.26 1427.93 1025.16 1427.11 1022.9 1427.23L891.914 1433.9C887.39 1434.13 883.911 1437.98 884.142 1442.51C884.257 1444.76 885.28 1446.77 886.834 1448.18C887.421 1448.71 888.085 1449.15 888.803 1449.5C887.463 1465.06 888.432 1499.99 888.756 1510.48" fill="#204EB2"/><path id="Fill 31" fill-rule="evenodd" clip-rule="evenodd" d="M1063.66 1490.72C1063.66 1490.72 1084.45 1510.87 1074.75 1514.79C1065.05 1518.71 987.758 1525.7 959.051 1522.59L930.345 1519.49C930.345 1519.49 927.513 1507.07 943.991 1493.55C955.768 1483.89 963.099 1471.04 974.373 1468.18C985.646 1465.32 1007.56 1462.98 1017.68 1467.42C1027.8 1471.85 1045.38 1481.05 1063.66 1490.72" fill="#56ACF6"/><path id="Fill 33" fill-rule="evenodd" clip-rule="evenodd" d="M923.012 1476.74C923.012 1476.74 922.964 1505.07 912.143 1504.88C901.323 1504.68 894.561 1461.78 888.34 1449.42C888.34 1449.42 893.645 1447.7 904.024 1472.27C909.276 1484.71 908.828 1498.34 923.012 1476.74" fill="white"/><path id="Stroke 35" d="M998.495 1455.64C1009.1 1455.01 1018.98 1456.15 1027.8 1458.45C1030.09 1459.04 1032.15 1459.68 1033.97 1460.32L1034.51 1460.51C1035.71 1460.95 1036.57 1461.3 1037.05 1461.52C1039.06 1462.43 1039.95 1464.8 1039.04 1466.81C1038.16 1468.76 1035.91 1469.66 1033.94 1468.88L1033.31 1468.62L1032.76 1468.4C1032.56 1468.32 1032.35 1468.24 1032.13 1468.16L1031.78 1468.03C1030.06 1467.41 1028.06 1466.78 1025.79 1466.19C1017.73 1464.09 1008.68 1463.05 998.971 1463.63C986.201 1464.39 973.418 1467.92 960.918 1474.81C958.983 1475.88 956.55 1475.17 955.484 1473.24C954.418 1471.3 955.122 1468.87 957.056 1467.81C970.629 1460.33 984.569 1456.47 998.495 1455.64Z" fill="white"/><path id="Stroke 37" d="M986.61 1432.04C997.21 1431.4 1007.09 1432.54 1015.91 1434.84C1018.2 1435.43 1020.27 1436.07 1022.09 1436.71L1022.63 1436.9C1023.83 1437.34 1024.68 1437.69 1025.16 1437.91C1027.18 1438.82 1028.07 1441.19 1027.16 1443.2C1026.27 1445.15 1024.02 1446.05 1022.05 1445.28L1021.42 1445.01L1020.87 1444.79C1020.58 1444.67 1020.25 1444.55 1019.9 1444.42C1018.18 1443.8 1016.17 1443.17 1013.9 1442.58C1005.85 1440.49 996.797 1439.44 987.086 1440.02C974.316 1440.78 961.533 1444.32 949.033 1451.2C947.098 1452.27 944.665 1451.57 943.599 1449.63C942.533 1447.7 943.237 1445.26 945.172 1444.2C958.744 1436.72 972.684 1432.87 986.61 1432.04Z" fill="white"/><path id="Stroke 39" d="M990.899 1440.26C1001.58 1439.34 1011.54 1440.25 1020.38 1442.33C1022.65 1442.86 1024.67 1443.44 1026.43 1444.01L1026.95 1444.19C1027.76 1444.46 1028.36 1444.69 1028.72 1444.84C1030.77 1445.68 1031.74 1448.02 1030.9 1450.06C1030.09 1452.04 1027.87 1453.02 1025.87 1452.31L1025.29 1452.09L1024.8 1451.91C1024.54 1451.82 1024.25 1451.72 1023.93 1451.61C1022.39 1451.11 1020.59 1450.59 1018.55 1450.12C1010.49 1448.22 1001.37 1447.39 991.583 1448.23C978.573 1449.34 965.637 1453.33 953.113 1460.83C951.217 1461.96 948.761 1461.34 947.627 1459.45C946.492 1457.55 947.11 1455.1 949.006 1453.96C962.604 1445.83 976.713 1441.47 990.899 1440.26Z" fill="white"/><path id="Stroke 41" d="M954.078 1455.65C978.427 1445.93 1001.66 1446.69 1022.03 1453.82C1025.11 1454.9 1027.88 1456.06 1030.31 1457.22L1030.92 1457.51C1032.49 1458.28 1033.61 1458.9 1034.24 1459.28C1036.12 1460.44 1036.71 1462.9 1035.56 1464.78C1034.44 1466.61 1032.1 1467.22 1030.24 1466.21L1029.58 1465.83L1029.45 1465.76C1028.87 1465.44 1028.19 1465.08 1027.39 1464.69C1025.09 1463.57 1022.41 1462.43 1019.38 1461.37C1000.72 1454.84 979.437 1454.14 957.045 1463.08C954.993 1463.9 952.666 1462.9 951.847 1460.85C951.028 1458.79 952.027 1456.47 954.078 1455.65Z" fill="white"/><g id="Group 45"><path id="Fill 43" fill-rule="evenodd" clip-rule="evenodd" d="M432 0C432 0 397.702 210.307 349.081 445.495C349.081 445.495 345.515 461.54 385.628 456.191C425.74 450.844 541.619 457.083 595.102 467.779C648.585 478.476 653.041 478.476 653.041 441.038C653.041 403.6 660.173 313.571 660.173 313.571C660.173 313.571 663.738 475.802 681.566 471.345C699.393 466.889 798.766 405.172 971.457 436.983C971.457 436.983 990.771 432.438 985.091 411.988C979.41 391.538 877.363 100.607 864 0H432Z" fill="#204EB2"/></g></g></g></g><g id="Upper Body" transform="translate(376 277) scale(1 1)"><g id="Upper Body/With Tablet"><path id="Fill 1" fill-rule="evenodd" clip-rule="evenodd" d="M571.998 659L536 996.203C536 996.203 886.321 1080.45 1014.04 970.265L1027 673.411L571.998 659Z" fill="#D60000"/><path id="Neck" fill-rule="evenodd" clip-rule="evenodd" d="M724.954 220C724.954 220 721.263 301.153 673.924 329.8C630.973 355.791 721.969 506.61 819.858 497.614C873.442 492.688 886 346.158 886 346.158C886 346.158 842.734 337.797 858.716 271.819L724.954 220Z" fill="#ffcba7"/><path id="Head" fill-rule="evenodd" clip-rule="evenodd" d="M803.337 302.516C739.877 294.841 694.078 253.116 687.665 183.898C669.216 186.835 664.865 138.765 670.003 123.323C675.146 107.859 691.933 116.901 691.933 116.901C691.933 116.901 693.327 113.235 694.303 109.226C722.025 -4.48555 799.67 0.0243587 799.67 0.0243587C942.344 7.45716 908.914 153.12 900.763 191.763C892.611 230.41 864.684 309.927 803.337 302.516Z" fill="#ffcba7"/><g id="Group 32"><path id="Fill 1_2" fill-rule="evenodd" clip-rule="evenodd" d="M1014.32 767.127C993.27 758.554 966.142 731.422 933.689 686.486C909.623 653.163 891.426 621.916 891.246 621.605L894.705 619.597C895.423 620.834 967.127 743.586 1015.83 763.422L1014.32 767.127Z" fill="#864A56"/><g id="Group 5"><mask id="mask08e1979ad-32aa-45fe-b425-2f01e76c858c" mask-type="alpha" maskUnits="userSpaceOnUse" x="446" y="325" width="604" height="618" fill="#ffffff"><path id="Clip 4" fill-rule="evenodd" clip-rule="evenodd" d="M446 325.601H1049.92V942.318H446V325.601Z" fill="#ffffff"/></mask><g mask="url(#mask08e1979ad-32aa-45fe-b425-2f01e76c858c)"><path id="Fill 3" fill-rule="evenodd" clip-rule="evenodd" d="M677.976 325.601C677.976 325.601 500.268 342.427 463.622 527.014C426.976 711.601 422.587 929.328 704.976 940.601C987.366 951.873 1011.38 904.363 1011.18 893.982C1010.98 883.601 1015.98 712.601 1038.98 582.601C1061.98 452.601 1063.98 382.601 887.976 339.601C887.976 339.601 809.976 443.601 677.976 325.601" fill="#D60000"/></g></g><path id="Fill 6" fill-rule="evenodd" clip-rule="evenodd" d="M812.977 401.601L833.977 305.601C833.977 305.601 832.977 289.601 857.977 290.601C882.977 291.601 1059.98 288.601 1059.98 288.601C1059.98 288.601 1073.98 286.601 1077.98 299.601C1081.98 312.601 1029.98 530.601 1029.98 530.601C1029.98 530.601 1030.98 545.601 1013.98 545.601C996.977 545.601 787.977 553.601 787.977 553.601L812.977 401.601" fill="#204EB2"/><g id="Group 10"><mask id="mask18e1979ad-32aa-45fe-b425-2f01e76c858c" mask-type="alpha" maskUnits="userSpaceOnUse" x="787" y="288" width="292" height="267" fill="#ffffff"><path id="Clip 9" fill-rule="evenodd" clip-rule="evenodd" d="M787.383 288H1078.68V554.124H787.383V288Z" fill="#ffffff"/></mask><g mask="url(#mask18e1979ad-32aa-45fe-b425-2f01e76c858c)"><path id="Fill 8" fill-rule="evenodd" clip-rule="evenodd" d="M813.467 401.694L788.569 553.077C801.109 552.598 997.615 545.1 1013.98 545.1C1019.2 545.1 1023.21 543.657 1025.87 540.809C1029.82 536.604 1029.48 530.692 1029.48 530.633L1029.47 530.558L1029.49 530.484C1030.01 528.305 1081.41 312.469 1077.5 299.748C1073.67 287.316 1060.6 289.016 1060.05 289.095C1058.21 289.131 882.682 292.091 857.956 291.1C848.798 290.733 842.151 292.597 838.187 296.638C834.233 300.67 834.472 305.521 834.475 305.57L834.479 305.639L834.464 305.707L813.467 401.694ZM787.383 554.124L812.488 401.494L833.473 305.558C833.447 304.881 833.42 300.083 837.456 295.955C841.624 291.692 848.553 289.734 857.995 290.1C882.697 291.09 1058.2 288.13 1059.97 288.1C1060.05 288.084 1074.38 286.2 1078.45 299.453C1082.44 312.402 1032.84 520.762 1030.48 530.645C1030.52 531.418 1030.64 537.176 1026.61 541.485C1023.75 544.548 1019.49 546.1 1013.98 546.1C997.18 546.1 790.085 554.02 787.995 554.1L787.383 554.124Z" fill="black"/></g></g><path id="Fill 11" fill-rule="evenodd" clip-rule="evenodd" d="M819.977 408.601L840.977 312.601C840.977 312.601 839.977 296.601 864.977 297.601C889.977 298.601 1066.98 295.601 1066.98 295.601C1066.98 295.601 1080.98 293.601 1084.98 306.601C1088.98 319.601 1036.98 537.601 1036.98 537.601C1036.98 537.601 1037.98 552.601 1020.98 552.601C1003.98 552.601 794.977 560.601 794.977 560.601L819.977 408.601" fill="#56ACF6"/><path id="Fill 13" fill-rule="evenodd" clip-rule="evenodd" d="M711.178 559.129C711.178 559.129 769.334 492.851 785.196 464.445C801.057 436.04 801.057 419.47 799.735 406.451C798.413 393.432 798.413 378.046 808.987 375.679C819.561 373.312 820.883 379.23 822.204 393.432C823.527 407.635 822.204 421.837 845.996 413.553C869.787 405.268 927.945 385.148 934.553 401.717C941.161 418.287 926.622 420.653 926.622 420.653C926.622 420.653 937.197 421.837 939.84 430.122C942.484 438.407 939.84 444.325 931.909 447.875C923.979 451.426 920.014 452.609 920.014 452.609C920.014 452.609 935.874 450.242 939.84 462.078C943.805 473.913 937.197 479.831 930.588 482.198C930.588 482.198 939.088 483.566 941.161 492.851C942.484 498.769 934.553 502.318 925.301 505.869C912.793 510.67 875.074 511.787 843.353 531.907C811.63 552.028 734.969 683.402 696.639 723.643C658.308 763.884 619.977 659.732 619.977 659.732C619.977 659.732 667.56 599.37 711.178 559.129" fill="#ffcba7"/><path id="Fill 15" fill-rule="evenodd" clip-rule="evenodd" d="M860.924 439.855L860.145 436.959L926.232 419.205L927.011 422.101L860.924 439.855Z" fill="black"/><path id="Fill 17" fill-rule="evenodd" clip-rule="evenodd" d="M860.924 470.628L860.145 467.732L926.232 449.978L927.011 452.874L860.924 470.628Z" fill="black"/><path id="Fill 19" fill-rule="evenodd" clip-rule="evenodd" d="M868.855 501.4L868.078 498.504L934.165 480.751L934.942 483.647L868.855 501.4Z" fill="black"/><g id="Group 23"><mask id="mask28e1979ad-32aa-45fe-b425-2f01e76c858c" mask-type="alpha" maskUnits="userSpaceOnUse" x="986" y="372" width="129" height="396" fill="#ffffff"><path id="Clip 22" fill-rule="evenodd" clip-rule="evenodd" d="M986.301 372.626H1114.97V767.601H986.301V372.626Z" fill="#ffffff"/></mask><g mask="url(#mask28e1979ad-32aa-45fe-b425-2f01e76c858c)"><path id="Fill 21" fill-rule="evenodd" clip-rule="evenodd" d="M1019.77 711.174C1019.77 711.174 1029.02 663.832 1032.99 604.654C1036.95 545.478 1035.63 519.44 1030.34 514.705C1025.06 509.971 988.047 511.154 988.047 492.218C988.047 473.28 1014.48 479.198 1014.48 479.198C1014.48 479.198 986.726 474.464 989.37 460.262C992.013 446.059 1007.87 448.426 1007.87 448.426C1007.87 448.426 982.76 443.692 986.726 428.306C990.691 412.92 1014.48 418.837 1014.48 418.837C1014.48 418.837 992.013 415.287 1001.26 399.901C1010.52 384.515 1026.38 393.983 1044.88 398.717C1063.39 403.451 1064.71 404.635 1066.03 397.533C1067.35 390.432 1064.71 371.495 1079.25 372.679C1093.79 373.862 1096.43 378.597 1096.43 404.635C1096.43 430.673 1100.4 454.344 1104.36 478.015C1108.33 501.686 1109.65 528.907 1107 572.699C1104.36 616.49 1141.37 745.497 1075.28 764.435C1009.2 783.371 1019.77 711.174 1019.77 711.174" fill="#ffcba7"/></g></g><path id="Fill 24" fill-rule="evenodd" clip-rule="evenodd" d="M1047.72 487.321L1008.85 478.972L1009.48 476.039L1048.35 484.387L1047.72 487.321Z" fill="black"/><path id="Fill 26" fill-rule="evenodd" clip-rule="evenodd" d="M1046.79 458.242L1007.91 449.892L1008.55 446.959L1047.42 455.308L1046.79 458.242Z" fill="black"/><path id="Fill 28" fill-rule="evenodd" clip-rule="evenodd" d="M1048.49 426.963L1009.62 418.614L1010.25 415.681L1049.12 424.029L1048.49 426.963Z" fill="black"/><path id="Fill 30" fill-rule="evenodd" clip-rule="evenodd" d="M1084.27 407.876L1065.11 403.733L1065.74 400.802L1084.91 404.944L1084.27 407.876Z" fill="black"/></g></g></g><g id="Expression" transform="translate(1098 360) scale(1 1)"><g id="Expression/Surprised"><g id="Group 124"><path id="Stroke 114" d="M123.94 52.5156L127.749 53.7376L127.377 54.9309C127.077 55.9042 126.744 57.0178 126.384 58.2528C125.356 61.7837 124.327 65.576 123.368 69.4789C122.301 73.8175 121.387 78.0249 120.672 81.9976L120.465 83.1739C118.727 93.2775 118.482 100.993 120.034 105.142L120.126 105.377C129.004 127.34 116.948 138.478 91.6439 130.679L90.873 130.436L92.0921 126.627C114.886 133.921 124.027 125.703 116.417 106.876C114.322 101.694 114.645 92.8992 116.735 81.2889C117.466 77.2272 118.398 72.9393 119.483 68.5239C120.349 65.0027 121.269 61.5727 122.196 58.338L122.543 57.1344C122.752 56.4175 122.952 55.7405 123.143 55.1067L123.631 53.5023L123.94 52.5156Z" fill="black"/><path id="Stroke 122" d="M25.1855 205.534L27.1425 202.045L27.8567 202.435L28.5118 202.783C29.5036 203.305 30.6327 203.881 31.8877 204.498L32.4332 204.765C36.6543 206.821 41.3224 208.878 46.301 210.798C57.7489 215.212 69.0606 218.225 79.5848 219.202C84.3541 219.645 88.8741 219.656 93.1069 219.202L93.9496 219.105L94.4385 223.075C89.6635 223.663 84.5751 223.683 79.2149 223.185C68.2771 222.169 56.6257 219.066 44.8619 214.53C39.7712 212.567 35.0001 210.465 30.6815 208.361L29.0484 207.554C28.354 207.206 27.7021 206.873 27.0948 206.556L25.9633 205.958L25.1855 205.534Z" fill="black"/></g><g id="Group 31"><path id="Fill 11" fill-rule="evenodd" clip-rule="evenodd" d="M107.414 155.348C107.414 158.595 104.782 161.228 101.534 161.228C98.2873 161.228 95.6543 158.595 95.6543 155.348C95.6543 152.1 98.2873 149.468 101.534 149.468C104.782 149.468 107.414 152.1 107.414 155.348" fill="black"/><path id="Fill 15" fill-rule="evenodd" clip-rule="evenodd" d="M44.2617 76.4573L68.2617 60.4573Z" fill="white"/><path id="Fill 17" fill-rule="evenodd" clip-rule="evenodd" d="M45.0937 77.7052L43.4297 75.2092L67.4297 59.2092L69.0937 61.7052L45.0937 77.7052Z" fill="black"/><path id="Fill 19" fill-rule="evenodd" clip-rule="evenodd" d="M55.2617 82.4573L79.2617 66.4573Z" fill="white"/><path id="Fill 21" fill-rule="evenodd" clip-rule="evenodd" d="M56.0937 83.7052L54.4297 81.2092L78.4297 65.2092L80.0937 67.7052L56.0937 83.7052Z" fill="black"/><path id="Fill 23" fill-rule="evenodd" clip-rule="evenodd" d="M138.262 84.4573L162.262 68.4573Z" fill="white"/><path id="Fill 25" fill-rule="evenodd" clip-rule="evenodd" d="M139.094 85.7052L137.43 83.2092L161.43 67.2092L163.094 69.7052L139.094 85.7052Z" fill="black"/><path id="Fill 27" fill-rule="evenodd" clip-rule="evenodd" d="M149.262 90.4573L173.262 74.4573Z" fill="white"/><path id="Fill 29" fill-rule="evenodd" clip-rule="evenodd" d="M150.094 91.7052L148.43 89.2092L172.43 73.2092L174.094 75.7052L150.094 91.7052Z" fill="black"/></g><path id="Stroke 116" d="M57.1285 14.4421C60.1764 14.0301 63.0083 13.8935 65.6004 14.0855C69.2487 14.3555 74.081 15.3352 79.9181 16.8745C81.7033 17.3453 83.5577 17.8626 85.4649 18.4191C88.6686 19.3537 91.8692 20.3532 94.9199 21.3527L96.9256 22.0174L98.9181 22.6958C101.786 23.697 103.299 26.8334 102.298 29.7012C101.322 32.4974 98.3161 34.0059 95.5084 33.1516L95.22 33.0559L94.2873 32.7365C93.4619 32.4562 92.5248 32.1433 91.4951 31.8059C88.5515 30.8415 85.4629 29.8771 82.384 28.9788C80.5647 28.448 78.8014 27.9561 77.1132 27.5109L76.0064 27.223C71.2755 26.01 67.4031 25.249 64.7881 25.0555C63.0338 24.9255 60.9444 25.0264 58.6021 25.343C55.7853 25.7238 52.7251 26.3971 49.5812 27.2801C48.0178 27.7191 46.5196 28.1857 45.1264 28.6553L44.4388 28.8903C43.9991 29.0426 43.598 29.1855 43.2397 29.3165L42.5088 29.5902C39.6807 30.6988 36.4895 29.3049 35.3809 26.4769C34.2723 23.6488 35.6661 20.4575 38.4942 19.3489L39.067 19.1306C39.5214 18.9611 40.1178 18.7457 40.8391 18.4959C42.619 17.8795 44.5603 17.2646 46.607 16.6898C50.2087 15.6783 53.7523 14.8985 57.1285 14.4421Z" fill="black"/><path id="Stroke 118" d="M154.327 30.5147L155.651 30.4798C161.093 30.3575 165.559 30.5269 168.875 31.0811C170.705 31.3869 172.611 31.8997 174.594 32.5956C177.537 33.6288 180.594 35.0454 183.711 36.7499C185.7 37.8379 187.616 38.9893 189.413 40.1493L190.176 40.6469C191.395 41.4503 192.302 42.0855 192.826 42.4703C195.216 44.2255 195.731 47.5858 193.975 49.9757C192.268 52.301 189.04 52.851 186.666 51.2623L185.925 50.7372L185.312 50.3137C184.988 50.0927 184.639 49.8583 184.267 49.6127C182.485 48.4383 180.555 47.2627 178.559 46.1711C175.917 44.7265 173.371 43.547 171.036 42.7273C169.604 42.2242 168.283 41.8691 167.105 41.6722C164.384 41.2175 160.045 41.0855 154.649 41.2478C151.359 41.3469 147.827 41.549 144.228 41.8238L142.668 41.9472C141.646 42.0308 140.663 42.1167 139.729 42.203L137.052 42.4664C134.104 42.7859 131.455 40.6551 131.135 37.7072C130.824 34.8329 132.841 32.243 135.675 31.8192L136.469 31.7309L137.68 31.6107L138.022 31.578C139.675 31.4208 141.49 31.2636 143.41 31.117C147.162 30.8305 150.854 30.6192 154.327 30.5147Z" fill="black"/></g></g><g id="Hairstyle" transform="translate(607 33) scale(1 1)"><g id="Hairstyle/Wavy Long Hair in the Wind"><g id="Group 3"><path id="Fill 1" fill-rule="evenodd" clip-rule="evenodd" d="M274.737 46.2864C335.737 94.2864 394.737 191.286 498.737 176.286C602.737 161.286 738.972 222.71 677.354 392.498C677.354 392.498 679.737 300.286 627.737 268.286C575.737 236.286 558.737 405.286 459.737 362.286C459.737 362.286 443.737 353.286 439.737 367.286C435.737 381.286 438.477 418.587 449.107 425.936C449.107 425.936 451.737 428.286 456.737 426.286C456.737 426.286 459.727 473.765 487.732 503.025C487.732 503.025 480.732 526.29 478.235 529.788L476.443 530.198C476.443 530.198 380.737 604.286 276.737 520.286C172.737 436.286 103.737 500.286 19.7374 422.286C-64.2626 344.286 137.492 109.021 85.7374 53.2864C147.737 -13.7136 244.863 22.7794 274.737 46.2864Z" fill="#ffd05f"/></g></g></g><g id="Accessories" transform="translate(1051 393) scale(1 1)"><g id="Accessories/Red Shades and Earring"><g id="Group 18"><path id="Fill 1" fill-rule="evenodd" clip-rule="evenodd" d="M138.693 34.1962C138.693 52.8062 123.606 67.8922 104.996 67.8922C86.3863 67.8922 71.2993 52.8062 71.2993 34.1962C71.2993 15.5862 86.3863 0.500244 104.996 0.500244C123.606 0.500244 138.693 15.5862 138.693 34.1962" fill="#E93737"/><path id="Fill 3" fill-rule="evenodd" clip-rule="evenodd" d="M104.996 4C88.346 4 74.8 17.546 74.8 34.196C74.8 50.847 88.346 64.393 104.996 64.393C121.646 64.393 135.193 50.847 135.193 34.196C135.193 17.546 121.646 4 104.996 4M104.996 71.393C84.486 71.393 67.8 54.706 67.8 34.196C67.8 13.687 84.486 -3 104.996 -3C125.507 -3 142.193 13.687 142.193 34.196C142.193 54.706 125.507 71.393 104.996 71.393" fill="#E93737"/><path id="Fill 5" fill-rule="evenodd" clip-rule="evenodd" d="M232.613 43.3037C232.613 61.9127 217.527 76.9997 198.917 76.9997C180.306 76.9997 165.22 61.9127 165.22 43.3037C165.22 24.6937 180.306 9.60767 198.917 9.60767C217.527 9.60767 232.613 24.6937 232.613 43.3037" fill="#E93737"/><g id="Group 9"><mask id="mask06d781282-cd60-4bf1-aa03-013290431806" mask-type="alpha" maskUnits="userSpaceOnUse" x="161" y="6" width="76" height="75" fill="#ffffff"><path id="Clip 8" fill-rule="evenodd" clip-rule="evenodd" d="M161.721 6.10742H236.113V80.5H161.721V6.10742Z" fill="#ffffff"/></mask><g mask="url(#mask06d781282-cd60-4bf1-aa03-013290431806)"><path id="Fill 7" fill-rule="evenodd" clip-rule="evenodd" d="M198.917 13.1074C182.267 13.1074 168.721 26.6534 168.721 43.3034C168.721 59.9544 182.267 73.5004 198.917 73.5004C215.567 73.5004 229.113 59.9544 229.113 43.3034C229.113 26.6534 215.567 13.1074 198.917 13.1074M198.917 80.5004C178.407 80.5004 161.721 63.8134 161.721 43.3034C161.721 22.7944 178.407 6.10742 198.917 6.10742C219.427 6.10742 236.113 22.7944 236.113 43.3034C236.113 63.8134 219.427 80.5004 198.917 80.5004" fill="#E93737"/></g></g><path id="Fill 10" fill-rule="evenodd" clip-rule="evenodd" d="M20.2998 8.5L70.2998 28.5Z" fill="#E93737"/><path id="Fill 12" fill-rule="evenodd" clip-rule="evenodd" d="M69 31.75L19 11.75L21.6 5.25L71.6 25.25L69 31.75Z" fill="#E93737"/><path id="Fill 14" fill-rule="evenodd" clip-rule="evenodd" d="M138.08 36.5811L164.3 39.5001Z" fill="#E93737"/><path id="Fill 16" fill-rule="evenodd" clip-rule="evenodd" d="M163.912 42.9785L137.692 40.0595L138.468 33.1025L164.687 36.0215L163.912 42.9785Z" fill="#E93737"/></g><g id="Group 5"><path id="Fill 1_2" fill-rule="evenodd" clip-rule="evenodd" d="M22.5 66C22.5 71.799 17.8 76.5 12 76.5C6.201 76.5 1.5 71.799 1.5 66C1.5 60.2 6.201 55.5 12 55.5C17.8 55.5 22.5 60.2 22.5 66" fill="white"/></g></g></g><g id="Facial Hair" transform="translate(1061 394) scale(212 211)"><g id="Facial Hair/None" stroke="none" stroke-width="1" fill="none" fill-rule="evenodd" fill-opacity="0"/></g></g></svg>