<svg viewBox="623.1395348837209 67.69999999999982 1083.7209302325587 2640.2999999999993" fill="none" xmlns="http://www.w3.org/2000/svg" xmlns:xlink="http://www.w3.org/1999/xlink" overflow="visible" width="1083.7209302325587px" height="2640.2999999999993px"><g id="Master/Character/Standing [colors]"><g id="Lower Body/Standing" transform="translate(503 1151) scale(1 1)"><g id="Lower Body/Standing/Summer Shorts"><g id="Group 46"><path id="Fill 1" fill-rule="evenodd" clip-rule="evenodd" d="M434.224 100.607C434.224 100.607 364.117 312.824 394.433 564.831C424.75 816.838 475.909 1328.43 475.909 1328.43H591.492C591.492 1328.43 600.966 843.365 618.019 678.518C635.072 513.671 642.651 396.194 642.651 396.194L671.073 276.823L680.547 434.09C680.547 434.09 877.605 1192.01 892.764 1341.7L1002.66 1339.8C1002.66 1339.8 940.133 439.775 928.765 371.562C917.396 303.349 834.025 121.45 834.025 121.45L434.224 100.607Z" fill="#f6cbc3"/><path id="Fill 3" fill-rule="evenodd" clip-rule="evenodd" d="M592.836 1352.21H476.814C470.829 1352.21 465.977 1347.36 465.977 1341.37V1341.28C465.977 1335.29 470.829 1330.44 476.814 1330.44H592.836C598.821 1330.44 603.673 1335.29 603.673 1341.28V1341.37C603.673 1347.36 598.821 1352.21 592.836 1352.21" fill="#56ACF6"/><path id="Fill 5" fill-rule="evenodd" clip-rule="evenodd" d="M604.131 1358.23C604.131 1360.05 603.391 1361.7 602.201 1362.89C601.011 1364.09 599.361 1364.83 597.541 1364.83H595.571V1430.57H474.941V1364.83H473.031C469.391 1364.83 466.441 1361.87 466.441 1358.23C466.441 1356.41 467.181 1354.76 468.371 1353.57C469.561 1352.38 471.211 1351.64 473.031 1351.64H597.541C601.181 1351.64 604.131 1354.59 604.131 1358.23" fill="#E4F9FF"/><path id="Fill 7" fill-rule="evenodd" clip-rule="evenodd" d="M415.694 1546.17C415.694 1546.17 413.563 1512.35 423.95 1508.62C434.337 1504.89 610.155 1499.84 610.155 1499.84L609.845 1534.99C609.845 1534.99 557.113 1548.84 511.305 1550.43C465.497 1552.03 417.026 1548.3 415.694 1546.17" fill="#E4F9FF"/><path id="Fill 9" fill-rule="evenodd" clip-rule="evenodd" d="M610.157 1499.84C610.187 1501.77 610.207 1502.87 610.207 1502.87C610.207 1502.87 575.617 1510.26 546.057 1513.29C516.497 1516.31 429.507 1520 423.797 1512.61C419.077 1506.5 455.637 1456.38 468.477 1439.15C465.687 1437.85 463.747 1435.01 463.747 1431.72C463.747 1429.46 464.667 1427.4 466.147 1425.92C467.627 1424.44 469.687 1423.52 471.947 1423.52H603.107C607.637 1423.52 611.307 1427.19 611.307 1431.72C611.307 1433.98 610.387 1436.04 608.907 1437.52C608.347 1438.08 607.707 1438.56 607.007 1438.94C609.137 1454.41 609.947 1489.35 610.157 1499.84" fill="#204EB2"/><path id="Fill 11" fill-rule="evenodd" clip-rule="evenodd" d="M434.479 1489.01C434.479 1489.01 414.74 1510.19 424.624 1513.61C434.508 1517.03 512.058 1520.08 540.569 1515.51L569.08 1510.95C569.08 1510.95 571.276 1498.41 554.132 1485.75C541.879 1476.7 533.903 1464.23 522.499 1461.95C511.094 1459.67 489.094 1458.45 479.21 1463.39C469.327 1468.34 452.235 1478.42 434.479 1489.01" fill="#56ACF6"/><path id="Fill 13" fill-rule="evenodd" clip-rule="evenodd" d="M574.229 1467.89C574.229 1467.89 575.718 1496.18 586.515 1495.44C597.312 1494.69 601.882 1451.5 607.467 1438.85C607.467 1438.85 602.081 1437.4 592.965 1462.46C588.353 1475.15 589.494 1488.74 574.229 1467.89" fill="white"/><path id="Stroke 15" d="M470.071 1454.51C478.828 1451.92 488.575 1450.45 499.037 1450.68C512.587 1450.98 526.271 1454.13 539.774 1460.7C541.761 1461.66 542.588 1464.06 541.621 1466.05C540.655 1468.03 538.261 1468.86 536.274 1467.89C523.837 1461.84 511.286 1458.95 498.862 1458.68C489.277 1458.47 480.345 1459.81 472.344 1462.19C469.755 1462.95 467.462 1463.77 465.496 1464.58C464.932 1464.82 464.432 1465.04 463.999 1465.23L463.45 1465.49L463.234 1465.6C461.271 1466.61 458.858 1465.84 457.845 1463.88C456.832 1461.91 457.602 1459.5 459.565 1458.49L459.973 1458.28C460.542 1458.01 461.368 1457.64 462.437 1457.19C464.654 1456.28 467.208 1455.36 470.071 1454.51Z" fill="white"/><path id="Stroke 17" d="M480.739 1430.33C489.496 1427.74 499.243 1426.27 509.705 1426.5C523.254 1426.8 536.939 1429.95 550.442 1436.52C552.429 1437.48 553.256 1439.88 552.289 1441.86C551.323 1443.85 548.929 1444.68 546.942 1443.71C534.504 1437.66 521.954 1434.77 509.529 1434.5C499.944 1434.29 491.012 1435.63 483.011 1438C480.423 1438.77 478.13 1439.59 476.164 1440.4L475.518 1440.67C475.313 1440.76 475.119 1440.85 474.935 1440.93L474.204 1441.27L473.902 1441.41C471.939 1442.43 469.526 1441.66 468.513 1439.69C467.5 1437.73 468.27 1435.32 470.233 1434.31L470.492 1434.17C471.061 1433.89 471.938 1433.49 473.105 1433.01C475.322 1432.09 477.876 1431.18 480.739 1430.33Z" fill="white"/><path id="Stroke 19" d="M476.665 1438.08C485.474 1435.69 495.317 1434.45 505.878 1434.96C519.69 1435.63 533.554 1439.26 547.11 1446.46C549.061 1447.5 549.802 1449.92 548.766 1451.87C547.729 1453.82 545.308 1454.57 543.357 1453.53C530.872 1446.9 518.158 1443.56 505.492 1442.95C495.817 1442.48 486.798 1443.62 478.756 1445.8C476.39 1446.44 474.296 1447.12 472.501 1447.8L471.912 1448.03C471.539 1448.18 471.204 1448.31 470.907 1448.44L470.445 1448.64C468.447 1449.59 466.063 1448.73 465.12 1446.73C464.177 1444.73 465.032 1442.35 467.03 1441.41L467.439 1441.22C467.962 1440.99 468.709 1440.68 469.671 1440.32C471.702 1439.55 474.042 1438.79 476.665 1438.08Z" fill="white"/><path id="Stroke 21" d="M475.575 1449.48C495.336 1441.79 517.987 1440.16 542.128 1448.41C544.219 1449.12 545.335 1451.39 544.621 1453.48C543.908 1455.57 541.634 1456.69 539.544 1455.98C517.34 1448.4 496.592 1449.88 478.478 1456.94C475.156 1458.23 472.218 1459.61 469.702 1460.99C469.081 1461.33 468.521 1461.65 468.023 1461.94L467.327 1462.37L466.779 1462.72C464.956 1463.97 462.467 1463.5 461.219 1461.68C459.971 1459.85 460.438 1457.36 462.26 1456.12L462.696 1455.83C463.407 1455.37 464.469 1454.73 465.866 1453.97C468.675 1452.43 471.922 1450.9 475.575 1449.48Z" fill="white"/><path id="Fill 23" fill-rule="evenodd" clip-rule="evenodd" d="M898.544 1362.16L1014.42 1356.25C1020.39 1355.95 1024.99 1350.86 1024.69 1344.88L1024.68 1344.79C1024.38 1338.81 1019.29 1334.21 1013.31 1334.51L897.437 1340.42C891.459 1340.72 886.86 1345.81 887.165 1351.79L887.17 1351.88C887.474 1357.86 892.567 1362.46 898.544 1362.16" fill="#56ACF6"/><path id="Fill 25" fill-rule="evenodd" clip-rule="evenodd" d="M887.569 1368.75C887.662 1370.57 888.485 1372.18 889.734 1373.3C890.983 1374.44 892.669 1375.1 894.486 1375.01L896.454 1374.9L899.798 1440.56L1020.27 1434.42L1016.93 1368.77L1018.84 1368.67C1022.47 1368.48 1025.27 1365.38 1025.08 1361.74C1024.99 1359.93 1024.17 1358.31 1022.92 1357.19C1021.67 1356.06 1019.98 1355.4 1018.16 1355.5L893.815 1361.83C890.18 1362.02 887.384 1365.11 887.569 1368.75" fill="#E4F9FF"/><path id="Fill 27" fill-rule="evenodd" clip-rule="evenodd" d="M1085.32 1546.86C1085.32 1546.86 1085.73 1512.97 1075.17 1509.77C1064.6 1506.58 888.758 1510.48 888.758 1510.48L890.855 1545.56C890.855 1545.56 944.224 1556.71 990.054 1555.98C1035.88 1555.24 1084.1 1549.05 1085.32 1546.86" fill="#E4F9FF"/><path id="Fill 29" fill-rule="evenodd" clip-rule="evenodd" d="M888.756 1510.48C888.824 1512.41 888.86 1513.51 888.86 1513.51C888.86 1513.51 923.782 1519.13 953.457 1520.65C983.133 1522.16 1070.2 1521.42 1075.52 1513.75C1079.93 1507.41 1040.86 1459.21 1027.16 1442.66C1029.88 1441.22 1031.68 1438.29 1031.51 1435C1031.4 1432.74 1030.37 1430.73 1028.82 1429.33C1027.26 1427.93 1025.16 1427.11 1022.9 1427.23L891.914 1433.9C887.39 1434.13 883.911 1437.98 884.142 1442.51C884.257 1444.76 885.28 1446.77 886.834 1448.18C887.421 1448.71 888.085 1449.15 888.803 1449.5C887.463 1465.06 888.432 1499.99 888.756 1510.48" fill="#204EB2"/><path id="Fill 31" fill-rule="evenodd" clip-rule="evenodd" d="M1063.66 1490.72C1063.66 1490.72 1084.45 1510.87 1074.75 1514.79C1065.05 1518.71 987.758 1525.7 959.051 1522.59L930.345 1519.49C930.345 1519.49 927.513 1507.07 943.991 1493.55C955.768 1483.89 963.099 1471.04 974.373 1468.18C985.646 1465.32 1007.56 1462.98 1017.68 1467.42C1027.8 1471.85 1045.38 1481.05 1063.66 1490.72" fill="#56ACF6"/><path id="Fill 33" fill-rule="evenodd" clip-rule="evenodd" d="M923.012 1476.74C923.012 1476.74 922.964 1505.07 912.143 1504.88C901.323 1504.68 894.561 1461.78 888.34 1449.42C888.34 1449.42 893.645 1447.7 904.024 1472.27C909.276 1484.71 908.828 1498.34 923.012 1476.74" fill="white"/><path id="Stroke 35" d="M998.495 1455.64C1009.1 1455.01 1018.98 1456.15 1027.8 1458.45C1030.09 1459.04 1032.15 1459.68 1033.97 1460.32L1034.51 1460.51C1035.71 1460.95 1036.57 1461.3 1037.05 1461.52C1039.06 1462.43 1039.95 1464.8 1039.04 1466.81C1038.16 1468.76 1035.91 1469.66 1033.94 1468.88L1033.31 1468.62L1032.76 1468.4C1032.56 1468.32 1032.35 1468.24 1032.13 1468.16L1031.78 1468.03C1030.06 1467.41 1028.06 1466.78 1025.79 1466.19C1017.73 1464.09 1008.68 1463.05 998.971 1463.63C986.201 1464.39 973.418 1467.92 960.918 1474.81C958.983 1475.88 956.55 1475.17 955.484 1473.24C954.418 1471.3 955.122 1468.87 957.056 1467.81C970.629 1460.33 984.569 1456.47 998.495 1455.64Z" fill="white"/><path id="Stroke 37" d="M986.61 1432.04C997.21 1431.4 1007.09 1432.54 1015.91 1434.84C1018.2 1435.43 1020.27 1436.07 1022.09 1436.71L1022.63 1436.9C1023.83 1437.34 1024.68 1437.69 1025.16 1437.91C1027.18 1438.82 1028.07 1441.19 1027.16 1443.2C1026.27 1445.15 1024.02 1446.05 1022.05 1445.28L1021.42 1445.01L1020.87 1444.79C1020.58 1444.67 1020.25 1444.55 1019.9 1444.42C1018.18 1443.8 1016.17 1443.17 1013.9 1442.58C1005.85 1440.49 996.797 1439.44 987.086 1440.02C974.316 1440.78 961.533 1444.32 949.033 1451.2C947.098 1452.27 944.665 1451.57 943.599 1449.63C942.533 1447.7 943.237 1445.26 945.172 1444.2C958.744 1436.72 972.684 1432.87 986.61 1432.04Z" fill="white"/><path id="Stroke 39" d="M990.899 1440.26C1001.58 1439.34 1011.54 1440.25 1020.38 1442.33C1022.65 1442.86 1024.67 1443.44 1026.43 1444.01L1026.95 1444.19C1027.76 1444.46 1028.36 1444.69 1028.72 1444.84C1030.77 1445.68 1031.74 1448.02 1030.9 1450.06C1030.09 1452.04 1027.87 1453.02 1025.87 1452.31L1025.29 1452.09L1024.8 1451.91C1024.54 1451.82 1024.25 1451.72 1023.93 1451.61C1022.39 1451.11 1020.59 1450.59 1018.55 1450.12C1010.49 1448.22 1001.37 1447.39 991.583 1448.23C978.573 1449.34 965.637 1453.33 953.113 1460.83C951.217 1461.96 948.761 1461.34 947.627 1459.45C946.492 1457.55 947.11 1455.1 949.006 1453.96C962.604 1445.83 976.713 1441.47 990.899 1440.26Z" fill="white"/><path id="Stroke 41" d="M954.078 1455.65C978.427 1445.93 1001.66 1446.69 1022.03 1453.82C1025.11 1454.9 1027.88 1456.06 1030.31 1457.22L1030.92 1457.51C1032.49 1458.28 1033.61 1458.9 1034.24 1459.28C1036.12 1460.44 1036.71 1462.9 1035.56 1464.78C1034.44 1466.61 1032.1 1467.22 1030.24 1466.21L1029.58 1465.83L1029.45 1465.76C1028.87 1465.44 1028.19 1465.08 1027.39 1464.69C1025.09 1463.57 1022.41 1462.43 1019.38 1461.37C1000.72 1454.84 979.437 1454.14 957.045 1463.08C954.993 1463.9 952.666 1462.9 951.847 1460.85C951.028 1458.79 952.027 1456.47 954.078 1455.65Z" fill="white"/><g id="Group 45"><path id="Fill 43" fill-rule="evenodd" clip-rule="evenodd" d="M432 0C432 0 397.702 210.307 349.081 445.495C349.081 445.495 345.515 461.54 385.628 456.191C425.74 450.844 541.619 457.083 595.102 467.779C648.585 478.476 653.041 478.476 653.041 441.038C653.041 403.6 660.173 313.571 660.173 313.571C660.173 313.571 663.738 475.802 681.566 471.345C699.393 466.889 798.766 405.172 971.457 436.983C971.457 436.983 990.771 432.438 985.091 411.988C979.41 391.538 877.363 100.607 864 0H432Z" fill="#204EB2"/></g></g></g></g><g id="Upper Body" transform="translate(376 277) scale(1 1)"><g id="Upper Body/Coffee and Phone"><path id="Neck" fill-rule="evenodd" clip-rule="evenodd" d="M724.954 220C724.954 220 721.263 301.153 673.924 329.8C630.973 355.791 721.969 506.61 819.858 497.614C873.442 492.688 886 346.158 886 346.158C886 346.158 842.734 337.797 858.716 271.819L724.954 220Z" fill="#f6cbc3"/><path id="Head" fill-rule="evenodd" clip-rule="evenodd" d="M803.337 302.516C739.877 294.841 694.078 253.116 687.665 183.898C669.216 186.835 664.865 138.765 670.003 123.323C675.146 107.859 691.933 116.901 691.933 116.901C691.933 116.901 693.327 113.235 694.303 109.226C722.025 -4.48555 799.67 0.0243587 799.67 0.0243587C942.344 7.45716 908.914 153.12 900.763 191.763C892.611 230.41 864.684 309.927 803.337 302.516Z" fill="#f6cbc3"/><g id="Group 31"><path id="Path" fill-rule="evenodd" clip-rule="evenodd" d="M376.227 576C376.227 576 206.738 844.505 269.287 901.819C331.836 959.134 507.933 762.377 507.933 762.377C507.933 762.377 498.858 718.445 461.074 666.513C423.29 614.58 376.227 576 376.227 576Z" fill="#f6cbc3"/><g id="Group 3"><path id="Fill 1" fill-rule="evenodd" clip-rule="evenodd" d="M1088.32 703.18L1005.85 693.58C1005.85 693.58 1026.95 977.46 1019.02 977.46C1014.76 977.46 915.693 1031.17 776.867 1031.17C670.216 1031.17 539.396 995.9 533.866 995.6C533.186 995.56 532.526 995.1 531.896 994.25C533.676 974.67 535.086 940.05 536.516 901.82C537.516 875 538.536 846.41 539.706 820C540.796 795.43 542.016 772.75 543.486 755.13C549.886 678.28 545.456 608.15 545.456 608.15L513.876 693.85L313.676 620.91C313.676 620.91 380.526 523.48 460.226 438.741C539.296 354.66 666.116 333.33 668.096 333.01C668.106 333 668.116 333 668.116 333C668.116 333 660.996 449 780.966 457.91C880.716 465.32 885.886 345.76 885.886 345.76C885.886 345.76 1002.49 376.2 1035.94 404.73C1069.39 433.26 1216.96 628.05 1216.96 632.97C1216.96 637.89 1088.32 703.18 1088.32 703.18Z" fill="#F9C818"/></g><path id="Fill 4" fill-rule="evenodd" clip-rule="evenodd" d="M539.707 820C538.537 846.41 537.517 875 536.517 901.819C536.287 883.649 537.007 857.52 539.707 820" fill="#F9C818"/><path id="Fill 6" fill-rule="evenodd" clip-rule="evenodd" d="M954.269 736.572L849.392 745.095C843.071 745.609 837.529 740.901 837.015 734.579L820.253 528.343C819.74 522.021 824.448 516.479 830.77 515.966L935.646 507.442C941.968 506.928 947.51 511.636 948.024 517.959L964.785 724.194C965.299 730.516 960.591 736.057 954.269 736.572" fill="#204EB2"/><path id="Fill 8" fill-rule="evenodd" clip-rule="evenodd" d="M964.96 730.856L859.705 739.411C853.488 739.917 848.038 735.286 847.532 729.068L831.35 529.967C830.845 523.751 835.476 518.3 841.693 517.795L946.948 509.241C953.165 508.735 958.615 513.366 959.121 519.584L975.303 718.683C975.808 724.901 971.177 730.351 964.96 730.856" fill="#1F9BEB"/><path id="Fill 10" fill-rule="evenodd" clip-rule="evenodd" d="M947.255 531.94C947.74 537.912 943.293 543.146 937.321 543.631C931.35 544.117 926.115 539.669 925.63 533.697C925.145 527.726 929.592 522.492 935.564 522.006C941.535 521.521 946.77 525.968 947.255 531.94" fill="#204EB2"/><g id="Group 14"><path id="Fill 12" fill-rule="evenodd" clip-rule="evenodd" d="M926.491 723.582C926.491 723.582 873.894 735.046 873.557 716.839C873.557 716.839 909.296 702.004 917.388 702.678C925.48 703.353 962.905 707.735 962.905 707.735L916.713 684.809L870.859 698.97C870.859 698.97 860.407 699.644 855.687 692.226C850.967 684.809 856.361 680.426 856.361 680.426L916.376 660.533C916.376 660.533 918.399 654.127 903.227 653.452C888.054 652.778 854.675 650.418 854.675 650.418C854.675 650.418 847.258 644.012 850.629 632.548C854.001 621.085 872.882 625.131 872.882 625.131C872.882 625.131 862.43 615.016 878.277 603.89C878.277 603.89 926.828 605.238 944.698 616.364C962.567 627.491 1084.89 702.596 1084.89 702.596L1180.09 652.587C1180.09 652.587 1360.84 873.839 1276 914.749C1191.16 955.658 926.491 723.582 926.491 723.582Z" fill="#f6cbc3"/></g><path id="Fill 15" fill-rule="evenodd" clip-rule="evenodd" d="M979.305 657.272L931.502 630.183L871.977 623.805L872.403 619.829L932.34 626.251C932.612 626.279 932.875 626.364 933.113 626.499L981.277 653.792L979.305 657.272Z" fill="black"/><path id="Fill 17" fill-rule="evenodd" clip-rule="evenodd" d="M1171.18 757.268L1056.93 685.473L1059.06 682.086L1173.31 753.881L1171.18 757.268Z" fill="black"/><path id="Fill 17_2" fill-rule="evenodd" clip-rule="evenodd" d="M454.788 675.157L340.173 746.375L338.062 742.977L452.676 671.759L454.788 675.157Z" fill="black"/><path id="Fill 19" fill-rule="evenodd" clip-rule="evenodd" d="M975.432 679.236C975.13 679.032 945.176 658.754 937.365 655.499C931.406 653.016 919.493 657.546 915.406 659.502L913.68 655.892C914.346 655.575 930.09 648.132 938.903 651.807C947.084 655.215 976.431 675.081 977.676 675.925L975.432 679.236Z" fill="black"/><path id="Fill 21" fill-rule="evenodd" clip-rule="evenodd" d="M965.141 600.124L994.655 645.264L966.588 627.613L965.141 600.124Z" fill="#f6cbc3"/><path id="Fill 23" fill-rule="evenodd" clip-rule="evenodd" d="M993.587 646.957L965.52 629.307L967.649 625.92L995.716 643.57L993.587 646.957Z" fill="black"/><path id="Fill 27" fill-rule="evenodd" clip-rule="evenodd" d="M601.7 757.014L566.555 756.325C529.55 755.599 500.139 725.011 500.865 688.006L503.062 576L662.887 579.136L660.507 700.469C659.883 732.323 633.554 757.639 601.7 757.014" fill="white"/></g><g id="Group"><path id="Fill 12" fill-rule="evenodd" clip-rule="evenodd" d="M499.562 614.711C499.562 614.711 485.139 623.983 480.503 629.649C475.867 635.315 479.988 636.346 469.686 647.163C459.384 657.981 440.84 685.281 473.291 727.005C505.744 768.729 516.561 765.122 529.954 757.911C543.346 750.699 544.892 745.549 570.132 742.973C595.372 740.398 619.582 715.672 619.067 709.491L618.552 703.31C618.552 703.31 641.731 694.553 640.187 684.766C638.641 674.979 631.945 676.009 631.945 676.009C631.945 676.009 636.581 671.373 632.975 663.131C629.369 654.89 612.371 656.435 592.796 659.011C573.223 661.586 522.742 671.888 519.651 669.828C516.561 667.768 517.591 664.677 529.438 663.131C541.286 661.586 589.191 661.071 589.191 647.678C589.191 634.285 574.768 631.71 546.952 632.225C519.136 632.74 513.985 631.194 507.289 633.771L500.592 636.346L499.562 614.711Z" fill="#f6cbc3"/><path id="Fill 14" fill-rule="evenodd" clip-rule="evenodd" d="M632.349 675.951C632.349 675.951 633.829 674.883 622.806 679.092C618.792 680.624 613.132 682.223 605.158 683.735C575.281 689.401 528.407 699.704 513.984 701.764C499.56 703.825 511.408 706.915 544.375 700.219C577.342 693.522 616.587 684.539 618.349 683.951C621.349 682.951 630.349 679.951 632.349 675.951" fill="black"/><path id="Fill 16" fill-rule="evenodd" clip-rule="evenodd" d="M607.736 706.401C607.736 706.401 583.352 714.952 571.352 717.952C558.611 721.137 549.014 725.46 546.439 721.339C543.863 717.218 540.772 716.188 540.772 716.188L536.652 720.824C536.652 720.824 537.352 725.952 535.106 726.49C531.099 727.451 523.258 729.066 523.258 729.066C523.258 729.066 523.352 731.952 547.352 726.952C553.307 725.712 564.352 723.952 571.352 721.952C577.791 720.112 601.04 714.128 604.131 711.552C607.221 708.976 607.736 706.401 607.736 706.401" fill="black"/><path id="Fill 18" fill-rule="evenodd" clip-rule="evenodd" d="M532.013 703.825C532.013 703.825 531.633 724.568 537.489 724.241C543.346 723.914 545.406 723.914 546.436 722.368C547.467 720.823 544.891 715.672 544.891 710.006C544.891 704.34 544.891 701.764 540.255 702.279C535.619 702.795 532.528 702.795 532.013 703.825" fill="#F9C818"/></g></g></g><g id="Expression" transform="translate(1098 360) scale(1 1)"><g id="Expression/Happy"><g id="Group 124"><path id="Stroke 114" d="M123.94 52.5157L127.749 53.7377L127.377 54.9309C127.077 55.9043 126.744 57.0179 126.384 58.2529C125.356 61.7838 124.327 65.5761 123.368 69.4789C122.301 73.8176 121.387 78.025 120.672 81.9977L120.465 83.174C118.727 93.2776 118.482 100.993 120.034 105.142L120.126 105.377C129.004 127.34 116.948 138.478 91.6439 130.679L90.873 130.437L92.0921 126.627C114.886 133.921 124.027 125.703 116.417 106.876C114.322 101.694 114.645 92.8993 116.735 81.289C117.466 77.2272 118.398 72.9394 119.483 68.524C120.349 65.0028 121.269 61.5728 122.196 58.3381L122.543 57.1345C122.752 56.4176 122.952 55.7406 123.143 55.1068L123.631 53.5024L123.94 52.5157Z" fill="black"/><path id="Stroke 122" d="M25.1855 205.534L27.1425 202.046L27.8567 202.435L28.5118 202.783C29.5036 203.305 30.6327 203.881 31.8877 204.498L32.4332 204.765C36.6543 206.821 41.3224 208.878 46.301 210.798C57.7489 215.212 69.0606 218.225 79.5848 219.202C84.3541 219.645 88.8741 219.656 93.1069 219.202L93.9496 219.105L94.4385 223.075C89.6635 223.663 84.5751 223.683 79.2149 223.185C68.2771 222.169 56.6257 219.066 44.8619 214.53C39.7712 212.567 35.0001 210.465 30.6815 208.361L29.0484 207.554C28.354 207.206 27.7021 206.873 27.0948 206.556L25.9633 205.958L25.1855 205.534Z" fill="black"/></g><g id="Group 16"><path id="Fill 3" fill-rule="evenodd" clip-rule="evenodd" d="M94.7153 165.02C76.4873 160.136 64.9813 148.104 64.443 147.532C63.3072 146.327 63.3646 144.428 64.5708 143.291C65.7746 142.156 67.674 142.212 68.8105 143.418C69.0384 143.657 82.5828 157.683 102.678 160.536C104.307 160.767 105.459 162.287 105.227 163.928C104.995 165.568 103.475 166.71 101.835 166.476C99.3642 166.127 96.9862 165.628 94.7153 165.02" fill="black"/><path id="Fill 5" fill-rule="evenodd" clip-rule="evenodd" d="M105.825 133.166C101.782 133.166 96.7384 132.375 90.4434 130.361L91.6614 126.551C103.385 130.302 112.045 129.996 116.046 125.687C119.449 122.02 119.428 115.313 115.987 106.801C113.652 101.026 114.229 90.0734 117.702 74.2454C120.243 62.6624 123.477 52.5414 123.51 52.4404L127.318 53.6624C123.811 64.5954 115.606 95.1874 119.695 105.302C124.893 118.16 122.174 124.964 118.977 128.408C116.697 130.866 112.718 133.166 105.825 133.166" fill="black"/><g id="Group 9"><path id="Fill 7" fill-rule="evenodd" clip-rule="evenodd" d="M89.1393 50.3876C88.5383 50.3876 87.9263 50.2876 87.3273 50.0786C81.4913 48.0426 64.6343 42.6306 56.8223 42.0526C49.4663 41.5076 38.2433 45.1416 34.5393 46.5886C31.7103 47.6926 28.5213 46.2976 27.4153 43.4706C26.3083 40.6426 27.7013 37.4546 30.5283 36.3456C31.1643 36.0966 46.2603 30.2396 57.6343 31.0826C68.4893 31.8866 90.0393 39.3746 90.9513 39.6936C93.8193 40.6946 95.3323 43.8306 94.3323 46.6986C93.5403 48.9666 91.4133 50.3876 89.1393 50.3876" fill="black"/></g><path id="Fill 10" fill-rule="evenodd" clip-rule="evenodd" d="M181.678 69.1645C180.576 69.1645 179.464 68.8265 178.507 68.1245C175.448 65.8845 166.003 59.8175 159.138 58.6695C151.813 57.4455 134.961 58.8295 129.085 59.4645C126.138 59.7795 123.489 57.6525 123.17 54.7055C122.85 51.7575 124.981 49.1085 127.928 48.7895C128.85 48.6895 150.629 46.3615 160.908 48.0795C171.716 49.8855 184.329 59.0775 184.861 59.4685C187.25 61.2235 187.765 64.5835 186.01 66.9735C184.958 68.4055 183.329 69.1645 181.678 69.1645" fill="black"/><path id="Fill 12" fill-rule="evenodd" clip-rule="evenodd" d="M78.6366 79.1289C77.9116 79.1289 77.1856 78.8679 76.6096 78.3389C76.5716 78.3049 71.6246 73.9129 64.4836 74.1789C57.0946 74.4519 52.1896 78.0669 52.1406 78.1029C50.8186 79.0929 48.9396 78.8329 47.9446 77.5169C46.9476 76.1999 47.1966 74.3309 48.5086 73.3279C48.7646 73.1319 54.8866 68.5299 64.2616 68.1829C73.9106 67.8359 80.3946 73.6699 80.6656 73.9189C81.8866 75.0389 81.9686 76.9369 80.8476 78.1569C80.2566 78.8019 79.4476 79.1289 78.6366 79.1289" fill="black"/><path id="Fill 14" fill-rule="evenodd" clip-rule="evenodd" d="M162.754 88.2724C162.029 88.2724 161.303 88.0114 160.727 87.4824C160.689 87.4484 155.742 83.0504 148.6 83.3224C141.231 83.5944 136.317 87.2014 136.27 87.2374C134.953 88.2444 133.07 87.9924 132.064 86.6764C131.058 85.3604 131.309 83.4774 132.625 82.4714C132.881 82.2754 139.004 77.6724 148.379 77.3264C158.024 76.9814 164.512 82.8134 164.783 83.0624C166.004 84.1824 166.086 86.0804 164.965 87.3004C164.374 87.9454 163.565 88.2724 162.754 88.2724" fill="black"/></g></g></g><g id="Hairstyle" transform="translate(607 33) scale(1 1)"><g id="Hairstyle/Curly Bun"><g id="Group 11"><g id="Group 3"><mask id="mask0cb0f9f0a-86b5-4eb7-8694-18bcc75a6937" mask-type="alpha" maskUnits="userSpaceOnUse" x="483" y="49" width="216" height="153" fill="#ffffff"><path id="Clip 2" fill-rule="evenodd" clip-rule="evenodd" d="M483.328 49H698.919V201.584H483.328V49Z" fill="#ffffff"/></mask><g mask="url(#mask0cb0f9f0a-86b5-4eb7-8694-18bcc75a6937)"><path id="Fill 1" fill-rule="evenodd" clip-rule="evenodd" d="M660.964 199.644C660.964 199.644 656.9 190.215 679.049 189.185C701.199 188.155 709.956 142.826 678.019 122.736C646.082 102.647 680.595 81.5284 631.659 56.2884C582.724 31.0474 558.514 79.4674 558.514 79.4674C558.514 79.4674 507.004 59.3784 488.975 100.587C470.946 141.795 501.852 158.279 501.852 158.279C501.852 158.279 481.248 172.187 497.732 189.185C514.215 206.184 558.697 187.293 566.075 196.481C573.452 205.669 660.964 199.644 660.964 199.644" fill="#9b5120"/></g></g><path id="Fill 4" fill-rule="evenodd" clip-rule="evenodd" d="M512.848 209.085C512.848 209.085 528.438 180.366 565.525 177.683C602.613 175 619.251 188.172 623.552 209.085C627.853 229.998 512.848 209.085 512.848 209.085" fill="white"/><g id="Group 8"><mask id="mask1cb0f9f0a-86b5-4eb7-8694-18bcc75a6937" mask-type="alpha" maskUnits="userSpaceOnUse" x="434" y="197" width="251" height="222" fill="#ffffff"><path id="Clip 7" fill-rule="evenodd" clip-rule="evenodd" d="M434 197.303H684.515V418.595H434V197.303Z" fill="#ffffff"/></mask><g mask="url(#mask1cb0f9f0a-86b5-4eb7-8694-18bcc75a6937)"><path id="Fill 6" fill-rule="evenodd" clip-rule="evenodd" d="M456.323 396.258C456.323 396.258 454.778 389.562 464.565 380.29C474.352 371.018 470.746 328.264 493.926 320.537C517.106 312.811 555.739 273.148 573.767 273.148C591.796 273.148 622.703 289.631 635.065 288.601C647.428 287.571 663.911 312.296 664.941 325.173C665.971 338.051 682.856 361.09 672.353 418.595C672.353 418.595 684.515 399.349 684.515 376.684C684.515 354.019 681.425 348.868 682.97 316.417C684.515 283.965 680.91 250.483 657.215 235.03C633.52 219.576 618.582 191.246 582.009 198.457C545.437 205.669 517.106 196.912 495.471 220.092C479.558 237.142 455.808 248.938 450.657 283.965C445.858 316.597 419.362 331.686 445.054 366.805C445.054 366.805 456.323 384.926 456.323 396.258Z" fill="#9b5120"/></g></g><path id="Fill 9" fill-rule="evenodd" clip-rule="evenodd" d="M515.502 206.745C515.502 206.745 522.323 178.486 567.323 175.486C612.323 172.486 621.086 191.87 623.205 207.678C623.205 207.678 604.716 195.311 581.02 200.399C557.323 205.486 530.681 202.004 515.502 206.745" fill="#56ACF6"/></g></g></g><g id="Accessories" transform="translate(1051 393) scale(1 1)"><g id="Accessories/Glasses and Earring"><g id="Group 136"><path id="Stroke 128" fill-rule="evenodd" clip-rule="evenodd" d="M68.0361 34.6775C68.0361 13.583 85.138 -3.51849 106.233 -3.51849C127.328 -3.51849 144.429 13.5829 144.429 34.6775C144.429 55.7728 127.328 72.8735 106.233 72.8735C85.1377 72.8735 68.0361 55.7726 68.0361 34.6775ZM135.429 34.6775C135.429 18.5534 122.357 5.48151 106.233 5.48151C90.1085 5.48151 77.0361 18.5537 77.0361 34.6775C77.0361 50.802 90.1082 63.8735 106.233 63.8735C122.358 63.8735 135.429 50.8022 135.429 34.6775Z" fill="black"/><path id="Stroke 130" fill-rule="evenodd" clip-rule="evenodd" d="M161.957 43.7849C161.957 22.6898 179.058 5.58893 200.154 5.58893C221.249 5.58893 238.35 22.6896 238.35 43.7849C238.35 64.8802 221.249 81.9809 200.154 81.9809C179.058 81.9809 161.957 64.8801 161.957 43.7849ZM229.35 43.7849C229.35 27.6602 216.278 14.5889 200.154 14.5889C184.029 14.5889 170.957 27.6604 170.957 43.7849C170.957 59.9094 184.029 72.9809 200.154 72.9809C216.278 72.9809 229.35 59.9096 229.35 43.7849Z" fill="black"/><path id="Stroke 132" d="M17.3582 7.30992C18.2541 5.07026 20.7475 3.94707 23.0032 4.72688L23.2076 4.80303L73.2076 24.803C75.5151 25.726 76.6375 28.3449 75.7145 30.6524C74.8186 32.8921 72.3252 34.0153 70.0695 33.2355L69.8651 33.1593L19.8651 13.1593C17.5576 12.2363 16.4352 9.61745 17.3582 7.30992Z" fill="black"/><path id="Stroke 134" d="M135.843 36.5655C136.11 34.166 138.218 32.4182 140.602 32.5723L140.814 32.5908L167.034 35.5088C169.504 35.7837 171.283 38.0089 171.008 40.4789C170.741 42.8784 168.634 44.6262 166.249 44.4722L166.038 44.4536L139.818 41.5356C137.348 41.2607 135.569 39.0355 135.843 36.5655Z" fill="black"/></g><g id="Group 5"><path id="Fill 1" fill-rule="evenodd" clip-rule="evenodd" d="M22.5 66C22.5 71.799 17.8 76.5 12 76.5C6.201 76.5 1.5 71.799 1.5 66C1.5 60.2 6.201 55.5 12 55.5C17.8 55.5 22.5 60.2 22.5 66" fill="white"/></g></g></g><g id="Facial Hair" transform="translate(1061 394) scale(212 211)"><g id="Facial Hair/None" stroke="none" stroke-width="1" fill="none" fill-rule="evenodd" fill-opacity="0"/></g></g></svg>